<?xml version="1.0" encoding="UTF-8" standalone="no"?>
<!-- Created with Inkscape (http://www.inkscape.org/) -->

<svg
   xmlns:dc="http://purl.org/dc/elements/1.1/"
   xmlns:cc="http://creativecommons.org/ns#"
   xmlns:rdf="http://www.w3.org/1999/02/22-rdf-syntax-ns#"
   xmlns:svg="http://www.w3.org/2000/svg"
   xmlns="http://www.w3.org/2000/svg"
   xmlns:sodipodi="http://sodipodi.sourceforge.net/DTD/sodipodi-0.dtd"
   xmlns:inkscape="http://www.inkscape.org/namespaces/inkscape"
   width="155mm"
   height="155mm"
   viewBox="0 0 549.21263 549.21257"
   id="svg6237"
   version="1.1"
   inkscape:version="0.91 r13725"
   sodipodi:docname="puttogetherhamburger.svg">
  <defs
     id="defs6239" />
  <sodipodi:namedview
     id="base"
     pagecolor="#ffffff"
     bordercolor="#666666"
     borderopacity="1.0"
     inkscape:pageopacity="0.0"
     inkscape:pageshadow="2"
     inkscape:zoom="0.29241086"
     inkscape:cx="1884.755"
     inkscape:cy="-237.1675"
     inkscape:document-units="px"
     inkscape:current-layer="layer1"
     showgrid="false"
     fit-margin-top="0"
     fit-margin-left="0"
     fit-margin-right="0"
     fit-margin-bottom="0"
     inkscape:window-width="1920"
     inkscape:window-height="1035"
     inkscape:window-x="0"
     inkscape:window-y="1"
     inkscape:window-maximized="1" />
  <metadata
     id="metadata6242">
    <rdf:RDF>
      <cc:Work
         rdf:about="">
        <dc:format>image/svg+xml</dc:format>
        <dc:type
           rdf:resource="http://purl.org/dc/dcmitype/StillImage" />
        <dc:title></dc:title>
      </cc:Work>
    </rdf:RDF>
  </metadata>
  <g
     inkscape:label="Layer 1"
     inkscape:groupmode="layer"
     id="layer1"
     transform="translate(2295.5808,-643.40526)">
    <g
       style="font-style:normal;font-weight:normal;font-size:40px;line-height:125%;font-family:sans-serif;letter-spacing:0px;word-spacing:0px;fill:#cccccc;fill-opacity:1;stroke:none;stroke-width:1px;stroke-linecap:butt;stroke-linejoin:miter;stroke-opacity:1"
       id="text8466"
       transform="translate(-444.57998,-499.29752)">
      <path
         d="m -1703.7969,1245.8055 -4.1406,0 0,-3.8086 4.1406,0 0,3.8086 z m -0.2344,25.9961 q 0,3.8282 -1.9531,5.7813 -1.9531,1.9531 -5.2344,1.9531 -0.7812,0 -2.0703,-0.1562 -1.2695,-0.1563 -2.1289,-0.3907 l 0,-3.4961 0.1953,0 q 0.5469,0.2149 1.4649,0.4883 0.9375,0.2735 1.8164,0.2735 1.4062,0 2.2656,-0.3907 0.8594,-0.3906 1.2891,-1.1718 0.4297,-0.7813 0.5469,-1.8946 0.1367,-1.0937 0.1367,-2.6758 l 0,-17.5781 -4.5508,0 0,-3.0859 8.2226,0 0,22.3437 z"
         id="path8518"
         inkscape:connector-curvature="0" />
      <path
         d="m -1676.9609,1263.0907 -4.3164,0 0,8.1836 -3.75,0 0,-8.1836 -13.9258,0 0,-4.4922 14.082,-16.4062 3.5938,0 0,17.7734 4.3164,0 0,3.125 z m -8.0664,-3.125 0,-13.125 -11.2696,13.125 11.2696,0 z"
         id="path8520"
         inkscape:connector-curvature="0" />
      <path
         d="m -1652.1758,1260.1024 q 0,2.6563 -0.7617,4.8633 -0.7617,2.1875 -2.1484,3.7109 -1.2891,1.4453 -3.0469,2.2461 -1.7383,0.7813 -3.6914,0.7813 -1.6992,0 -3.086,-0.3711 -1.3671,-0.3711 -2.7929,-1.1524 l 0,9.1407 -3.6719,0 0,-29.8633 3.6719,0 0,2.2851 q 1.4648,-1.2304 3.2812,-2.0507 1.836,-0.8399 3.9063,-0.8399 3.9453,0 6.1328,2.9883 2.207,2.9687 2.207,8.2617 z m -3.789,0.098 q 0,-3.9453 -1.3477,-5.8985 -1.3477,-1.9531 -4.1406,-1.9531 -1.5821,0 -3.1836,0.6836 -1.6016,0.6836 -3.0664,1.7969 l 0,12.3633 q 1.5625,0.7031 2.6758,0.957 1.1328,0.2539 2.5585,0.2539 3.0665,0 4.7852,-2.0703 1.7188,-2.0703 1.7188,-6.1328 z"
         id="path8522"
         inkscape:connector-curvature="0" />
      <path
         d="m -1626.5703,1263.0907 -4.3164,0 0,8.1836 -3.75,0 0,-8.1836 -13.9258,0 0,-4.4922 14.082,-16.4062 3.5938,0 0,17.7734 4.3164,0 0,3.125 z m -8.0664,-3.125 0,-13.125 -11.2696,13.125 11.2696,0 z"
         id="path8524"
         inkscape:connector-curvature="0" />
      <path
         d="m -1602.7422,1271.2743 -3.6719,0 0,-12.4219 q 0,-1.5039 -0.1757,-2.8125 -0.1758,-1.3281 -0.6446,-2.0703 -0.4883,-0.8203 -1.4062,-1.2109 -0.918,-0.4102 -2.3828,-0.4102 -1.5039,0 -3.1446,0.7422 -1.6406,0.7422 -3.1445,1.8945 l 0,16.2891 -3.6719,0 0,-21.8164 3.6719,0 0,2.4219 q 1.7187,-1.4258 3.5547,-2.2266 1.8359,-0.8008 3.7695,-0.8008 3.5352,0 5.3906,2.1289 1.8555,2.1289 1.8555,6.1328 l 0,14.1602 z"
         id="path8526"
         inkscape:connector-curvature="0" />
      <path
         d="m -1563.0156,1260.3759 q 0,5.332 -2.7344,8.4179 -2.7344,3.086 -7.3242,3.086 -4.6289,0 -7.3633,-3.086 -2.7148,-3.0859 -2.7148,-8.4179 0,-5.3321 2.7148,-8.418 2.7344,-3.1055 7.3633,-3.1055 4.5898,0 7.3242,3.1055 2.7344,3.0859 2.7344,8.418 z m -3.7891,0 q 0,-4.2383 -1.6601,-6.2891 -1.6602,-2.0703 -4.6094,-2.0703 -2.9883,0 -4.6485,2.0703 -1.6406,2.0508 -1.6406,6.2891 0,4.1015 1.6602,6.2304 1.6601,2.1094 4.6289,2.1094 2.9297,0 4.5898,-2.0898 1.6797,-2.1094 1.6797,-6.25 z"
         id="path8528"
         inkscape:connector-curvature="0" />
      <path
         d="m -1539.0703,1271.2743 -3.6719,0 0,-12.4219 q 0,-1.5039 -0.1758,-2.8125 -0.1758,-1.3281 -0.6445,-2.0703 -0.4883,-0.8203 -1.4063,-1.2109 -0.9179,-0.4102 -2.3828,-0.4102 -1.5039,0 -3.1445,0.7422 -1.6406,0.7422 -3.1445,1.8945 l 0,16.2891 -3.6719,0 0,-21.8164 3.6719,0 0,2.4219 q 1.7187,-1.4258 3.5547,-2.2266 1.8359,-0.8008 3.7695,-0.8008 3.5351,0 5.3906,2.1289 1.8555,2.1289 1.8555,6.1328 l 0,14.1602 z"
         id="path8530"
         inkscape:connector-curvature="0" />
      <path
         d="m -1692,1310.3759 q 0,5.332 -2.7344,8.4179 -2.7344,3.086 -7.3242,3.086 -4.6289,0 -7.3633,-3.086 -2.7148,-3.0859 -2.7148,-8.4179 0,-5.3321 2.7148,-8.418 2.7344,-3.1055 7.3633,-3.1055 4.5898,0 7.3242,3.1055 2.7344,3.0859 2.7344,8.418 z m -3.7891,0 q 0,-4.2383 -1.6601,-6.2891 -1.6602,-2.0703 -4.6094,-2.0703 -2.9883,0 -4.6484,2.0703 -1.6407,2.0508 -1.6407,6.2891 0,4.1015 1.6602,6.2304 1.6602,2.1094 4.6289,2.1094 2.9297,0 4.5898,-2.0898 1.6797,-2.1094 1.6797,-6.25 z"
         id="path8532"
         inkscape:connector-curvature="0" />
      <path
         d="m -1667.0977,1310.1024 q 0,2.6563 -0.7617,4.8633 -0.7617,2.1875 -2.1484,3.7109 -1.2891,1.4453 -3.0469,2.2461 -1.7383,0.7813 -3.6914,0.7813 -1.6992,0 -3.0859,-0.3711 -1.3672,-0.3711 -2.793,-1.1524 l 0,9.1407 -3.6719,0 0,-29.8633 3.6719,0 0,2.2851 q 1.4648,-1.2304 3.2812,-2.0507 1.836,-0.8399 3.9063,-0.8399 3.9453,0 6.1328,2.9883 2.207,2.9687 2.207,8.2617 z m -3.789,0.098 q 0,-3.9453 -1.3477,-5.8985 -1.3476,-1.9531 -4.1406,-1.9531 -1.582,0 -3.1836,0.6836 -1.6016,0.6836 -3.0664,1.7969 l 0,12.3633 q 1.5625,0.7031 2.6758,0.957 1.1328,0.2539 2.5586,0.2539 3.0664,0 4.7851,-2.0703 1.7188,-2.0703 1.7188,-6.1328 z"
         id="path8534"
         inkscape:connector-curvature="0" />
      <path
         d="m -1643.1133,1310.7469 -16.0742,0 q 0,2.0118 0.6055,3.5157 0.6054,1.4843 1.6601,2.4414 1.0156,0.9375 2.4024,1.4062 1.4062,0.4688 3.0859,0.4688 2.2266,0 4.4727,-0.8789 2.2656,-0.8985 3.2226,-1.7578 l 0.1953,0 0,4.0039 q -1.8554,0.7812 -3.789,1.3086 -1.9336,0.5273 -4.0625,0.5273 -5.4297,0 -8.4766,-2.9297 -3.0469,-2.9492 -3.0469,-8.3594 0,-5.3515 2.9102,-8.4961 2.9297,-3.1445 7.6953,-3.1445 4.4141,0 6.7969,2.5781 2.4023,2.5782 2.4023,7.3243 l 0,1.9921 z m -3.5742,-2.8125 q -0.02,-2.8906 -1.4648,-4.4726 -1.4258,-1.582 -4.3555,-1.582 -2.9492,0 -4.707,1.7382 -1.7383,1.7383 -1.9727,4.3164 l 12.5,0 z"
         id="path8536"
         inkscape:connector-curvature="0" />
      <path
         d="m -1619.3047,1321.2743 -3.6719,0 0,-12.4219 q 0,-1.5039 -0.1757,-2.8125 -0.1758,-1.3281 -0.6446,-2.0703 -0.4883,-0.8203 -1.4062,-1.2109 -0.918,-0.4102 -2.3828,-0.4102 -1.5039,0 -3.1446,0.7422 -1.6406,0.7422 -3.1445,1.8945 l 0,16.2891 -3.6719,0 0,-21.8164 3.6719,0 0,2.4219 q 1.7187,-1.4258 3.5547,-2.2266 1.8359,-0.8008 3.7695,-0.8008 3.5352,0 5.3906,2.1289 1.8555,2.1289 1.8555,6.1328 l 0,14.1602 z"
         id="path8538"
         inkscape:connector-curvature="0" />
      <path
         d="m -1596.1016,1319.9071 q -1.8359,0.8789 -3.4961,1.3672 -1.6406,0.4883 -3.4961,0.4883 -2.3632,0 -4.3359,-0.6836 -1.9726,-0.7031 -3.3789,-2.1094 -1.4258,-1.4062 -2.207,-3.5547 -0.7813,-2.1484 -0.7813,-5.0195 0,-5.3516 2.9297,-8.3985 2.9492,-3.0468 7.7734,-3.0468 1.875,0 3.6719,0.5273 1.8164,0.5274 3.3203,1.2891 l 0,4.082 -0.1953,0 q -1.6797,-1.3086 -3.4765,-2.0117 -1.7774,-0.7031 -3.4766,-0.7031 -3.125,0 -4.9414,2.1093 -1.7969,2.0899 -1.7969,6.1524 0,3.9453 1.7578,6.0742 1.7774,2.1094 4.9805,2.1094 1.1133,0 2.2656,-0.293 1.1524,-0.293 2.0703,-0.7617 0.8008,-0.4102 1.5039,-0.8594 0.7032,-0.4687 1.1133,-0.8008 l 0.1953,0 0,4.043 z"
         id="path8540"
         inkscape:connector-curvature="0" />
      <path
         d="m -1587.6641,1321.2743 -3.6718,0 0,-30.3906 3.6718,0 0,30.3906 z"
         id="path8542"
         inkscape:connector-curvature="0" />
      <path
         d="m -1576.4141,1295.8055 -4.1406,0 0,-3.8086 4.1406,0 0,3.8086 z m -0.2343,25.4688 -3.6719,0 0,-21.8164 3.6719,0 0,21.8164 z"
         id="path8544"
         inkscape:connector-curvature="0" />
      <path
         d="m -1550.1445,1310.1024 q 0,2.6563 -0.7618,4.8633 -0.7617,2.1875 -2.1484,3.7109 -1.2891,1.4453 -3.0469,2.2461 -1.7382,0.7813 -3.6914,0.7813 -1.6992,0 -3.0859,-0.3711 -1.3672,-0.3711 -2.793,-1.1524 l 0,9.1407 -3.6719,0 0,-29.8633 3.6719,0 0,2.2851 q 1.4649,-1.2304 3.2813,-2.0507 1.8359,-0.8399 3.9062,-0.8399 3.9453,0 6.1328,2.9883 2.2071,2.9687 2.2071,8.2617 z m -3.7891,0.098 q 0,-3.9453 -1.3477,-5.8985 -1.3476,-1.9531 -4.1406,-1.9531 -1.582,0 -3.1836,0.6836 -1.6015,0.6836 -3.0664,1.7969 l 0,12.3633 q 1.5625,0.7031 2.6758,0.957 1.1328,0.2539 2.5586,0.2539 3.0664,0 4.7852,-2.0703 1.7187,-2.0703 1.7187,-6.1328 z"
         id="path8546"
         inkscape:connector-curvature="0" />
      <path
         d="m -1527.4688,1321.2743 -3.6523,0 0,-2.3242 q -0.4883,0.332 -1.3281,0.9375 -0.8203,0.5859 -1.6016,0.9375 -0.918,0.4492 -2.1094,0.7422 -1.1914,0.3125 -2.7929,0.3125 -2.9492,0 -5,-1.9532 -2.0508,-1.9531 -2.0508,-4.9804 0,-2.4805 1.0547,-4.0039 1.0742,-1.543 3.0469,-2.4219 1.9921,-0.8789 4.7851,-1.1914 2.793,-0.3125 5.9961,-0.4688 l 0,-0.5664 q 0,-1.25 -0.4492,-2.0703 -0.4297,-0.8203 -1.25,-1.2891 -0.7813,-0.4492 -1.875,-0.6054 -1.0938,-0.1563 -2.2852,-0.1563 -1.4453,0 -3.2226,0.3907 -1.7774,0.371 -3.6719,1.0937 l -0.1953,0 0,-3.7305 q 1.0742,-0.2929 3.1055,-0.6445 2.0312,-0.3516 4.0039,-0.3516 2.3046,0 4.0039,0.3907 1.7187,0.3711 2.9687,1.289 1.2305,0.8985 1.875,2.3242 0.6445,1.4258 0.6445,3.5352 l 0,14.8047 z m -3.6523,-5.3711 0,-6.0742 q -1.6797,0.098 -3.9648,0.2929 -2.2657,0.1954 -3.5938,0.5665 -1.582,0.4492 -2.5586,1.4062 -0.9765,0.9375 -0.9765,2.5977 0,1.875 1.1328,2.832 1.1328,0.9375 3.457,0.9375 1.9336,0 3.5352,-0.7422 1.6015,-0.7617 2.9687,-1.8164 z"
         id="path8548"
         inkscape:connector-curvature="0" />
      <path
         d="m -1506.8242,1303.4618 -0.1953,0 q -0.8203,-0.1953 -1.6016,-0.2734 -0.7617,-0.098 -1.8164,-0.098 -1.6992,0 -3.2813,0.7617 -1.582,0.7422 -3.0468,1.9336 l 0,15.4883 -3.6719,0 0,-21.8164 3.6719,0 0,3.2226 q 2.1875,-1.7578 3.8476,-2.4804 1.6797,-0.7422 3.418,-0.7422 0.957,0 1.3867,0.059 0.4297,0.039 1.2891,0.1758 l 0,3.7695 z"
         id="path8550"
         inkscape:connector-curvature="0" />
      <path
         d="m -1492,1321.079 q -1.0352,0.2734 -2.2656,0.4492 -1.211,0.1758 -2.168,0.1758 -3.3398,0 -5.0781,-1.7969 -1.7383,-1.7969 -1.7383,-5.7617 l 0,-11.6016 -2.4805,0 0,-3.0859 2.4805,0 0,-6.2695 3.6719,0 0,6.2695 7.5781,0 0,3.0859 -7.5781,0 0,9.9414 q 0,1.7188 0.078,2.6953 0.078,0.9571 0.5469,1.7969 0.4297,0.7813 1.1718,1.1524 0.7618,0.3515 2.3047,0.3515 0.8985,0 1.875,-0.2539 0.9766,-0.2734 1.4063,-0.4492 l 0.1953,0 0,3.3008 z"
         id="path8552"
         inkscape:connector-curvature="0" />
      <path
         d="m -1481.5508,1321.2743 -4.668,0 0,-5.5664 4.668,0 0,5.5664 z"
         id="path8554"
         inkscape:connector-curvature="0" />
      <path
         d="m -1454.4219,1310.3759 q 0,5.332 -2.7344,8.4179 -2.7343,3.086 -7.3242,3.086 -4.6289,0 -7.3633,-3.086 -2.7148,-3.0859 -2.7148,-8.4179 0,-5.3321 2.7148,-8.418 2.7344,-3.1055 7.3633,-3.1055 4.5899,0 7.3242,3.1055 2.7344,3.0859 2.7344,8.418 z m -3.789,0 q 0,-4.2383 -1.6602,-6.2891 -1.6602,-2.0703 -4.6094,-2.0703 -2.9883,0 -4.6484,2.0703 -1.6406,2.0508 -1.6406,6.2891 0,4.1015 1.6601,6.2304 1.6602,2.1094 4.6289,2.1094 2.9297,0 4.5899,-2.0898 1.6797,-2.1094 1.6797,-6.25 z"
         id="path8556"
         inkscape:connector-curvature="0" />
      <path
         d="m -1435.1055,1303.4618 -0.1953,0 q -0.8203,-0.1953 -1.6015,-0.2734 -0.7618,-0.098 -1.8165,-0.098 -1.6992,0 -3.2812,0.7617 -1.582,0.7422 -3.0469,1.9336 l 0,15.4883 -3.6719,0 0,-21.8164 3.6719,0 0,3.2226 q 2.1875,-1.7578 3.8477,-2.4804 1.6797,-0.7422 3.4179,-0.7422 0.9571,0 1.3868,0.059 0.4297,0.039 1.289,0.1758 l 0,3.7695 z"
         id="path8558"
         inkscape:connector-curvature="0" />
      <path
         d="m -1413.9141,1318.7938 q 0,5.5469 -2.5195,8.1446 -2.5195,2.5976 -7.7539,2.5976 -1.7383,0 -3.3984,-0.2539 -1.6407,-0.2344 -3.2422,-0.6836 l 0,-3.75 0.1953,0 q 0.8984,0.3516 2.8515,0.8594 1.9532,0.5273 3.9063,0.5273 1.875,0 3.1055,-0.4492 1.2304,-0.4492 1.914,-1.25 0.6836,-0.7617 0.9766,-1.8359 0.293,-1.0742 0.293,-2.4024 l 0,-1.9922 q -1.6602,1.3282 -3.1836,1.9922 -1.5039,0.6446 -3.8477,0.6446 -3.9062,0 -6.2109,-2.8125 -2.2852,-2.8321 -2.2852,-7.9688 0,-2.8125 0.7813,-4.8437 0.8007,-2.0508 2.1679,-3.5352 1.2696,-1.3867 3.086,-2.1484 1.8164,-0.7813 3.6133,-0.7813 1.8945,0 3.164,0.3906 1.2891,0.3711 2.7149,1.1524 l 0.2343,-0.9375 3.4375,0 0,19.3359 z m -3.6718,-3.5156 0,-11.8945 q -1.4649,-0.6641 -2.7344,-0.9375 -1.25,-0.293 -2.5,-0.293 -3.0274,0 -4.7656,2.0312 -1.7383,2.0313 -1.7383,5.8985 0,3.6719 1.289,5.5664 1.2891,1.8945 4.2774,1.8945 1.6015,0 3.2031,-0.6054 1.6211,-0.625 2.9688,-1.6602 z"
         id="path8560"
         inkscape:connector-curvature="0" />
    </g>
    <g
       id="g7256"
       transform="translate(47.877844,-30.778614)">
      <g
         transform="matrix(1.0009125,0,0,0.875774,84.049253,-544.26108)"
         id="g7213">
        <path
           style="fill:#c66f19;fill-opacity:1;fill-rule:evenodd;stroke:#9c651e;stroke-width:5;stroke-linecap:butt;stroke-linejoin:miter;stroke-miterlimit:4;stroke-dasharray:none;stroke-opacity:1"
           d="m -2334.1896,1889.6758 c -3.9221,19.9639 1.3143,45.4658 22.8958,54.2675 23.9412,8.8046 47.0565,20.2084 72.2708,25.7008 33.2867,7.9848 67.8196,6.2948 101.8194,6.1801 22.2351,-3.3907 43.9763,-10.1656 65.908,-15.2843 19.7691,-4.7748 40.9621,-7.0756 57.928,-18.9244 14.7368,-9.7087 28.2484,-26.665 24.8345,-44.5867 -5.3395,-13.4622 -23.1232,-13.665 -35.9243,-12.9486 -18.4149,1.2597 -35.7818,8.157 -54.31,8.8941 -21.5907,1.7019 -43.1592,3.8185 -64.6558,6.1701 -31.9312,1.3016 -63.9484,0.6495 -95.8612,1.7539 -30.303,-2.1382 -60.5168,-5.4198 -90.5622,-9.7383 -4.4751,-2.5242 1.0023,4.6944 -4.343,-1.4842 l 0,0 z"
           id="path7004"
           inkscape:connector-curvature="0" />
        <path
           style="fill:#dd7b1a;fill-opacity:1;fill-rule:evenodd;stroke:#9c651e;stroke-width:5;stroke-linecap:butt;stroke-linejoin:miter;stroke-miterlimit:4;stroke-dasharray:none;stroke-opacity:1"
           d="m -2339.5088,1884.6052 c 1.6956,13.9232 14.4208,20.8942 23.9364,29.1557 17.1992,10.2129 37.5327,14.9946 57.1593,16.2526 17.206,1.8395 35.4701,7.7007 54.1426,6.65 21.7026,1.6072 43.2367,2.5243 65.022,2.4478 21.6871,-0.078 43.4556,1.3861 64.5058,-4.1549 23.0251,-3.2776 44.5442,-11.9713 66.6049,-18.6476 14.5636,-6.0656 27.9048,-22.8315 22.1186,-38.6107 -4.4102,-5.923 -6.5853,-8.9329 -12.8931,-16.6659 -8.9689,-8.9666 -28.6498,-7.8859 -42.527,-9.4201 -20.4381,-1.5124 -40.4858,-3.2447 -60.9454,-4.0665 -16.4209,-0.1557 -31.9012,-1.0603 -46.6623,-5.1625 -18.2374,0.8635 -36.5528,0.1642 -54.8221,0.3901 -17.8561,4.7018 -36.8766,3.4297 -55.2641,7.6059 -19.0867,3.7978 -41.9095,7.1104 -57.4193,19.6988 -7.4373,5.9145 -16.7289,6.9261 -22.9563,14.5273 z"
           id="path7000"
           inkscape:connector-curvature="0" />
        <path
           style="fill:#d38c22;fill-opacity:1;fill-rule:evenodd;stroke:none;stroke-width:5;stroke-linecap:butt;stroke-linejoin:miter;stroke-miterlimit:4;stroke-dasharray:none;stroke-opacity:1"
           d="m -2012.3777,1871.9288 c 3.1442,10.8456 -13.1931,13.2399 -19.8386,18.5379 -9.3408,4.0273 -18.5628,10.4967 -23.2919,18.1453 1.1921,11.2668 12.6087,12.1465 20.6256,6.7903 10.486,-0.6899 17.7338,-8.0411 24.1965,-15.1176 7.066,-6.1936 13.4937,-16.445 8.9399,-25.5845 -2.1412,-3.4801 -6.9289,-5.2427 -10.6315,-2.7714 z"
           id="path7010"
           inkscape:connector-curvature="0" />
      </g>
      <path
         inkscape:connector-curvature="0"
         id="path6973"
         d="m -2129.4494,1072.05 c -17.9695,0.069 -36.194,-1.7874 -53.2917,5.0589 -20.6279,-0.9007 -40.203,4.7424 -50.3314,23.9195 -17.4713,8.9022 -32.3856,37.1841 -2.8267,38.901 7.573,11.4683 14.9705,13.9642 23.203,6.5107 13.5983,7.6968 25.1455,-22.5583 36.1493,0.9916 5.3595,22.1717 25.1739,9.9406 29.3628,-2.4472 8.7133,6.5044 2.8722,30.532 17.8573,12.9924 10.3646,-10.6863 24.7083,29.5203 31.618,2.4625 3.1457,-19.4187 5.976,-41.6106 18.7294,-55.2361 -0.2631,-19.1484 -32.23,-34.8365 -50.47,-33.1533 l 0,0 z"
         style="fill:#ee2a1c;fill-opacity:1;fill-rule:evenodd;stroke:#913b3b;stroke-width:5;stroke-linecap:butt;stroke-linejoin:miter;stroke-miterlimit:4;stroke-dasharray:none;stroke-opacity:1" />
      <path
         inkscape:connector-curvature="0"
         id="path6975"
         d="m -1983.0269,1089.5495 c -14.6954,-22.8213 -42.4684,-15.2337 -64.559,-21.2982 -15.2935,-2.7737 -34.0146,-11.5142 -42.0983,1.6718 -22.8592,-1.5096 -15.9227,22.3026 -7.5789,32.1118 -9.6518,16.8161 -18.9902,31.9882 -15.2548,52.3054 -8.0437,17.3354 11.0566,19.0651 12.8969,2.9529 18.8717,-10.5401 11.79,40.1013 29.4463,14.7638 9.4297,-18.7796 47.3984,-12.322 37.9829,12.3752 13.541,19.6494 12.8681,-18.1117 29.3034,-13.0094 12.2801,-9.2 10.1526,-30.6664 31.5493,-22.5668 24.0071,9.7369 31.5426,-22.581 15.2108,-34.8863 -11.1718,-7.2601 -11.6335,-23.9822 -26.8986,-24.4202 z"
         style="fill:#f4f5f7;fill-opacity:1;fill-rule:evenodd;stroke:#a8a5a5;stroke-width:5;stroke-linecap:butt;stroke-linejoin:miter;stroke-miterlimit:4;stroke-dasharray:none;stroke-opacity:1" />
      <path
         sodipodi:nodetypes="ccccccccccccsccccc"
         inkscape:connector-curvature="0"
         id="path6968"
         d="m -2038.2486,997.70285 c -13.9172,-12.9209 -34.3819,0.3954 -40.8862,4.15785 -21.8671,-16.89415 -43.1371,10.5741 -65.4646,7.5642 -23.44,7.3906 -40.0966,24.2833 -66.399,17.523 -7.533,12.6652 -52.6585,9.693 -25.676,30.3667 16.9371,7.4672 -19.0564,17.6535 -0.2034,31.5706 14.9813,18.072 42.0839,3.7898 53.1837,28.4366 21.2215,27.447 53.9117,5.8832 80.1402,23.1889 17.6185,11.6789 32.5792,-10.876 48.7326,4.4619 23.1173,0 46.0266,-3.9509 69.2656,-2.1595 20.6812,1.4843 21.179,-5.4083 7.5304,-14.8174 11.6315,-0.8684 40.8892,4.4415 32.4089,-16.6545 17.3505,4.3357 18.8805,-9.9859 27.0792,-19.4517 8.1986,-9.4659 23.0657,-14.0759 31.7242,-22.963 9.8402,-24.2293 -11.8335,-24.449 -32.5066,-40.9877 -11.9915,-28.64375 -18.2072,-30.65555 -52.6217,-30.88565 -13.4022,14.44695 -37.7024,0.1758 -51.2834,-4.30289 -2.919,8.45974 -11.1419,-0.4459 -15.0239,4.95259 z"
         style="fill:#9cd420;fill-opacity:1;fill-rule:evenodd;stroke:#4c8b36;stroke-width:5;stroke-linecap:butt;stroke-linejoin:miter;stroke-miterlimit:4;stroke-dasharray:none;stroke-opacity:1" />
      <g
         transform="translate(71.816766,-389.86242)"
         id="g7208">
        <path
           style="fill:#674335;fill-opacity:1;fill-rule:evenodd;stroke:#603414;stroke-width:5;stroke-linecap:round;stroke-linejoin:round;stroke-miterlimit:4;stroke-dasharray:none;stroke-opacity:1"
           d="m -2333.4129,1373.5322 c 0,0 8.2827,-17.4835 15.1772,-23.947 9.172,-8.5985 33.0927,-18.0945 33.0927,-18.0945 0,0 41.9773,-13.7814 63.644,-17.7186 18.8384,-3.4232 57.2187,-5.0472 57.2187,-5.0472 l 101.8017,8.7519 c 0,0 50.9294,6.568 70.0692,21.7993 16.9263,13.4698 32.6989,56.0554 32.6989,56.0554 l -7.7854,49.827 -65.398,28.0277 -76.2975,15.5709 -85.6402,-4.6713 -65.3979,-12.4567 -60.7266,-24.9135 -18.6852,-29.5848 z"
           id="path6920"
           inkscape:connector-curvature="0"
           sodipodi:nodetypes="cacaccaccccccccc" />
        <path
           style="fill:#4c2a21;fill-opacity:1;fill-rule:evenodd;stroke:#603414;stroke-width:5;stroke-linecap:round;stroke-linejoin:round;stroke-miterlimit:4;stroke-dasharray:none;stroke-opacity:1"
           d="m -2336.5271,1381.3177 34.2561,54.4982 70.0692,17.1281 144.8097,9.3425 101.211,-29.5848 20.2423,-24.9135 5.2646,-4.8279 -0.5934,28.1844 -10.8996,18.6851 -54.4983,28.0277 -91.8685,12.4567 -82.526,-4.6713 -68.5121,-6.2284 -51.384,-29.5847 -15.571,-24.9135 -6.2284,-9.3426 1.5571,-23.3564 z"
           id="path6922"
           inkscape:connector-curvature="0"
           sodipodi:nodetypes="cccccccccccccccccc" />
        <path
           style="fill:#512e1b;fill-opacity:1;fill-rule:evenodd;stroke:none;stroke-width:5;stroke-linecap:butt;stroke-linejoin:miter;stroke-miterlimit:4;stroke-dasharray:none;stroke-opacity:1"
           d="m -2126.0407,1319.6237 -8.8418,1.3613 -0.6797,4.0801 9.5215,10.8828 -35.3672,4.7598 -6.8008,-11.5625 -8.8418,-6.1192 c 0,0 -6.8006,2.0397 -4.0801,4.0801 2.7205,2.0403 5.4414,9.5215 5.4414,9.5215 l 1.3594,4.7598 -31.2852,1.3613 -10.8828,-17.0039 -10.8808,3.4004 10.2011,12.9238 -31.9648,6.1211 -7.4824,-16.3242 -7.4805,4.082 4.7617,13.6016 -24.4844,0 2.7207,0.6797 -0.2421,0.6445 0.2421,0.037 4.1758,6.5625 26.4278,-1.8027 10.2031,21.7636 -30.168,4.0215 5.0293,8.0957 33.9805,-1.2344 11.9805,23.295 0.9414,-0.1719 8.4921,0 -11.2128,-21.7637 33.3261,-3.4004 11.1992,24.3789 10.6915,-0.7968 -14.4102,-23.5821 33.3262,-4.0801 13.6015,24.4844 5.209,0 6.7012,-0.6816 -11.9102,-24.4844 29.9258,-1.3594 13.2266,23.3028 13.3379,-0.5957 -16.3633,-22.0274 33.3262,-2.039 14.0078,22.6777 7.8398,-0.3496 5.3574,-0.5645 -17.6836,-25.166 27.1914,-3.0898 -2.1523,-4.586 c -1.9987,-1.7487 -2.2692,-7.398 -4.2679,-6.283 l -32.3337,5.119 c -8.8724,-25.5417 -4.551,-20.1425 -19.1328,-19.3653 l 10.9727,19.3653 -31.4066,2.1192 -11.1746,-19.4572 -9.6151,0.3225 9.3486,21.7752 -29.2461,0 -11.6562,-20.2441 -12.793,0.6836 -2.0742,0.5176 12.9219,18.3633 -30.6055,3.4003 -12.9219,-20.4043 -2.5332,0 -7.4375,0.3965 12.0117,20.6875 -34.0058,2.041 -8.8418,-21.0839 30.8359,-1.6446 -0.2304,-0.3965 7.6679,0 35.2129,-1.8769 11.8074,-0.9222 0.9856,0.2386 72.7773,-3.8809 0.4471,0 c 15.8632,-1.287 29.6241,-1.6013 44.5314,-2.3963 l 10.7559,22.9277 1.9488,4.2754 0.2035,0.3106 12.9356,27.5742 -27.8008,1.2461 -7.5644,0.7949 -0.2754,-0.4453 -30.9707,1.3887 0.1999,0.097 -13.8816,0.6797 0.3438,-0.1808 -11.1856,0.5019 -20.0566,2.0391 0.332,0.6816 -7.0332,0 -13.3691,1.3594 -24.3574,1.8184 -0.8478,-0.4981 -9.4823,2.0801 -0.3614,-0.7852 -10.5195,0.7852 -22.793,0 0.3497,0.6797 -9.5215,0 -0.2617,-0.5078 -28.9844,5.2695 -16.9766,-27.3301 0.2246,1.4946 -5.6914,-9.5317 0.4375,-0.059 -5.8789,-9.4629 -5.4414,-11.5605 5.4414,-2.041 -0.584,-0.918 -0.3853,-2.1812 -1.6838,-1.8682 -2.3488,-2.5502 -8.5997,-1.3242 -0.6816,-4.7598 -4.0801,-2.041 -9.5215,0 3.4004,6.1211 -11.5625,3.4004 0,5.4414 1.3614,3.4004 17.0019,0.6797 12.2422,20.4042 -22.4434,2.0391 -2.7207,4.082 1.3614,5.4395 3.4004,0 25.8437,-1.3594 16.3223,22.4434 -10.8809,2.041 0.6797,3.4004 2.7207,5.4414 5.4414,0 6.8008,-1.3613 7.4805,12.9218 8.1621,-2.039 -3.4004,-10.2012 33.3262,-1.3613 6.8007,10.8828 5.4414,2.7187 4.7598,-1.3593 -2.7207,-6.8008 -2.7207,-6.1211 31.9668,-0.6797 5.4395,14.9609 4.7617,-0.6796 4.08,-2.7207 -2.039,-4.0801 -3.4004,-8.1621 35.3652,-3.4004 5.4414,13.6035 4.0801,1.3594 3.4004,-0.6797 1.3613,-2.041 -1.3613,-3.4004 -3.4004,-10.2012 29.9258,-2.041 8.1601,11.5625 4.7618,2.7207 5.4414,-1.3613 0,-3.4004 -5.4414,-10.2012 27.205,-0.6797 8.8418,10.8809 11.5606,0 -4.0801,-7.4805 -2.7207,-6.8008 30.6055,-2.041 3.4004,5.4414 6.1211,-1.3613 0.6796,-6.8008 -10.2011,-8.1602 -12.9219,-26.5253 19.043,0 1.3613,-6.8008 -4.7617,-2.041 -22.4434,2.7207 -12.9219,-22.4434 6.8008,-4.082 c 0,0 1.3592,-9.5209 -1.3613,-7.4805 -2.7205,2.0403 -11.5605,0 -11.5605,0 l -4.0821,-3.4004 -10.2012,-1.3613 6.1211,6.1211 -8.8418,0 -22.4433,2.7207 -6.1211,-10.2012 -18.3633,0.6797 13.6016,7.4824 -28.5645,4.0801 z"
           id="path6924"
           inkscape:connector-curvature="0"
           sodipodi:nodetypes="cccccccccccccccccccccccccccccccccccccccccccccccccccccccccccccccccccccccccccccccccccccccccccccccccccccccccccccccccccccccccccccccccccccccccccccccccccccccccccccccccccccccccccccccccccccccccccccccccccc" />
      </g>
      <g
         transform="translate(-1930.8895,-57.509761)"
         id="g7076">
        <path
           style="fill:#857102;fill-opacity:1;fill-rule:evenodd;stroke:#7b6c19;stroke-width:5;stroke-linecap:butt;stroke-linejoin:miter;stroke-miterlimit:4;stroke-dasharray:none;stroke-opacity:1"
           d="m -318.04297,1031.0739 c 2.76298,1.243 1.79197,6.282 0.35172,1.3337 -0.53247,-1.5763 1.81823,5.0723 2.94376,6.624 2.55462,6.7819 5.91513,18.9064 6.1557,19.0165 0.26733,4.3944 5.19338,8.3257 5.50133,11.5982 4.00632,-0.5002 -0.52288,3.7882 2.44183,1.8587 3.62507,-1.3794 1.59563,3.1046 2.78558,1.9411 0.80126,1.6704 1.35448,3.1026 1.9447,2.4067 1.86396,0.2529 -0.7452,2.5961 2.54552,2.6007 4.73975,0.8709 8.71027,4.5309 12.56425,3.4644 4.3425,1.5617 8.59467,0.1297 13.36844,0.5702 4.50671,-0.2915 9.07662,0.6594 13.33947,1.4971 31.59804,5.3903 37.54283,-0.6881 59.82806,-11.9774 0.63755,-2.4374 7.01377,-3.9103 7.48869,-3.8848 1.3317,3.359 2.22127,-2.1858 2.30294,-1.1845 4.84948,-0.7568 0.98278,-7.1135 4.10048,-9.7994 2.27505,-0.8722 0.28996,-6.2156 1.80522,-6.2104 -2.01679,-4.4995 -6.88458,-8.3723 -9.66157,-9.39 -6.50066,-0.4512 -13.0499,-0.778 -19.52902,-0.2337 -3.95119,-1.0826 -5.25815,0.61 -8.01155,-1.9947 -5.26213,-0.811 -10.09707,-3.0989 -15.42093,-3.5426 -6.10204,-0.549 -12.08274,-1.8314 -17.96197,-3.4955 -5.55715,-1.06 -11.28789,-0.7817 -16.8143,-2.0417 -7.87849,0.1303 -15.77887,-0.6113 -23.63899,-0.385 -6.26399,-1.9884 -12.85995,-0.3538 -18.74357,-2.1862 -3.27374,1.1499 -10.1201,-1.6375 -11.31875,1.2345 0.28052,0.9313 1.45006,1.191 1.63296,2.1801 z"
           id="path6987"
           inkscape:connector-curvature="0"
           sodipodi:nodetypes="ccccccccccccccccccccccccccc" />
        <path
           style="fill:#baa112;fill-opacity:1;fill-rule:evenodd;stroke:#7b6c19;stroke-width:5;stroke-linecap:butt;stroke-linejoin:miter;stroke-miterlimit:4;stroke-dasharray:none;stroke-opacity:1"
           d="m -281.21199,1005.4038 c -11.38281,2.6094 -23.42176,5.8496 -30.65298,15.7776 -9.99644,9.6155 0.0781,23.5163 10.05278,28.3035 9.62833,7.3066 18.83982,11.7186 31.22931,11.9766 17.55451,1.6316 34.77716,6.3255 52.45641,6.405 12.97896,-5.8439 28.10406,-6.0498 40.89184,-11.3674 2.85291,-11.1864 1.44235,-25.6182 -6.55848,-34.7937 -13.00199,-13.3757 -32.38011,-17.2566 -50.25573,-18.5479 -12.74462,0.031 -25.48942,0.01 -38.23411,0.014 -2.7034,1.7169 -6.07207,0.971 -8.92904,2.2327 z"
           id="path6983"
           inkscape:connector-curvature="0" />
        <path
           style="fill:#d6c059;fill-opacity:1;fill-rule:evenodd;stroke:none;stroke-width:5;stroke-linecap:butt;stroke-linejoin:miter;stroke-miterlimit:4;stroke-dasharray:none;stroke-opacity:1"
           d="m -260.00627,1016.5647 c -14.7808,-0.8361 -29.05054,20.966 -11.69543,28.732 9.38918,8.7842 21.99257,9.5136 34.05647,10.3244 11.12013,1.3236 37.1361,-3.2902 24.8116,-18.2283 -7.56502,-10.5045 -18.34471,-13.1547 -28.93606,-21.1194 -5.41552,-6.0673 -17.62017,1.0327 -14.76736,-0.5202 -1.3856,-0.4783 -2.39638,0.268 -3.46922,0.8115 z"
           id="path6985"
           inkscape:connector-curvature="0" />
      </g>
      <g
         transform="matrix(0.98325491,0.18223553,-0.18223553,0.98325491,-1654.5287,-26.776601)"
         id="g7082">
        <path
           sodipodi:nodetypes="ccccccccccccccccccccccccccc"
           inkscape:connector-curvature="0"
           id="path7084"
           d="m -318.04297,1031.0739 c 2.76298,1.243 1.79197,6.282 0.35172,1.3337 -0.53247,-1.5763 1.81823,5.0723 2.94376,6.624 2.55462,6.7819 5.91513,18.9064 6.1557,19.0165 0.26733,4.3944 5.19338,8.3257 5.50133,11.5982 4.00632,-0.5002 -0.52288,3.7882 2.44183,1.8587 3.62507,-1.3794 1.59563,3.1046 2.78558,1.9411 0.80126,1.6704 1.35448,3.1026 1.9447,2.4067 1.86396,0.2529 -0.7452,2.5961 2.54552,2.6007 4.73975,0.8709 8.71027,4.5309 12.56425,3.4644 4.3425,1.5617 8.59467,0.1297 13.36844,0.5702 4.50671,-0.2915 9.07662,0.6594 13.33947,1.4971 31.59804,5.3903 37.54283,-0.6881 59.82806,-11.9774 0.63755,-2.4374 7.01377,-3.9103 7.48869,-3.8848 1.3317,3.359 2.22127,-2.1858 2.30294,-1.1845 4.84948,-0.7568 0.98278,-7.1135 4.10048,-9.7994 2.27505,-0.8722 0.28996,-6.2156 1.80522,-6.2104 -2.01679,-4.4995 -6.88458,-8.3723 -9.66157,-9.39 -6.50066,-0.4512 -13.0499,-0.778 -19.52902,-0.2337 -3.95119,-1.0826 -5.25815,0.61 -8.01155,-1.9947 -5.26213,-0.811 -10.09707,-3.0989 -15.42093,-3.5426 -6.10204,-0.549 -12.08274,-1.8314 -17.96197,-3.4955 -5.55715,-1.06 -11.28789,-0.7817 -16.8143,-2.0417 -7.87849,0.1303 -15.77887,-0.6113 -23.63899,-0.385 -6.26399,-1.9884 -12.85995,-0.3538 -18.74357,-2.1862 -3.27374,1.1499 -10.1201,-1.6375 -11.31875,1.2345 0.28052,0.9313 1.45006,1.191 1.63296,2.1801 z"
           style="fill:#857102;fill-opacity:1;fill-rule:evenodd;stroke:#7b6c19;stroke-width:5;stroke-linecap:butt;stroke-linejoin:miter;stroke-miterlimit:4;stroke-dasharray:none;stroke-opacity:1" />
        <path
           inkscape:connector-curvature="0"
           id="path7086"
           d="m -281.21199,1005.4038 c -11.38281,2.6094 -23.42176,5.8496 -30.65298,15.7776 -9.99644,9.6155 0.0781,23.5163 10.05278,28.3035 9.62833,7.3066 18.83982,11.7186 31.22931,11.9766 17.55451,1.6316 34.77716,6.3255 52.45641,6.405 12.97896,-5.8439 28.10406,-6.0498 40.89184,-11.3674 2.85291,-11.1864 1.44235,-25.6182 -6.55848,-34.7937 -13.00199,-13.3757 -32.38011,-17.2566 -50.25573,-18.5479 -12.74462,0.031 -25.48942,0.01 -38.23411,0.014 -2.7034,1.7169 -6.07207,0.971 -8.92904,2.2327 z"
           style="fill:#baa112;fill-opacity:1;fill-rule:evenodd;stroke:#7b6c19;stroke-width:5;stroke-linecap:butt;stroke-linejoin:miter;stroke-miterlimit:4;stroke-dasharray:none;stroke-opacity:1" />
        <path
           inkscape:connector-curvature="0"
           id="path7088"
           d="m -260.00627,1016.5647 c -14.7808,-0.8361 -29.05054,20.966 -11.69543,28.732 9.38918,8.7842 21.99257,9.5136 34.05647,10.3244 11.12013,1.3236 37.1361,-3.2902 24.8116,-18.2283 -7.56502,-10.5045 -18.34471,-13.1547 -28.93606,-21.1194 -5.41552,-6.0673 -17.62017,1.0327 -14.76736,-0.5202 -1.3856,-0.4783 -2.39638,0.268 -3.46922,0.8115 z"
           style="fill:#d6c059;fill-opacity:1;fill-rule:evenodd;stroke:none;stroke-width:5;stroke-linecap:butt;stroke-linejoin:miter;stroke-miterlimit:4;stroke-dasharray:none;stroke-opacity:1" />
      </g>
      <g
         transform="translate(-1751.2089,-53.073201)"
         id="g7090">
        <path
           sodipodi:nodetypes="ccccccccccccccccccccccccccc"
           inkscape:connector-curvature="0"
           id="path7092"
           d="m -318.04297,1031.0739 c 2.76298,1.243 1.79197,6.282 0.35172,1.3337 -0.53247,-1.5763 1.81823,5.0723 2.94376,6.624 2.55462,6.7819 5.91513,18.9064 6.1557,19.0165 0.26733,4.3944 5.19338,8.3257 5.50133,11.5982 4.00632,-0.5002 -0.52288,3.7882 2.44183,1.8587 3.62507,-1.3794 1.59563,3.1046 2.78558,1.9411 0.80126,1.6704 1.35448,3.1026 1.9447,2.4067 1.86396,0.2529 -0.7452,2.5961 2.54552,2.6007 4.73975,0.8709 8.71027,4.5309 12.56425,3.4644 4.3425,1.5617 8.59467,0.1297 13.36844,0.5702 4.50671,-0.2915 9.07662,0.6594 13.33947,1.4971 31.59804,5.3903 37.54283,-0.6881 59.82806,-11.9774 0.63755,-2.4374 7.01377,-3.9103 7.48869,-3.8848 1.3317,3.359 2.22127,-2.1858 2.30294,-1.1845 4.84948,-0.7568 0.98278,-7.1135 4.10048,-9.7994 2.27505,-0.8722 0.28996,-6.2156 1.80522,-6.2104 -2.01679,-4.4995 -6.88458,-8.3723 -9.66157,-9.39 -6.50066,-0.4512 -13.0499,-0.778 -19.52902,-0.2337 -3.95119,-1.0826 -5.25815,0.61 -8.01155,-1.9947 -5.26213,-0.811 -10.09707,-3.0989 -15.42093,-3.5426 -6.10204,-0.549 -12.08274,-1.8314 -17.96197,-3.4955 -5.55715,-1.06 -11.28789,-0.7817 -16.8143,-2.0417 -7.87849,0.1303 -15.77887,-0.6113 -23.63899,-0.385 -6.26399,-1.9884 -12.85995,-0.3538 -18.74357,-2.1862 -3.27374,1.1499 -10.1201,-1.6375 -11.31875,1.2345 0.28052,0.9313 1.45006,1.191 1.63296,2.1801 z"
           style="fill:#857102;fill-opacity:1;fill-rule:evenodd;stroke:#7b6c19;stroke-width:5;stroke-linecap:butt;stroke-linejoin:miter;stroke-miterlimit:4;stroke-dasharray:none;stroke-opacity:1" />
        <path
           inkscape:connector-curvature="0"
           id="path7094"
           d="m -281.21199,1005.4038 c -11.38281,2.6094 -23.42176,5.8496 -30.65298,15.7776 -9.99644,9.6155 0.0781,23.5163 10.05278,28.3035 9.62833,7.3066 18.83982,11.7186 31.22931,11.9766 17.55451,1.6316 34.77716,6.3255 52.45641,6.405 12.97896,-5.8439 28.10406,-6.0498 40.89184,-11.3674 2.85291,-11.1864 1.44235,-25.6182 -6.55848,-34.7937 -13.00199,-13.3757 -32.38011,-17.2566 -50.25573,-18.5479 -12.74462,0.031 -25.48942,0.01 -38.23411,0.014 -2.7034,1.7169 -6.07207,0.971 -8.92904,2.2327 z"
           style="fill:#baa112;fill-opacity:1;fill-rule:evenodd;stroke:#7b6c19;stroke-width:5;stroke-linecap:butt;stroke-linejoin:miter;stroke-miterlimit:4;stroke-dasharray:none;stroke-opacity:1" />
        <path
           inkscape:connector-curvature="0"
           id="path7096"
           d="m -260.00627,1016.5647 c -14.7808,-0.8361 -29.05054,20.966 -11.69543,28.732 9.38918,8.7842 21.99257,9.5136 34.05647,10.3244 11.12013,1.3236 37.1361,-3.2902 24.8116,-18.2283 -7.56502,-10.5045 -18.34471,-13.1547 -28.93606,-21.1194 -5.41552,-6.0673 -17.62017,1.0327 -14.76736,-0.5202 -1.3856,-0.4783 -2.39638,0.268 -3.46922,0.8115 z"
           style="fill:#d6c059;fill-opacity:1;fill-rule:evenodd;stroke:none;stroke-width:5;stroke-linecap:butt;stroke-linejoin:miter;stroke-miterlimit:4;stroke-dasharray:none;stroke-opacity:1" />
      </g>
      <g
         transform="matrix(1.1040841,0.11915849,-0.11604393,1.1337172,-1790.0346,-88.673089)"
         id="g7052">
        <path
           sodipodi:nodetypes="cccsccc"
           inkscape:connector-curvature="0"
           id="path7032"
           d="m -176.88556,907.07405 c -3.11293,31.42219 32.66515,51.69813 60.30919,52.14086 38.719427,3.81623 84.866957,4.0721 113.8473169,-26.01409 10.76596,-14.90538 12.9635901,-32.10741 3.71953003,-33.1062 -9.24405003,-0.99878 -29.92978993,14.20567 -38.09823993,17.76653 -30.26425,-2.17742 -62.968617,12.71693 -92.117237,-2.76598 -14.72166,-6.63562 -31.43541,-13.58255 -47.66056,-8.02112 z"
           style="fill:#c0adcb;fill-opacity:1;fill-rule:evenodd;stroke:#a08ea7;stroke-width:5;stroke-linecap:butt;stroke-linejoin:miter;stroke-miterlimit:4;stroke-dasharray:none;stroke-opacity:1" />
        <path
           inkscape:connector-curvature="0"
           id="path7034"
           d="m -175.52533,905.0337 c 6.63655,-22.66938 29.47858,-37.78845 51.94922,-41.29196 21.88032,-7.15695 45.294417,-12.99418 68.070317,-5.9477 18.63917,6.67251 43.75025,5.39742 55.00607993,24.57984 12.18136007,16.58809 5.56312997,40.24238 -14.06729993,47.37004 -29.62314,12.7749 -62.26482,25.24682 -94.992697,17.91529 -24.25956,-1.36706 -46.68994,-13.23972 -60.78273,-33.10586 -2.14475,-2.9187 -3.95956,-6.10188 -5.18289,-9.51965 z"
           style="fill:#fcf6fb;fill-opacity:1;fill-rule:evenodd;stroke:#a08ea7;stroke-width:5;stroke-linecap:butt;stroke-linejoin:miter;stroke-miterlimit:4;stroke-dasharray:none;stroke-opacity:1" />
        <path
           style="fill:#faeaf7;fill-opacity:1;fill-rule:evenodd;stroke:#a08ea7;stroke-width:5;stroke-linecap:butt;stroke-linejoin:miter;stroke-miterlimit:4;stroke-dasharray:none;stroke-opacity:1"
           d="m -166.07909,905.91657 c 5.86956,-18.81799 26.07169,-31.3684 45.94535,-34.27669 19.35156,-5.94101 40.059657,-10.78653 60.203287,-4.93721 16.48501,5.53889 38.69394,4.48042 48.64891,20.40385 10.77353993,13.76986 4.9201899,33.40542 -12.44151,39.32214 -26.19953,10.6045 -55.06874,20.95751 -84.014197,14.87157 -21.45583,-1.1348 -41.29388,-10.99037 -53.75794,-27.48136 -1.89688,-2.42282 -3.50195,-5.0652 -4.5839,-7.9023 z"
           id="path7036"
           inkscape:connector-curvature="0" />
        <path
           inkscape:connector-curvature="0"
           id="path7038"
           d="m -155.26708,906.55941 c 5.00246,-15.77354 22.22016,-26.29351 39.15791,-28.73128 16.492787,-4.97984 34.141717,-9.04144 51.309557,-4.13845 14.04972,4.6428 32.97775,3.75556 41.4621,17.10284 9.18199,11.54212 4.19333,28.00097 -10.60355,32.96046 -22.32912,8.88887 -46.93353,17.56693 -71.602917,12.46559 -18.2862,-0.95121 -35.19361,-9.21231 -45.81638,-23.03533 -1.61666,-2.03084 -2.9846,-4.24572 -3.90672,-6.62383 z"
           style="fill:#fcf6fb;fill-opacity:1;fill-rule:evenodd;stroke:#a08ea7;stroke-width:5;stroke-linecap:butt;stroke-linejoin:miter;stroke-miterlimit:4;stroke-dasharray:none;stroke-opacity:1" />
        <path
           inkscape:connector-curvature="0"
           id="path7040"
           d="m -93.231103,878.50911 c -13.230767,4.99019 -27.744237,6.00893 -40.845487,10.63034 -13.43906,10.22767 -1.00761,26.48933 12.04716,28.80171 10.03428,4.37656 28.179517,12.31512 31.238337,-4.18525 3.26799,-10.1097 7.74778,-21.29788 2.95986,-31.73552 -4.73974,-5.31622 -1.09505,-1.24714 -5.39987,-3.51128 z"
           style="fill:#faeaf7;fill-opacity:1;fill-rule:evenodd;stroke:#a08ea7;stroke-width:5;stroke-linecap:butt;stroke-linejoin:miter;stroke-miterlimit:4;stroke-dasharray:none;stroke-opacity:1" />
        <path
           style="fill:#fcf6fb;fill-opacity:1;fill-rule:evenodd;stroke:#a08ea7;stroke-width:5;stroke-linecap:butt;stroke-linejoin:miter;stroke-miterlimit:4;stroke-dasharray:none;stroke-opacity:1"
           d="m -96.679703,887.86641 c -9.980377,3.22393 -20.928347,3.88208 -30.811027,6.86776 -10.1375,6.60759 -0.76007,17.11346 9.08755,18.60739 7.56917,2.82748 21.256687,7.95621 23.564037,-2.70389 2.46515,-6.5314 5.8444,-13.75953 2.23272,-20.5028 -3.57533,-3.43454 -0.82602,-0.80571 -4.07328,-2.26846 z"
           id="path7042"
           inkscape:connector-curvature="0" />
        <path
           inkscape:connector-curvature="0"
           id="path7044"
           d="m -103.85356,893.14074 c -4.90025,2.13331 -10.27558,2.56882 -15.12787,4.54447 -4.97739,4.37232 -0.37317,11.32416 4.46189,12.31271 3.71639,1.87097 10.4368,5.26471 11.56968,-1.78919 1.21035,-4.3219 2.86954,-9.10483 1.09624,-13.56692 -1.75545,-2.27267 -0.40557,-0.53315 -1.99994,-1.50107 z"
           style="fill:none;fill-rule:evenodd;stroke:#a08ea7;stroke-width:5;stroke-linecap:butt;stroke-linejoin:miter;stroke-miterlimit:4;stroke-dasharray:none;stroke-opacity:1" />
        <path
           style="fill:#faeaf7;fill-opacity:1;fill-rule:evenodd;stroke:#a08ea7;stroke-width:5;stroke-linecap:butt;stroke-linejoin:miter;stroke-miterlimit:4;stroke-dasharray:none;stroke-opacity:1"
           d="m -70.963103,879.85333 c 12.40713,4.99373 26.01712,6.01319 38.30279,10.63788 12.60245,10.23492 0.94488,26.50811 -11.2972,28.82213 -9.40963,4.37967 -26.4253,12.32385 -29.2937,-4.18822 -3.06455,-10.11686 -7.26547,-21.31298 -2.77561,-31.75802 4.44469,-5.31999 1.02689,-1.24802 5.06372,-3.51377 z"
           id="path7046"
           inkscape:connector-curvature="0" />
        <path
           inkscape:connector-curvature="0"
           id="path7048"
           d="m -67.729183,889.21727 c 9.35909,3.22621 19.62552,3.88483 28.89299,6.87263 9.50642,6.61227 0.71275,17.12559 -8.52183,18.62058 -7.09798,2.82949 -19.93343,7.96185 -22.09714,-2.70581 -2.31169,-6.53603 -5.48058,-13.76928 -2.09373,-20.51734 3.35276,-3.43697 0.7746,-0.80628 3.81971,-2.27006 z"
           style="fill:#fcf6fb;fill-opacity:1;fill-rule:evenodd;stroke:#a08ea7;stroke-width:5;stroke-linecap:butt;stroke-linejoin:miter;stroke-miterlimit:4;stroke-dasharray:none;stroke-opacity:1" />
        <path
           style="fill:none;fill-rule:evenodd;stroke:#a08ea7;stroke-width:5;stroke-linecap:butt;stroke-linejoin:miter;stroke-miterlimit:4;stroke-dasharray:none;stroke-opacity:1"
           d="m -61.001903,894.49534 c 4.5952,2.13482 9.6359,2.57064 14.18613,4.54769 4.66754,4.37542 0.34994,11.33219 -4.18413,12.32144 -3.48504,1.8723 -9.78709,5.26844 -10.84945,-1.79046 -1.135,-4.32496 -2.6909,-9.11129 -1.02799,-13.57654 1.64617,-2.27428 0.38032,-0.53353 1.87544,-1.50213 z"
           id="path7050"
           inkscape:connector-curvature="0" />
      </g>
      <g
         transform="matrix(1.1101657,0,0,1.139962,-1928.4118,-87.8135)"
         id="g7064">
        <path
           style="fill:#c0adcb;fill-opacity:1;fill-rule:evenodd;stroke:#a08ea7;stroke-width:5;stroke-linecap:butt;stroke-linejoin:miter;stroke-miterlimit:4;stroke-dasharray:none;stroke-opacity:1"
           d="m -298.85066,882.07121 c -3.11293,31.42219 32.66515,51.69813 60.30919,52.14086 38.71943,3.81623 84.86696,4.0721 113.84732,-26.01409 10.76596,-14.90538 12.96359,-32.10741 3.71953,-33.1062 -9.24405,-0.99878 -29.92979,14.20567 -38.09824,17.76653 -30.26425,-2.17742 -62.96862,12.71693 -92.11724,-2.76598 -14.72166,-6.63562 -31.43541,-13.58255 -47.66056,-8.02112 z"
           id="path6935"
           inkscape:connector-curvature="0"
           sodipodi:nodetypes="cccsccc" />
        <path
           style="fill:#fcf6fb;fill-opacity:1;fill-rule:evenodd;stroke:#a08ea7;stroke-width:5;stroke-linecap:butt;stroke-linejoin:miter;stroke-miterlimit:4;stroke-dasharray:none;stroke-opacity:1"
           d="m -297.49043,880.03086 c 6.63655,-22.66938 29.47858,-37.78845 51.94922,-41.29196 21.88032,-7.15695 45.29442,-12.99418 68.07032,-5.9477 18.63917,6.67251 43.75025,5.39742 55.00608,24.57984 12.18136,16.58809 5.56313,40.24238 -14.0673,47.37004 -29.62314,12.7749 -62.26482,25.24682 -94.9927,17.91529 -24.25956,-1.36706 -46.68994,-13.23972 -60.78273,-33.10586 -2.14475,-2.9187 -3.95956,-6.10188 -5.18289,-9.51965 z"
           id="path6926"
           inkscape:connector-curvature="0" />
        <path
           inkscape:connector-curvature="0"
           id="path6944"
           d="m -288.04419,880.91373 c 5.86956,-18.81799 26.07169,-31.3684 45.94535,-34.27669 19.35156,-5.94101 40.05966,-10.78653 60.20329,-4.93721 16.48501,5.53889 38.69394,4.48042 48.64891,20.40385 10.77354,13.76986 4.92019,33.40542 -12.44151,39.32214 -26.19953,10.6045 -55.06874,20.95751 -84.0142,14.87157 -21.45583,-1.1348 -41.29388,-10.99037 -53.75794,-27.48136 -1.89688,-2.42282 -3.50195,-5.0652 -4.5839,-7.9023 z"
           style="fill:#faeaf7;fill-opacity:1;fill-rule:evenodd;stroke:#a08ea7;stroke-width:5;stroke-linecap:butt;stroke-linejoin:miter;stroke-miterlimit:4;stroke-dasharray:none;stroke-opacity:1" />
        <path
           style="fill:#fcf6fb;fill-opacity:1;fill-rule:evenodd;stroke:#a08ea7;stroke-width:5;stroke-linecap:butt;stroke-linejoin:miter;stroke-miterlimit:4;stroke-dasharray:none;stroke-opacity:1"
           d="m -277.23218,881.55657 c 5.00246,-15.77354 22.22016,-26.29351 39.15791,-28.73128 16.49279,-4.97984 34.14172,-9.04144 51.30956,-4.13845 14.04972,4.6428 32.97775,3.75556 41.4621,17.10284 9.18199,11.54212 4.19333,28.00097 -10.60355,32.96046 -22.32912,8.88887 -46.93353,17.56693 -71.60292,12.46559 -18.2862,-0.95121 -35.19361,-9.21231 -45.81638,-23.03533 -1.61666,-2.03084 -2.9846,-4.24572 -3.90672,-6.62383 z"
           id="path6946"
           inkscape:connector-curvature="0" />
        <path
           style="fill:#faeaf7;fill-opacity:1;fill-rule:evenodd;stroke:#a08ea7;stroke-width:5;stroke-linecap:butt;stroke-linejoin:miter;stroke-miterlimit:4;stroke-dasharray:none;stroke-opacity:1"
           d="m -215.1962,853.50627 c -13.23077,4.99019 -27.74424,6.00893 -40.84549,10.63034 -13.43906,10.22767 -1.00761,26.48933 12.04716,28.80171 10.03428,4.37656 28.17952,12.31512 31.23834,-4.18525 3.26799,-10.1097 7.74778,-21.29788 2.95986,-31.73552 -4.73974,-5.31622 -1.09505,-1.24714 -5.39987,-3.51128 z"
           id="path6948"
           inkscape:connector-curvature="0" />
        <path
           inkscape:connector-curvature="0"
           id="path6958"
           d="m -218.6448,862.86357 c -9.98038,3.22393 -20.92835,3.88208 -30.81103,6.86776 -10.1375,6.60759 -0.76007,17.11346 9.08755,18.60739 7.56917,2.82748 21.25669,7.95621 23.56404,-2.70389 2.46515,-6.5314 5.8444,-13.75953 2.23272,-20.5028 -3.57533,-3.43454 -0.82602,-0.80571 -4.07328,-2.26846 z"
           style="fill:#fcf6fb;fill-opacity:1;fill-rule:evenodd;stroke:#a08ea7;stroke-width:5;stroke-linecap:butt;stroke-linejoin:miter;stroke-miterlimit:4;stroke-dasharray:none;stroke-opacity:1" />
        <path
           style="fill:none;fill-rule:evenodd;stroke:#a08ea7;stroke-width:5;stroke-linecap:butt;stroke-linejoin:miter;stroke-miterlimit:4;stroke-dasharray:none;stroke-opacity:1"
           d="m -225.81866,868.1379 c -4.90025,2.13331 -10.27558,2.56882 -15.12787,4.54447 -4.97739,4.37232 -0.37317,11.32416 4.46189,12.31271 3.71639,1.87097 10.4368,5.26471 11.56968,-1.78919 1.21035,-4.3219 2.86954,-9.10483 1.09624,-13.56692 -1.75545,-2.27267 -0.40557,-0.53315 -1.99994,-1.50107 z"
           id="path6960"
           inkscape:connector-curvature="0" />
        <path
           inkscape:connector-curvature="0"
           id="path6962"
           d="m -192.9282,854.85049 c 12.40713,4.99373 26.01712,6.01319 38.30279,10.63788 12.60245,10.23492 0.94488,26.50811 -11.2972,28.82213 -9.40963,4.37967 -26.4253,12.32385 -29.2937,-4.18822 -3.06455,-10.11686 -7.26547,-21.31298 -2.77561,-31.75802 4.44469,-5.31999 1.02689,-1.24802 5.06372,-3.51377 z"
           style="fill:#faeaf7;fill-opacity:1;fill-rule:evenodd;stroke:#a08ea7;stroke-width:5;stroke-linecap:butt;stroke-linejoin:miter;stroke-miterlimit:4;stroke-dasharray:none;stroke-opacity:1" />
        <path
           style="fill:#fcf6fb;fill-opacity:1;fill-rule:evenodd;stroke:#a08ea7;stroke-width:5;stroke-linecap:butt;stroke-linejoin:miter;stroke-miterlimit:4;stroke-dasharray:none;stroke-opacity:1"
           d="m -189.69428,864.21443 c 9.35909,3.22621 19.62552,3.88483 28.89299,6.87263 9.50642,6.61227 0.71275,17.12559 -8.52183,18.62058 -7.09798,2.82949 -19.93343,7.96185 -22.09714,-2.70581 -2.31169,-6.53603 -5.48058,-13.76928 -2.09373,-20.51734 3.35276,-3.43697 0.7746,-0.80628 3.81971,-2.27006 z"
           id="path6964"
           inkscape:connector-curvature="0" />
        <path
           inkscape:connector-curvature="0"
           id="path6966"
           d="m -182.967,869.4925 c 4.5952,2.13482 9.6359,2.57064 14.18613,4.54769 4.66754,4.37542 0.34994,11.33219 -4.18413,12.32144 -3.48504,1.8723 -9.78709,5.26844 -10.84945,-1.79046 -1.135,-4.32496 -2.6909,-9.11129 -1.02799,-13.57654 1.64617,-2.27428 0.38032,-0.53353 1.87544,-1.50213 z"
           style="fill:none;fill-rule:evenodd;stroke:#a08ea7;stroke-width:5;stroke-linecap:butt;stroke-linejoin:miter;stroke-miterlimit:4;stroke-dasharray:none;stroke-opacity:1" />
      </g>
      <g
         transform="translate(61.557228,6.8396914)"
         id="g7203">
        <path
           style="fill:#fed322;fill-opacity:1;fill-rule:evenodd;stroke:#b08634;stroke-width:5;stroke-linecap:round;stroke-linejoin:round;stroke-miterlimit:4;stroke-dasharray:none;stroke-opacity:1"
           d="m -2160.0016,806.98673 -129.2388,46.7128 -65.3979,42.04153 194.6367,87.19723 15.5709,12.45674 c 0,0 93.4256,-45.15571 99.654,-51.38408 6.2284,-6.22837 154.1522,-31.14187 154.1522,-31.14187 l -160.3806,-84.08304 z"
           id="path6914"
           inkscape:connector-curvature="0" />
        <path
           style="fill:#ffe26a;fill-opacity:1;fill-rule:evenodd;stroke:none;stroke-width:5;stroke-linecap:butt;stroke-linejoin:miter;stroke-miterlimit:4;stroke-dasharray:none;stroke-opacity:1"
           d="m -2240.9705,900.41234 43.5986,-7.78547 52.9412,-4.67128 85.6402,15.57093 12.4567,12.45675 -45.1557,32.69896 -65.3979,20.24222 -12.4568,-26.47059 -38.9273,-14.01384 -26.4706,-14.01384 -23.3564,-15.57094 z"
           id="path6916"
           inkscape:connector-curvature="0" />
        <path
           style="fill:#ffefa9;fill-opacity:1;fill-rule:evenodd;stroke:none;stroke-width:5;stroke-linecap:butt;stroke-linejoin:miter;stroke-miterlimit:4;stroke-dasharray:none;stroke-opacity:1"
           d="m -2096.1608,920.65455 -35.8131,15.57093 1.5571,12.45675 34.256,-9.34256 9.3426,-12.45675 z"
           id="path6918"
           inkscape:connector-curvature="0" />
      </g>
      <g
         transform="translate(58.137382,160.73275)"
         id="g7150">
        <path
           style="fill:#dd7b1a;fill-opacity:1;fill-rule:evenodd;stroke:#000000;stroke-width:5;stroke-linecap:butt;stroke-linejoin:miter;stroke-miterlimit:4;stroke-dasharray:none;stroke-opacity:1"
           d="m -2144.8664,554.71677 c -49.6307,7.24215 -116.0718,11.19554 -140.2468,62.68462 -18.4796,33.32265 -40.0177,78.68301 -9.0178,111.91077 37.8735,45.24394 99.6111,60.31839 156.3146,51.63152 69.1076,-2.68401 146.6306,-10.47199 196.4167,-64.06769 18.6859,-44.26503 -18.9755,-93.61845 -48.5084,-123.68028 -44.7783,-32.33006 -82.3436,-37.42714 -135.9768,-38.01597 z"
           id="path6798"
           inkscape:connector-curvature="0"
           sodipodi:nodetypes="cccccccc" />
        <path
           sodipodi:nodetypes="ccccccaac"
           style="fill:#e38c2b;fill-opacity:1;fill-rule:evenodd;stroke:none;stroke-width:5;stroke-linecap:butt;stroke-linejoin:miter;stroke-miterlimit:4;stroke-dasharray:none;stroke-opacity:1"
           d="m -2132.8294,694.99455 c -49.6306,7.24215 -118.3866,-49.91557 -142.5616,1.57351 -18.4796,33.32265 -49.7399,-0.48366 -18.74,32.7441 37.8735,45.24394 99.6111,60.31839 156.3146,51.63152 69.1076,-2.68401 146.6306,-10.47199 196.4167,-64.06769 18.6859,-44.26503 -4.6236,-42.69252 -34.1566,-72.75435 -44.7783,-32.33006 -42.8833,-0.3988 -61.4397,8.74327 -17.425,8.58462 -23.7745,33.17817 -41.6667,40.74075 -16.6365,7.0318 -54.1667,1.38889 -54.1667,1.38889 z"
           id="path6807"
           inkscape:connector-curvature="0" />
        <path
           inkscape:connector-curvature="0"
           id="path6805"
           d="m -2171.7183,735.27233 c -49.6306,7.24215 -79.4977,-90.19335 -103.6727,-38.70427 -18.4796,33.32265 -49.7399,-0.48366 -18.74,32.7441 37.8735,45.24394 99.6111,60.31839 156.3146,51.63152 69.1076,-2.68401 146.6306,-10.47199 196.4167,-64.06769 18.6859,-44.26503 -9.2532,-14.45178 -38.7862,-44.51361 -44.7783,-32.33006 -61.9732,64.88766 -115.6064,64.29883 l -34.7223,-2.77777 z"
           style="fill:#da8c35;fill-opacity:1;fill-rule:evenodd;stroke:none;stroke-width:5;stroke-linecap:butt;stroke-linejoin:miter;stroke-miterlimit:4;stroke-dasharray:none;stroke-opacity:1"
           sodipodi:nodetypes="ccccccc" />
        <path
           style="fill:#dcbe9c;fill-opacity:1;fill-rule:evenodd;stroke:#979387;stroke-width:2;stroke-linecap:butt;stroke-linejoin:miter;stroke-miterlimit:4;stroke-dasharray:none;stroke-opacity:1"
           d="m -2220.3294,613.0501 c -0.1341,1.49186 0.9633,0.62936 0.057,0.0171 0.5405,3.00853 0.5713,6.34399 2.6419,8.80826 2.0229,2.0557 4.3158,-1.28494 3.3286,-3.32344 0.3895,-2.56673 -2.2452,-3.89016 -3.6915,-5.51482 -0.9813,0.0684 -3.4366,-0.32087 -1.1919,-0.88411 1.1285,0.12942 -0.8756,1.03438 -1.1446,0.89701 z"
           id="path6811"
           inkscape:connector-curvature="0" />
        <path
           inkscape:connector-curvature="0"
           id="path6822"
           d="m -2194.4034,642.67973 c -0.1341,1.49186 0.9632,0.62936 0.058,0.0171 0.5404,3.00853 0.5712,6.34399 2.6419,8.80826 2.0228,2.0557 4.3157,-1.28494 3.3285,-3.32344 0.3895,-2.56673 -2.2452,-3.89016 -3.6914,-5.51482 -0.9814,0.0684 -3.4367,-0.32087 -1.192,-0.88411 1.1286,0.12942 -0.8756,1.03438 -1.1445,0.89701 z"
           style="fill:#dcbe9c;fill-opacity:1;fill-rule:evenodd;stroke:#979387;stroke-width:2;stroke-linecap:butt;stroke-linejoin:miter;stroke-miterlimit:4;stroke-dasharray:none;stroke-opacity:1" />
        <path
           style="fill:#dcbe9c;fill-opacity:1;fill-rule:evenodd;stroke:#979387;stroke-width:2;stroke-linecap:butt;stroke-linejoin:miter;stroke-miterlimit:4;stroke-dasharray:none;stroke-opacity:1"
           d="m -2221.7183,654.71677 c -0.1341,1.49186 0.9633,0.62936 0.057,0.0171 0.5405,3.00853 0.5713,6.34399 2.642,8.80826 2.0228,2.0557 4.3157,-1.28494 3.3285,-3.32344 0.3895,-2.56673 -2.2452,-3.89016 -3.6914,-5.51482 -0.9814,0.0684 -3.4367,-0.32087 -1.192,-0.88411 1.1286,0.12942 -0.8756,1.03438 -1.1446,0.89701 z"
           id="path6824"
           inkscape:connector-curvature="0" />
        <path
           inkscape:connector-curvature="0"
           id="path6826"
           d="m -2081.4405,673.23529 c -0.1341,1.49186 0.9633,0.62936 0.058,0.0171 0.5405,3.00853 0.5713,6.34399 2.6419,8.80826 2.0229,2.0557 4.3158,-1.28494 3.3286,-3.32344 0.3895,-2.56673 -2.2452,-3.89016 -3.6915,-5.51482 -0.9813,0.0684 -3.4366,-0.32087 -1.1919,-0.88411 1.1285,0.12942 -0.8756,1.03438 -1.1446,0.89701 z"
           style="fill:#dcbe9c;fill-opacity:1;fill-rule:evenodd;stroke:#979387;stroke-width:2;stroke-linecap:butt;stroke-linejoin:miter;stroke-miterlimit:4;stroke-dasharray:none;stroke-opacity:1" />
        <path
           style="fill:#dcbe9c;fill-opacity:1;fill-rule:evenodd;stroke:#979387;stroke-width:2;stroke-linecap:butt;stroke-linejoin:miter;stroke-miterlimit:4;stroke-dasharray:none;stroke-opacity:1"
           d="m -2080.0516,711.19825 c -0.1341,1.49186 0.9633,0.62936 0.057,0.0171 0.5405,3.00853 0.5713,6.34399 2.6419,8.80826 2.0229,2.0557 4.3158,-1.28494 3.3286,-3.32344 0.3895,-2.56673 -2.2453,-3.89016 -3.6915,-5.51482 -0.9813,0.0684 -3.4366,-0.32087 -1.1919,-0.88411 1.1285,0.12942 -0.8756,1.03438 -1.1446,0.89701 z"
           id="path6828"
           inkscape:connector-curvature="0" />
        <path
           inkscape:connector-curvature="0"
           id="path6830"
           d="m -2103.1997,732.03158 c -0.1341,1.49186 0.9632,0.62936 0.058,0.0171 0.5404,3.00853 0.5712,6.34399 2.6419,8.80826 2.0228,2.0557 4.3158,-1.28494 3.3285,-3.32344 0.3895,-2.56673 -2.2452,-3.89016 -3.6914,-5.51482 -0.9814,0.0684 -3.4366,-0.32087 -1.192,-0.88411 1.1286,0.12942 -0.8756,1.03438 -1.1445,0.89701 z"
           style="fill:#dcbe9c;fill-opacity:1;fill-rule:evenodd;stroke:#979387;stroke-width:2;stroke-linecap:butt;stroke-linejoin:miter;stroke-miterlimit:4;stroke-dasharray:none;stroke-opacity:1" />
        <path
           style="fill:#dcbe9c;fill-opacity:1;fill-rule:evenodd;stroke:#979387;stroke-width:2;stroke-linecap:butt;stroke-linejoin:miter;stroke-miterlimit:4;stroke-dasharray:none;stroke-opacity:1"
           d="m -2127.2738,726.47602 c -0.1341,1.49186 0.9633,0.62936 0.057,0.0171 0.5405,3.00853 0.5712,6.34399 2.6419,8.80826 2.0228,2.0557 4.3158,-1.28494 3.3285,-3.32344 0.3896,-2.56673 -2.2452,-3.89016 -3.6914,-5.51482 -0.9814,0.0684 -3.4366,-0.32087 -1.192,-0.88411 1.1286,0.12942 -0.8755,1.03438 -1.1445,0.89701 z"
           id="path6832"
           inkscape:connector-curvature="0" />
        <path
           inkscape:connector-curvature="0"
           id="path6834"
           d="m -2180.5145,744.53158 c -0.1341,1.49186 0.9632,0.62936 0.058,0.0171 0.5404,3.00853 0.5712,6.34399 2.6419,8.80826 2.0228,2.0557 4.3157,-1.28494 3.3285,-3.32344 0.3895,-2.56673 -2.2452,-3.89016 -3.6914,-5.51482 -0.9814,0.0684 -3.4367,-0.32087 -1.192,-0.88411 1.1286,0.12942 -0.8756,1.03438 -1.1445,0.89701 z"
           style="fill:#dcbe9c;fill-opacity:1;fill-rule:evenodd;stroke:#979387;stroke-width:2;stroke-linecap:butt;stroke-linejoin:miter;stroke-miterlimit:4;stroke-dasharray:none;stroke-opacity:1" />
        <path
           style="fill:#dcbe9c;fill-opacity:1;fill-rule:evenodd;stroke:#979387;stroke-width:2;stroke-linecap:butt;stroke-linejoin:miter;stroke-miterlimit:4;stroke-dasharray:none;stroke-opacity:1"
           d="m -2236.5331,737.58714 c -0.1341,1.49186 0.9633,0.62936 0.057,0.0171 0.5405,3.00853 0.5713,6.34399 2.642,8.80826 2.0228,2.0557 4.3157,-1.28494 3.3285,-3.32344 0.3895,-2.56673 -2.2452,-3.89016 -3.6914,-5.51482 -0.9814,0.0684 -3.4367,-0.32087 -1.192,-0.88411 1.1285,0.12942 -0.8756,1.03438 -1.1446,0.89701 z"
           id="path6836"
           inkscape:connector-curvature="0" />
        <path
           inkscape:connector-curvature="0"
           id="path6838"
           d="m -2214.7738,693.60566 c -0.1341,1.49186 0.9633,0.62936 0.057,0.0171 0.5405,3.00853 0.5712,6.34399 2.6419,8.80826 2.0228,2.0557 4.3158,-1.28494 3.3285,-3.32344 0.3896,-2.56673 -2.2452,-3.89016 -3.6914,-5.51482 -0.9814,0.0684 -3.4366,-0.32087 -1.192,-0.88411 1.1286,0.12942 -0.8755,1.03438 -1.1445,0.89701 z"
           style="fill:#dcbe9c;fill-opacity:1;fill-rule:evenodd;stroke:#979387;stroke-width:2;stroke-linecap:butt;stroke-linejoin:miter;stroke-miterlimit:4;stroke-dasharray:none;stroke-opacity:1" />
        <path
           style="fill:#dcbe9c;fill-opacity:1;fill-rule:evenodd;stroke:#979387;stroke-width:2;stroke-linecap:butt;stroke-linejoin:miter;stroke-miterlimit:4;stroke-dasharray:none;stroke-opacity:1"
           d="m -2263.3849,693.60566 c -0.1341,1.49186 0.9633,0.62936 0.057,0.0171 0.5405,3.00853 0.5712,6.34399 2.6419,8.80826 2.0228,2.0557 4.3158,-1.28494 3.3285,-3.32344 0.3895,-2.56673 -2.2452,-3.89016 -3.6914,-5.51482 -0.9814,0.0684 -3.4366,-0.32087 -1.192,-0.88411 1.1286,0.12942 -0.8755,1.03438 -1.1445,0.89701 z"
           id="path6840"
           inkscape:connector-curvature="0" />
        <path
           inkscape:connector-curvature="0"
           id="path6842"
           d="m -2270.3294,657.03159 c -0.1341,1.49186 0.9633,0.62936 0.057,0.0171 0.5405,3.00853 0.5713,6.34399 2.642,8.80826 2.0228,2.0557 4.3157,-1.28494 3.3285,-3.32344 0.3895,-2.56673 -2.2452,-3.89016 -3.6914,-5.51482 -0.9814,0.0684 -3.4367,-0.32087 -1.192,-0.88411 1.1286,0.12942 -0.8756,1.03438 -1.1446,0.89701 z"
           style="fill:#dcbe9c;fill-opacity:1;fill-rule:evenodd;stroke:#979387;stroke-width:2;stroke-linecap:butt;stroke-linejoin:miter;stroke-miterlimit:4;stroke-dasharray:none;stroke-opacity:1" />
        <path
           inkscape:connector-curvature="0"
           id="path6846"
           d="m -2292.0886,647.30937 c -0.1341,1.49186 0.9633,0.62936 0.057,0.0171 0.5405,3.00853 0.5712,6.34399 2.6419,8.80826 2.0228,2.0557 4.3158,-1.28494 3.3285,-3.32344 0.3895,-2.56673 -2.2452,-3.89016 -3.6914,-5.51482 -0.9814,0.0684 -3.4366,-0.32087 -1.192,-0.88411 1.1286,0.12942 -0.8755,1.03438 -1.1445,0.89701 z"
           style="fill:#dcbe9c;fill-opacity:1;fill-rule:evenodd;stroke:#979387;stroke-width:2;stroke-linecap:butt;stroke-linejoin:miter;stroke-miterlimit:4;stroke-dasharray:none;stroke-opacity:1" />
        <path
           style="fill:#dcbe9c;fill-opacity:1;fill-rule:evenodd;stroke:#979387;stroke-width:2;stroke-linecap:butt;stroke-linejoin:miter;stroke-miterlimit:4;stroke-dasharray:none;stroke-opacity:1"
           d="m -2287.459,700.08715 c -0.1341,1.49186 0.9633,0.62936 0.057,0.0171 0.5405,3.00853 0.5713,6.34399 2.6419,8.80826 2.0229,2.0557 4.3158,-1.28494 3.3286,-3.32344 0.3895,-2.56673 -2.2453,-3.89016 -3.6915,-5.51482 -0.9813,0.0684 -3.4366,-0.32087 -1.1919,-0.88411 1.1285,0.12942 -0.8756,1.03438 -1.1446,0.89701 z"
           id="path6848"
           inkscape:connector-curvature="0" />
        <path
           inkscape:connector-curvature="0"
           id="path6850"
           d="m -2165.2368,658.88345 c -0.1341,1.49186 0.9633,0.62936 0.058,0.0171 0.5405,3.00853 0.5713,6.34399 2.642,8.80826 2.0228,2.0557 4.3157,-1.28494 3.3285,-3.32344 0.3895,-2.56673 -2.2452,-3.89016 -3.6914,-5.51482 -0.9814,0.0684 -3.4367,-0.32087 -1.192,-0.88411 1.1285,0.12942 -0.8756,1.03438 -1.1446,0.89701 z"
           style="fill:#dcbe9c;fill-opacity:1;fill-rule:evenodd;stroke:#979387;stroke-width:2;stroke-linecap:butt;stroke-linejoin:miter;stroke-miterlimit:4;stroke-dasharray:none;stroke-opacity:1" />
        <path
           style="fill:#dcbe9c;fill-opacity:1;fill-rule:evenodd;stroke:#979387;stroke-width:2;stroke-linecap:butt;stroke-linejoin:miter;stroke-miterlimit:4;stroke-dasharray:none;stroke-opacity:1"
           d="m -2153.6627,626.93901 c -0.1341,1.49186 0.9633,0.62936 0.057,0.0171 0.5405,3.00853 0.5713,6.34399 2.6419,8.80826 2.0228,2.0557 4.3158,-1.28494 3.3285,-3.32344 0.3896,-2.56673 -2.2452,-3.89016 -3.6914,-5.51482 -0.9813,0.0684 -3.4366,-0.32087 -1.192,-0.88411 1.1286,0.12942 -0.8755,1.03438 -1.1445,0.89701 z"
           id="path6852"
           inkscape:connector-curvature="0" />
        <path
           inkscape:connector-curvature="0"
           id="path6854"
           d="m -2181.9034,614.90197 c -0.1341,1.49186 0.9632,0.62936 0.058,0.0171 0.5404,3.00853 0.5712,6.34399 2.6419,8.80826 2.0228,2.0557 4.3158,-1.28494 3.3285,-3.32344 0.3895,-2.56673 -2.2452,-3.89016 -3.6914,-5.51482 -0.9814,0.0684 -3.4366,-0.32087 -1.192,-0.88411 1.1286,0.12942 -0.8756,1.03438 -1.1445,0.89701 z"
           style="fill:#dcbe9c;fill-opacity:1;fill-rule:evenodd;stroke:#979387;stroke-width:2;stroke-linecap:butt;stroke-linejoin:miter;stroke-miterlimit:4;stroke-dasharray:none;stroke-opacity:1" />
        <path
           style="fill:#dcbe9c;fill-opacity:1;fill-rule:evenodd;stroke:#979387;stroke-width:2;stroke-linecap:butt;stroke-linejoin:miter;stroke-miterlimit:4;stroke-dasharray:none;stroke-opacity:1"
           d="m -2169.8664,589.43901 c -0.1341,1.49186 0.9633,0.62936 0.057,0.0171 0.5405,3.00853 0.5713,6.34399 2.6419,8.80826 2.0228,2.0557 4.3158,-1.28494 3.3285,-3.32344 0.3896,-2.56673 -2.2452,-3.89016 -3.6914,-5.51482 -0.9813,0.0684 -3.4366,-0.32087 -1.192,-0.88411 1.1286,0.12942 -0.8755,1.03438 -1.1445,0.89701 z"
           id="path6856"
           inkscape:connector-curvature="0" />
        <path
           inkscape:connector-curvature="0"
           id="path6862"
           d="m -2238.3849,596.84642 c -0.1341,1.49186 0.9633,0.62936 0.057,0.0171 0.5405,3.00853 0.5712,6.34399 2.6419,8.80826 2.0228,2.0557 4.3158,-1.28494 3.3285,-3.32344 0.3895,-2.56673 -2.2452,-3.89016 -3.6914,-5.51482 -0.9814,0.0684 -3.4366,-0.32087 -1.192,-0.88411 1.1286,0.12942 -0.8755,1.03438 -1.1445,0.89701 z"
           style="fill:#dcbe9c;fill-opacity:1;fill-rule:evenodd;stroke:#979387;stroke-width:2;stroke-linecap:butt;stroke-linejoin:miter;stroke-miterlimit:4;stroke-dasharray:none;stroke-opacity:1" />
        <path
           style="fill:#dcbe9c;fill-opacity:1;fill-rule:evenodd;stroke:#979387;stroke-width:2;stroke-linecap:butt;stroke-linejoin:miter;stroke-miterlimit:4;stroke-dasharray:none;stroke-opacity:1"
           d="m -2245.3294,626.47605 c -0.1341,1.49186 0.9633,0.62936 0.057,0.0171 0.5405,3.00853 0.5713,6.34399 2.642,8.80826 2.0228,2.0557 4.3157,-1.28494 3.3285,-3.32344 0.3895,-2.56673 -2.2452,-3.89016 -3.6914,-5.51482 -0.9814,0.0684 -3.4367,-0.32087 -1.192,-0.88411 1.1286,0.12942 -0.8756,1.03438 -1.1446,0.89701 z"
           id="path6864"
           inkscape:connector-curvature="0" />
        <path
           style="fill:#dcbe9c;fill-opacity:1;fill-rule:evenodd;stroke:#979387;stroke-width:2;stroke-linecap:butt;stroke-linejoin:miter;stroke-miterlimit:4;stroke-dasharray:none;stroke-opacity:1"
           d="m -2105.0516,619.53161 c -0.1341,1.49186 0.9633,0.62936 0.057,0.0171 0.5405,3.00853 0.5713,6.34399 2.6419,8.80826 2.0229,2.0557 4.3158,-1.28494 3.3286,-3.32344 0.3895,-2.56673 -2.2452,-3.89016 -3.6915,-5.51482 -0.9813,0.0684 -3.4366,-0.32087 -1.1919,-0.88411 1.1285,0.12942 -0.8756,1.03438 -1.1446,0.89701 z"
           id="path6868"
           inkscape:connector-curvature="0" />
        <path
           inkscape:connector-curvature="0"
           id="path6870"
           d="m -2095.7923,582.03161 c -0.1341,1.49186 0.9633,0.62936 0.057,0.0171 0.5405,3.00853 0.5712,6.34399 2.6419,8.80826 2.0228,2.0557 4.3158,-1.28494 3.3285,-3.32344 0.3895,-2.56673 -2.2452,-3.89016 -3.6914,-5.51482 -0.9814,0.0684 -3.4366,-0.32087 -1.192,-0.88411 1.1286,0.12942 -0.8755,1.03438 -1.1445,0.89701 z"
           style="fill:#dcbe9c;fill-opacity:1;fill-rule:evenodd;stroke:#979387;stroke-width:2;stroke-linecap:butt;stroke-linejoin:miter;stroke-miterlimit:4;stroke-dasharray:none;stroke-opacity:1" />
        <path
           style="fill:#dcbe9c;fill-opacity:1;fill-rule:evenodd;stroke:#979387;stroke-width:2;stroke-linecap:butt;stroke-linejoin:miter;stroke-miterlimit:4;stroke-dasharray:none;stroke-opacity:1"
           d="m -2023.5701,672.30939 c -0.1341,1.49186 0.9633,0.62936 0.057,0.0171 0.5405,3.00853 0.5713,6.34399 2.6419,8.80826 2.0228,2.0557 4.3158,-1.28494 3.3285,-3.32344 0.3896,-2.56673 -2.2452,-3.89016 -3.6914,-5.51482 -0.9813,0.0684 -3.4366,-0.32087 -1.192,-0.88411 1.1286,0.12942 -0.8755,1.03438 -1.1445,0.89701 z"
           id="path6872"
           inkscape:connector-curvature="0" />
        <path
           inkscape:connector-curvature="0"
           id="path6874"
           d="m -1986.0701,734.34643 c -0.1341,1.49186 0.9633,0.62936 0.057,0.0171 0.5405,3.00853 0.5713,6.34399 2.6419,8.80826 2.0228,2.0557 4.3158,-1.28494 3.3285,-3.32344 0.3896,-2.56673 -2.2452,-3.89016 -3.6914,-5.51482 -0.9813,0.0684 -3.4366,-0.32087 -1.192,-0.88411 1.1286,0.12942 -0.8755,1.03438 -1.1445,0.89701 z"
           style="fill:#dcbe9c;fill-opacity:1;fill-rule:evenodd;stroke:#979387;stroke-width:2;stroke-linecap:butt;stroke-linejoin:miter;stroke-miterlimit:4;stroke-dasharray:none;stroke-opacity:1" />
        <path
           style="fill:#dcbe9c;fill-opacity:1;fill-rule:evenodd;stroke:#979387;stroke-width:2;stroke-linecap:butt;stroke-linejoin:miter;stroke-miterlimit:4;stroke-dasharray:none;stroke-opacity:1"
           d="m -1952.2738,700.08717 c -0.1341,1.49186 0.9633,0.62936 0.057,0.0171 0.5405,3.00853 0.5713,6.34399 2.6419,8.80826 2.0228,2.0557 4.3158,-1.28494 3.3285,-3.32344 0.3896,-2.56673 -2.2452,-3.89016 -3.6914,-5.51482 -0.9813,0.0684 -3.4366,-0.32087 -1.192,-0.88411 1.1286,0.12942 -0.8755,1.03438 -1.1445,0.89701 z"
           id="path6876"
           inkscape:connector-curvature="0" />
        <path
           inkscape:connector-curvature="0"
           id="path6878"
           d="m -1963.8479,679.7168 c -0.1341,1.49186 0.9633,0.62936 0.057,0.0171 0.5405,3.00853 0.5713,6.34399 2.6419,8.80826 2.0229,2.0557 4.3158,-1.28494 3.3286,-3.32344 0.3895,-2.56673 -2.2452,-3.89016 -3.6915,-5.51482 -0.9813,0.0684 -3.4366,-0.32087 -1.1919,-0.88411 1.1285,0.12942 -0.8756,1.03438 -1.1446,0.89701 z"
           style="fill:#dcbe9c;fill-opacity:1;fill-rule:evenodd;stroke:#979387;stroke-width:2;stroke-linecap:butt;stroke-linejoin:miter;stroke-miterlimit:4;stroke-dasharray:none;stroke-opacity:1" />
        <path
           style="fill:#dcbe9c;fill-opacity:1;fill-rule:evenodd;stroke:#979387;stroke-width:2;stroke-linecap:butt;stroke-linejoin:miter;stroke-miterlimit:4;stroke-dasharray:none;stroke-opacity:1"
           d="m -1966.6257,630.64273 c -0.1341,1.49186 0.9633,0.62936 0.058,0.0171 0.5405,3.00853 0.5713,6.34399 2.642,8.80826 2.0228,2.0557 4.3157,-1.28494 3.3285,-3.32344 0.3895,-2.56673 -2.2452,-3.89016 -3.6914,-5.51482 -0.9814,0.0684 -3.4367,-0.32087 -1.192,-0.88411 1.1286,0.12942 -0.8756,1.03438 -1.1446,0.89701 z"
           id="path6880"
           inkscape:connector-curvature="0" />
        <path
           style="fill:#dcbe9c;fill-opacity:1;fill-rule:evenodd;stroke:#979387;stroke-width:2;stroke-linecap:butt;stroke-linejoin:miter;stroke-miterlimit:4;stroke-dasharray:none;stroke-opacity:1"
           d="m -2001.3479,623.69829 c -0.1341,1.49186 0.9633,0.62936 0.057,0.0171 0.5405,3.00853 0.5713,6.34399 2.6419,8.80826 2.0229,2.0557 4.3158,-1.28494 3.3286,-3.32344 0.3895,-2.56673 -2.2452,-3.89016 -3.6915,-5.51482 -0.9813,0.0684 -3.4366,-0.32087 -1.1919,-0.88411 1.1285,0.12942 -0.8756,1.03438 -1.1446,0.89701 z"
           id="path6884"
           inkscape:connector-curvature="0" />
        <path
           inkscape:connector-curvature="0"
           id="path6886"
           d="m -2022.6442,588.5131 c -0.1341,1.49186 0.9633,0.62936 0.057,0.0171 0.5405,3.00853 0.5713,6.34399 2.642,8.80826 2.0228,2.0557 4.3157,-1.28494 3.3285,-3.32344 0.3895,-2.56673 -2.2452,-3.89016 -3.6914,-5.51482 -0.9814,0.0684 -3.4367,-0.32087 -1.192,-0.88411 1.1285,0.12942 -0.8756,1.03438 -1.1446,0.89701 z"
           style="fill:#dcbe9c;fill-opacity:1;fill-rule:evenodd;stroke:#979387;stroke-width:2;stroke-linecap:butt;stroke-linejoin:miter;stroke-miterlimit:4;stroke-dasharray:none;stroke-opacity:1" />
        <path
           inkscape:connector-curvature="0"
           id="path6890"
           d="m -2055.5145,569.99459 c -0.1341,1.49186 0.9632,0.62936 0.058,0.0171 0.5404,3.00853 0.5712,6.34399 2.6419,8.80826 2.0228,2.0557 4.3158,-1.28494 3.3285,-3.32344 0.3895,-2.56673 -2.2452,-3.89016 -3.6914,-5.51482 -0.9814,0.0684 -3.4366,-0.32087 -1.192,-0.88411 1.1286,0.12942 -0.8756,1.03438 -1.1445,0.89701 z"
           style="fill:#dcbe9c;fill-opacity:1;fill-rule:evenodd;stroke:#979387;stroke-width:2;stroke-linecap:butt;stroke-linejoin:miter;stroke-miterlimit:4;stroke-dasharray:none;stroke-opacity:1" />
        <path
           inkscape:connector-curvature="0"
           id="path6894"
           d="m -2108.2923,561.19829 c -0.1341,1.49186 0.9633,0.62936 0.057,0.0171 0.5405,3.00853 0.5712,6.34399 2.6419,8.80826 2.0228,2.0557 4.3158,-1.28494 3.3285,-3.32344 0.3895,-2.56673 -2.2452,-3.89016 -3.6914,-5.51482 -0.9814,0.0684 -3.4366,-0.32087 -1.192,-0.88411 1.1286,0.12942 -0.8755,1.03438 -1.1445,0.89701 z"
           style="fill:#dcbe9c;fill-opacity:1;fill-rule:evenodd;stroke:#979387;stroke-width:2;stroke-linecap:butt;stroke-linejoin:miter;stroke-miterlimit:4;stroke-dasharray:none;stroke-opacity:1" />
        <path
           style="fill:#dcbe9c;fill-opacity:1;fill-rule:evenodd;stroke:#979387;stroke-width:2;stroke-linecap:butt;stroke-linejoin:miter;stroke-miterlimit:4;stroke-dasharray:none;stroke-opacity:1"
           d="m -2150.4219,561.19829 c -0.1341,1.49186 0.9632,0.62936 0.057,0.0171 0.5404,3.00853 0.5712,6.34399 2.6419,8.80826 2.0228,2.0557 4.3157,-1.28494 3.3285,-3.32344 0.3895,-2.56673 -2.2452,-3.89016 -3.6914,-5.51482 -0.9814,0.0684 -3.4367,-0.32087 -1.192,-0.88411 1.1286,0.12942 -0.8756,1.03438 -1.1445,0.89701 z"
           id="path6896"
           inkscape:connector-curvature="0" />
        <path
           inkscape:connector-curvature="0"
           id="path6898"
           d="m -2178.6627,564.90199 c -0.1341,1.49186 0.9633,0.62936 0.057,0.0171 0.5405,3.00853 0.5713,6.34399 2.6419,8.80826 2.0229,2.0557 4.3158,-1.28494 3.3286,-3.32344 0.3895,-2.56673 -2.2453,-3.89016 -3.6915,-5.51482 -0.9813,0.0684 -3.4366,-0.32087 -1.1919,-0.88411 1.1285,0.12942 -0.8756,1.03438 -1.1446,0.89701 z"
           style="fill:#dcbe9c;fill-opacity:1;fill-rule:evenodd;stroke:#979387;stroke-width:2;stroke-linecap:butt;stroke-linejoin:miter;stroke-miterlimit:4;stroke-dasharray:none;stroke-opacity:1" />
        <path
           style="fill:#dcbe9c;fill-opacity:1;fill-rule:evenodd;stroke:#979387;stroke-width:2;stroke-linecap:butt;stroke-linejoin:miter;stroke-miterlimit:4;stroke-dasharray:none;stroke-opacity:1"
           d="m -2056.9034,629.25384 c -0.1341,1.49186 0.9633,0.62936 0.058,0.0171 0.5405,3.00853 0.5712,6.34399 2.6419,8.80826 2.0228,2.0557 4.3158,-1.28494 3.3285,-3.32344 0.3895,-2.56673 -2.2452,-3.89016 -3.6914,-5.51482 -0.9814,0.0684 -3.4366,-0.32087 -1.192,-0.88411 1.1286,0.12942 -0.8756,1.03438 -1.1445,0.89701 z"
           id="path6900"
           inkscape:connector-curvature="0" />
        <path
           inkscape:connector-curvature="0"
           id="path6902"
           d="m -2113.8479,645.45754 c -0.1341,1.49186 0.9633,0.62936 0.058,0.0171 0.5405,3.00853 0.5713,6.34399 2.6419,8.80826 2.0229,2.0557 4.3158,-1.28494 3.3286,-3.32344 0.3895,-2.56673 -2.2452,-3.89016 -3.6915,-5.51482 -0.9813,0.0684 -3.4366,-0.32087 -1.1919,-0.88411 1.1285,0.12942 -0.8756,1.03438 -1.1446,0.89701 z"
           style="fill:#dcbe9c;fill-opacity:1;fill-rule:evenodd;stroke:#979387;stroke-width:2;stroke-linecap:butt;stroke-linejoin:miter;stroke-miterlimit:4;stroke-dasharray:none;stroke-opacity:1" />
        <path
           style="fill:#dcbe9c;fill-opacity:1;fill-rule:evenodd;stroke:#979387;stroke-width:2;stroke-linecap:butt;stroke-linejoin:miter;stroke-miterlimit:4;stroke-dasharray:none;stroke-opacity:1"
           d="m -2158.2923,704.25384 c -0.1341,1.49186 0.9633,0.62936 0.057,0.0171 0.5405,3.00853 0.5712,6.34399 2.6419,8.80826 2.0228,2.0557 4.3158,-1.28494 3.3285,-3.32344 0.3895,-2.56673 -2.2452,-3.89016 -3.6914,-5.51482 -0.9814,0.0684 -3.4366,-0.32087 -1.192,-0.88411 1.1286,0.12942 -0.8755,1.03438 -1.1445,0.89701 z"
           id="path6904"
           inkscape:connector-curvature="0" />
        <path
           inkscape:connector-curvature="0"
           id="path6906"
           d="m -1999.959,706.56865 c -0.1341,1.49186 0.9633,0.62936 0.058,0.0171 0.5405,3.00853 0.5713,6.34399 2.6419,8.80826 2.0229,2.0557 4.3158,-1.28494 3.3286,-3.32344 0.3895,-2.56673 -2.2453,-3.89016 -3.6915,-5.51482 -0.9813,0.0684 -3.4366,-0.32087 -1.1919,-0.88411 1.1285,0.12942 -0.8756,1.03438 -1.1446,0.89701 z"
           style="fill:#dcbe9c;fill-opacity:1;fill-rule:evenodd;stroke:#979387;stroke-width:2;stroke-linecap:butt;stroke-linejoin:miter;stroke-miterlimit:4;stroke-dasharray:none;stroke-opacity:1" />
        <path
           style="fill:#dcbe9c;fill-opacity:1;fill-rule:evenodd;stroke:#979387;stroke-width:2;stroke-linecap:butt;stroke-linejoin:miter;stroke-miterlimit:4;stroke-dasharray:none;stroke-opacity:1"
           d="m -2055.9775,752.86495 c -0.1341,1.49186 0.9633,0.62936 0.057,0.0171 0.5405,3.00853 0.5712,6.34399 2.6419,8.80826 2.0228,2.0557 4.3158,-1.28494 3.3285,-3.32344 0.3896,-2.56673 -2.2452,-3.89016 -3.6914,-5.51482 -0.9814,0.0684 -3.4366,-0.32087 -1.192,-0.88411 1.1286,0.12942 -0.8755,1.03438 -1.1445,0.89701 z"
           id="path6908"
           inkscape:connector-curvature="0" />
        <path
           inkscape:connector-curvature="0"
           id="path6910"
           d="m -2109.6812,762.58717 c -0.1341,1.49186 0.9633,0.62936 0.057,0.0171 0.5405,3.00853 0.5712,6.34399 2.6419,8.80826 2.0228,2.0557 4.3158,-1.28494 3.3285,-3.32344 0.3896,-2.56673 -2.2452,-3.89016 -3.6914,-5.51482 -0.9814,0.0684 -3.4366,-0.32087 -1.192,-0.88411 1.1286,0.12942 -0.8755,1.03438 -1.1445,0.89701 z"
           style="fill:#dcbe9c;fill-opacity:1;fill-rule:evenodd;stroke:#979387;stroke-width:2;stroke-linecap:butt;stroke-linejoin:miter;stroke-miterlimit:4;stroke-dasharray:none;stroke-opacity:1" />
        <path
           style="fill:#dcbe9c;fill-opacity:1;fill-rule:evenodd;stroke:#979387;stroke-width:2;stroke-linecap:butt;stroke-linejoin:miter;stroke-miterlimit:4;stroke-dasharray:none;stroke-opacity:1"
           d="m -1980.5145,657.03161 c -0.1341,1.49186 0.9632,0.62936 0.057,0.0171 0.5404,3.00853 0.5712,6.34399 2.6419,8.80826 2.0228,2.0557 4.3158,-1.28494 3.3285,-3.32344 0.3895,-2.56673 -2.2452,-3.89016 -3.6914,-5.51482 -0.9814,0.0684 -3.4366,-0.32087 -1.192,-0.88411 1.1286,0.12942 -0.8756,1.03438 -1.1445,0.89701 z"
           id="path6912"
           inkscape:connector-curvature="0" />
        <path
           sodipodi:nodetypes="cccccccc"
           inkscape:connector-curvature="0"
           id="path7019"
           d="m -2144.8664,554.71677 c -49.6307,7.24215 -116.0718,11.19554 -140.2468,62.68462 -18.4796,33.32265 -40.0177,78.68301 -9.0178,111.91077 37.8735,45.24394 99.6111,60.31839 156.3146,51.63152 69.1076,-2.68401 146.6306,-10.47199 196.4167,-64.06769 18.6859,-44.26503 -18.9755,-93.61845 -48.5084,-123.68028 -44.7783,-32.33006 -82.3436,-37.42714 -135.9768,-38.01597 z"
           style="fill:none;fill-opacity:1;fill-rule:evenodd;stroke:#9c651e;stroke-width:5;stroke-linecap:butt;stroke-linejoin:miter;stroke-miterlimit:4;stroke-dasharray:none;stroke-opacity:1" />
        <path
           inkscape:connector-curvature="0"
           id="path6858"
           d="m -2211.5331,563.05012 c -0.1341,1.49186 0.9633,0.62936 0.057,0.0171 0.5405,3.00853 0.5713,6.34399 2.642,8.80826 2.0228,2.0557 4.3157,-1.28494 3.3285,-3.32344 0.3895,-2.56673 -2.2452,-3.89016 -3.6914,-5.51482 -0.9814,0.0684 -3.4367,-0.32087 -1.192,-0.88411 1.1285,0.12942 -0.8756,1.03438 -1.1446,0.89701 z"
           style="fill:#dcbe9c;fill-opacity:1;fill-rule:evenodd;stroke:#979387;stroke-width:2;stroke-linecap:butt;stroke-linejoin:miter;stroke-miterlimit:4;stroke-dasharray:none;stroke-opacity:1" />
        <path
           style="fill:#dcbe9c;fill-opacity:1;fill-rule:evenodd;stroke:#979387;stroke-width:2;stroke-linecap:butt;stroke-linejoin:miter;stroke-miterlimit:4;stroke-dasharray:none;stroke-opacity:1"
           d="m -2230.9775,574.16123 c -0.1341,1.49186 0.9633,0.62936 0.057,0.0171 0.5405,3.00853 0.5712,6.34399 2.6419,8.80826 2.0228,2.0557 4.3158,-1.28494 3.3285,-3.32344 0.3896,-2.56673 -2.2452,-3.89016 -3.6914,-5.51482 -0.9814,0.0684 -3.4366,-0.32087 -1.192,-0.88411 1.1286,0.12942 -0.8755,1.03438 -1.1445,0.89701 z"
           id="path6860"
           inkscape:connector-curvature="0" />
        <path
           inkscape:connector-curvature="0"
           id="path6866"
           d="m -2265.6997,585.27235 c -0.1341,1.49186 0.9633,0.62936 0.058,0.0171 0.5405,3.00853 0.5712,6.34399 2.6419,8.80826 2.0228,2.0557 4.3158,-1.28494 3.3285,-3.32344 0.3895,-2.56673 -2.2452,-3.89016 -3.6914,-5.51482 -0.9814,0.0684 -3.4366,-0.32087 -1.192,-0.88411 1.1286,0.12942 -0.8756,1.03438 -1.1445,0.89701 z"
           style="fill:#dcbe9c;fill-opacity:1;fill-rule:evenodd;stroke:#979387;stroke-width:2;stroke-linecap:butt;stroke-linejoin:miter;stroke-miterlimit:4;stroke-dasharray:none;stroke-opacity:1" />
        <path
           style="fill:#dcbe9c;fill-opacity:1;fill-rule:evenodd;stroke:#979387;stroke-width:2;stroke-linecap:butt;stroke-linejoin:miter;stroke-miterlimit:4;stroke-dasharray:none;stroke-opacity:1"
           d="m -2282.8294,608.42048 c -0.1341,1.49186 0.9633,0.62936 0.057,0.0171 0.5405,3.00853 0.5713,6.34399 2.642,8.80826 2.0228,2.0557 4.3157,-1.28494 3.3285,-3.32344 0.3895,-2.56673 -2.2452,-3.89016 -3.6914,-5.51482 -0.9814,0.0684 -3.4367,-0.32087 -1.192,-0.88411 1.1286,0.12942 -0.8756,1.03438 -1.1446,0.89701 z"
           id="path6844"
           inkscape:connector-curvature="0" />
        <path
           style="fill:#dcbe9c;fill-opacity:1;fill-rule:evenodd;stroke:#979387;stroke-width:2;stroke-linecap:butt;stroke-linejoin:miter;stroke-miterlimit:4;stroke-dasharray:none;stroke-opacity:1"
           d="m -2068.0145,557.95755 c -0.1341,1.49186 0.9632,0.62936 0.058,0.0171 0.5404,3.00853 0.5712,6.34399 2.6419,8.80826 2.0228,2.0557 4.3158,-1.28494 3.3285,-3.32344 0.3895,-2.56673 -2.2452,-3.89016 -3.6914,-5.51482 -0.9814,0.0684 -3.4366,-0.32087 -1.192,-0.88411 1.1286,0.12942 -0.8756,1.03438 -1.1445,0.89701 z"
           id="path6892"
           inkscape:connector-curvature="0" />
        <path
           inkscape:connector-curvature="0"
           id="path6882"
           d="m -1976.8108,606.56866 c -0.1341,1.49186 0.9632,0.62936 0.057,0.0171 0.5404,3.00853 0.5712,6.34399 2.6419,8.80826 2.0228,2.0557 4.3158,-1.28494 3.3285,-3.32344 0.3895,-2.56673 -2.2452,-3.89016 -3.6914,-5.51482 -0.9814,0.0684 -3.4366,-0.32087 -1.192,-0.88411 1.1286,0.12942 -0.8756,1.03438 -1.1445,0.89701 z"
           style="fill:#dcbe9c;fill-opacity:1;fill-rule:evenodd;stroke:#979387;stroke-width:2;stroke-linecap:butt;stroke-linejoin:miter;stroke-miterlimit:4;stroke-dasharray:none;stroke-opacity:1" />
        <path
           style="fill:#dcbe9c;fill-opacity:1;fill-rule:evenodd;stroke:#979387;stroke-width:2;stroke-linecap:butt;stroke-linejoin:miter;stroke-miterlimit:4;stroke-dasharray:none;stroke-opacity:1"
           d="m -2002.2738,581.56866 c -0.1341,1.49186 0.9633,0.62936 0.057,0.0171 0.5405,3.00853 0.5713,6.34399 2.6419,8.80826 2.0228,2.0557 4.3158,-1.28494 3.3285,-3.32344 0.3896,-2.56673 -2.2452,-3.89016 -3.6914,-5.51482 -0.9813,0.0684 -3.4366,-0.32087 -1.192,-0.88411 1.1286,0.12942 -0.8755,1.03438 -1.1445,0.89701 z"
           id="path6888"
           inkscape:connector-curvature="0" />
      </g>
    </g>
  </g>
</svg>
