<?xml version="1.0" encoding="utf-8"?>
<svg version="1.1" id="Layer_1" xmlns="http://www.w3.org/2000/svg" xmlns:xlink="http://www.w3.org/1999/xlink" x="0px" y="0px"
	 viewBox="0 0 1753.908 1786.912" enable-background="new 0 0 1753.908 1786.912" xml:space="preserve">
<g>
	<path fill="#86CCEB" stroke="#86CCEB" d="M418.818,93.456h54.852c4.871,0.202,9.753,0.101,14.624,0.385
		c5.965-0.004,11.934,0.07,17.895,0.389c4.676-0.023,9.352,0.16,14.021,0.397c4.427-0.082,8.838,0.37,13.261,0.405
		c40.664,1.565,81.293,4.127,121.812,7.962c36.747,3.52,73.42,8.017,109.793,14.351c18.035,3.177,36.003,6.794,53.769,11.256
		c15.224,3.878,30.358,8.282,44.951,14.141c10.006,4.108,19.943,8.776,28.462,15.539c4.31,3.512,8.32,7.729,10.341,13
		c0.853,2.247,1.258,4.657,1.117,7.055c-0.171,2.745,0.471,5.443,0.428,8.184c0.459,5.825,0.354,11.673,0.37,17.509
		c-0.004,9.173,0.047,18.35-0.273,27.515c-0.241,3.804-0.055,7.62-0.23,11.427c-0.323,5.19-0.237,10.388-0.495,15.582
		c-0.296,3.878-0.117,7.771-0.405,11.649c-2.005,55.066-4.949,110.089-8.149,165.097c-5.354,90.349-11.646,180.64-18.704,270.88
		c-7.982,101.862-16.941,203.654-27.223,305.318c-0.23,1.927-0.335,3.874-0.654,5.797c-10.972,3.313-21.695,7.39-32.258,11.813
		c1.974-18.105,4.178-36.186,6.109-54.299c8.48-76.827,15.936-153.763,22.723-230.757c7.18-81.83,13.592-163.73,19.141-245.692
		c2.873-43.354,5.63-86.72,7.803-130.113c0.767-7.62-0.031-15.43-2.683-22.633c-3.473-9.485-9.886-17.638-17.408-24.264
		c-9.232-8.137-20.017-14.293-31.129-19.471c-13.604-6.257-27.85-10.991-42.268-14.967c-17.311-4.738-34.925-8.301-52.625-11.237
		c-31.444-5.174-63.192-8.243-94.978-10.353c-0.023-3.952-0.019-7.908-0.284-11.852c-0.249-4.014,0.012-8.052-0.448-12.054
		c2.967-0.097,5.926-0.467,8.901-0.385c3.512,0.09,6.997-0.463,10.513-0.393c38.733-1.686,77.473-4.283,115.968-9.049
		c25.51-3.193,50.99-7.18,75.904-13.612c6-1.635,12.082-3.091,17.856-5.439c11.755-4.049,23.606-8.671,33.476-16.423
		c0.786-0.596,1.483-1.324,2.075-2.122c-5.194-4.949-11.447-8.609-17.758-11.934c-10.353-5.248-21.286-9.259-32.301-12.868
		c-31.07-9.745-63.11-15.991-95.208-21.235c-35.24-5.599-70.706-9.691-106.242-12.86c-34.983-3.103-70.052-5.272-105.125-6.693
		c-3.512,0.066-7.001-0.494-10.513-0.389c-3.516,0.109-7.004-0.42-10.513-0.385c-2.873-0.019-5.747,0.039-8.605-0.238
		c-5.688-0.354-11.4,0.078-17.077-0.459c-7.277-0.14-14.554-0.07-21.827-0.156c-4.4-0.424-8.819-0.23-13.23-0.265
		c-6.362-0.027-12.72-0.047-19.078-0.004c-5.062,0.051-10.127-0.171-15.169,0.284c-9.091,0.027-18.179,0.097-27.266,0.16
		c-2.605,0.004-5.19,0.35-7.791,0.343c-3.391,0.019-6.79-0.027-10.17,0.28c-3.411,0.241-6.833-0.008-10.236,0.347
		c-42.615,1.643-85.237,4.653-127.528,10.329c-18.159,2.402-36.225,5.49-54.139,9.317c-15.975,3.563-31.872,7.694-47.17,13.577
		c-8.737,3.434-17.381,7.304-25.175,12.588c-4.104,2.644-7.966,5.723-11.186,9.407c-2.391-1.857-4.474-4.115-6.097-6.673
		c-1.265-1.947-1.612-4.291-2.574-6.378c0.662-3.099,0.603-6.354,1.81-9.337c3.255-9.017,10.859-15.555,18.662-20.671
		c11.587-7.386,24.506-12.374,37.53-16.579c17.965-5.716,36.412-9.749,54.945-13.117c16.785-3.021,33.679-5.385,50.612-7.382
		c38.371-4.462,76.94-6.927,115.524-8.359c4.941-0.035,9.874-0.502,14.823-0.405c5.829-0.28,11.665-0.421,17.505-0.397
		C409.069,93.565,413.947,93.651,418.818,93.456z"/>
	<path fill="#68C3E7" stroke="#68C3E7" d="M422.124,126.792c5.042-0.456,10.108-0.234,15.169-0.284
		c6.358-0.043,12.716-0.023,19.078,0.004c4.411,0.035,8.831-0.16,13.23,0.265c7.273,0.086,14.55,0.016,21.827,0.156
		c5.677,0.537,11.389,0.105,17.077,0.459c2.858,0.276,5.731,0.218,8.605,0.238c3.508-0.035,6.997,0.494,10.513,0.385
		c3.512-0.105,7.001,0.456,10.513,0.389c35.073,1.421,70.142,3.59,105.125,6.693c35.536,3.169,71.002,7.261,106.242,12.86
		c32.098,5.245,64.138,11.49,95.208,21.235c11.015,3.609,21.948,7.62,32.301,12.868c6.311,3.325,12.564,6.985,17.758,11.934
		c-0.592,0.798-1.289,1.526-2.075,2.122c-9.87,7.752-21.722,12.374-33.476,16.423c-5.774,2.348-11.856,3.804-17.856,5.439
		c-24.915,6.432-50.394,10.419-75.904,13.612c-38.495,4.766-77.236,7.363-115.968,9.049c-3.516-0.07-7.001,0.483-10.513,0.393
		c-2.975-0.082-5.934,0.288-8.901,0.385c-5.735-0.058-11.459,0.428-17.19,0.417c-4.415-0.008-8.819,0.284-13.23,0.327
		c-13.76,0.082-27.512,0.483-41.275,0.417c-6.88-0.019-13.76,0.055-20.636-0.062c-3.8-0.047-7.6,0.101-11.392-0.132
		c-9.173-0.206-18.358-0.055-27.527-0.452c-5.101-0.136-10.209-0.058-15.302-0.331c-41.676-1.082-83.329-3.158-124.908-6.284
		c-33.807-2.585-67.568-5.864-101.185-10.298c-17.248-2.289-34.461-4.882-51.585-7.974c-18.085-3.274-36.101-7.043-53.816-11.965
		c-8.328-2.34-16.606-4.898-24.669-8.044c-9.115-3.594-18.268-7.631-25.9-13.896c3.22-3.683,7.082-6.763,11.186-9.407
		c7.795-5.283,16.438-9.154,25.175-12.588c15.298-5.883,31.195-10.014,47.17-13.577c17.914-3.827,35.98-6.915,54.139-9.317
		c42.291-5.677,84.914-8.686,127.528-10.329c3.403-0.354,6.825-0.105,10.236-0.347c3.38-0.308,6.779-0.261,10.17-0.28
		c2.601,0.008,5.186-0.339,7.791-0.343C403.945,126.889,413.032,126.819,422.124,126.792z"/>
	<path fill="#A8D9F0" stroke="#A8D9F0" d="M92.791,170.088c0.962,2.087,1.308,4.431,2.574,6.378
		c1.624,2.558,3.707,4.816,6.097,6.673c7.631,6.265,16.785,10.302,25.9,13.896c8.063,3.146,16.341,5.704,24.669,8.044
		c17.715,4.921,35.731,8.69,53.816,11.965c17.124,3.091,34.337,5.685,51.585,7.974c33.617,4.435,67.377,7.713,101.185,10.298
		c41.579,3.126,83.232,5.202,124.908,6.284c5.093,0.273,10.201,0.195,15.302,0.331c9.169,0.397,18.354,0.245,27.527,0.452
		c3.792,0.234,7.592,0.086,11.392,0.132c6.876,0.117,13.756,0.043,20.636,0.062c13.764,0.066,27.516-0.335,41.275-0.417
		c4.411-0.043,8.815-0.335,13.23-0.327c5.731,0.012,11.455-0.475,17.19-0.417c0.459,4.003,0.199,8.04,0.448,12.054
		c0.265,3.944,0.261,7.9,0.284,11.852c-41.221-2.651-82.539-3.107-123.829-3.749c-21.021-0.097-42.046-0.37-63.067-0.078
		c-11.034-0.031-22.065,0.183-33.091,0.393c-29.482,0.537-58.959,1.581-88.391,3.446c-33.636,2.212-67.268,5.295-100.507,11.026
		c-15.983,2.799-31.892,6.198-47.396,11.034c-13.218,4.244-26.453,9.294-37.736,17.556c-5.054,3.746-9.648,8.309-12.607,13.911
		c-2.862,5.35-3.8,11.673-2.725,17.634c0.28,1.495,0.619,2.975,0.829,4.481c0.483,19.475,1.417,38.935,2.18,58.399
		c4.061,93.292,9.492,186.527,16.135,279.671c5.673,79.323,12.253,158.583,20.055,237.726
		c9.076,91.283,19.631,182.446,33.636,273.114c6.097,39.215,12.923,78.326,20.854,117.214
		c7.078,33.889,15.002,67.646,25.234,100.737c5.05,16.224,10.68,32.293,17.525,47.855c4.458,9.983,9.372,19.81,15.446,28.925
		c3.29,5.268,7.927,9.551,12.923,13.179c10.407,7.452,22.209,12.681,34.111,17.248c16.396,6.167,33.344,10.77,50.425,14.609
		c35.03,7.733,70.753,12.109,106.558,14.063c9.866,0.452,19.736,0.911,29.618,0.849c4.15,0.105,8.301,0.148,12.455,0.012
		c7.752,0.004,15.508-0.132,23.24-0.666c3.341-0.047,6.67-0.343,10.006-0.463c-0.931,1.978-2.652,3.38-4.018,5.038
		c-3.633,3.893-7.18,7.861-11.007,11.575c-5.361,5.276-10.516,10.777-16.158,15.761c-20.873,19.386-44.215,36.229-69.678,49.066
		c-13.429,6.599-27.395,12.128-41.785,16.236c-16.002,4.575-32.472,7.475-49.066,8.671c-20.379,1.53-40.905,0.475-61.109-2.472
		c-2.243-0.385-4.489-0.818-6.775-0.654c-6.14-2.842-12.054-6.187-17.692-9.921c-6.14-4.224-12.105-8.936-16.485-15.029
		c-3.827-5.556-7.082-11.478-10.193-17.455c-11.003-21.936-18.926-45.25-26.071-68.678c-8.418-28.247-15.337-56.919-21.547-85.724
		c-7.845-36.564-14.523-73.369-20.569-110.272c-11.992-73.583-21.516-147.545-29.91-221.619
		c-14.075-125.161-24.798-250.676-33.753-376.3c-5.568-78.719-10.396-157.485-14.492-236.293
		c-3.559-68.892-6.619-137.811-8.772-206.765c-1.008-34.508-2.005-69.016-1.865-103.54c-0.035-5.716,0.097-11.431,0.323-17.143
		C92.222,175.313,92.265,172.669,92.791,170.088z"/>
	<path fill="#F3B641" stroke="#F3B641" d="M443.912,261.496c21.021-0.292,42.046-0.019,63.067,0.078
		c41.291,0.642,82.609,1.098,123.829,3.749c31.787,2.11,63.534,5.178,94.978,10.353c17.7,2.936,35.314,6.498,52.625,11.237
		c14.418,3.975,28.664,8.71,42.268,14.967c11.112,5.178,21.897,11.334,31.129,19.471c7.522,6.627,13.935,14.78,17.408,24.264
		c2.651,7.203,3.45,15.013,2.683,22.633c-1.23,2.363-2.523,4.75-4.446,6.635c-4.925,5.19-11.466,8.332-17.852,11.322
		c-3.169,1.378-6.397,2.616-9.656,3.761c-13.359,4.754-27.181,8.052-41.042,10.964c-32.869,6.666-66.213,10.695-99.592,13.775
		c-11.276,1.032-22.567,1.919-33.862,2.706c-6.927,0.545-13.869,0.802-20.787,1.39c-10.08,0.432-20.149,1.11-30.229,1.406
		c-3.936,0.335-7.888,0.206-11.825,0.494c-3.89,0.261-7.795,0.093-11.681,0.385c-5.393,0.28-10.797,0.086-16.181,0.459
		c-5.583,0.105-11.171,0.136-16.754,0.191c-9.337,0.42-18.689,0.214-28.033,0.269c-10.259-0.008-20.519,0.031-30.774-0.062
		c-5.439-0.323-10.89-0.214-16.337-0.327c-5.33,0.051-10.645-0.424-15.971-0.374c-34.699-1.008-69.382-2.729-103.98-5.677
		c-39.227-3.317-78.388-7.974-117.058-15.438c-14.009-2.718-27.924-5.93-41.684-9.703c-15.449-4.267-30.712-9.391-45.192-16.306
		c-6.576-3.177-12.938-6.829-18.849-11.132c-4.47-3.391-8.757-7.11-12.085-11.661c-2.539-3.072-4.158-6.728-5.739-10.349
		c-0.21-1.507-0.549-2.986-0.829-4.481c-1.075-5.961-0.136-12.284,2.725-17.634c2.959-5.603,7.553-10.166,12.607-13.911
		c11.283-8.262,24.517-13.312,37.736-17.556c15.504-4.836,31.413-8.235,47.396-11.034c33.239-5.731,66.871-8.815,100.507-11.026
		c29.431-1.865,58.909-2.908,88.391-3.446C421.847,261.679,432.877,261.465,443.912,261.496z"/>
	<path fill="#EFA026" stroke="#EFA026" d="M122.288,340.978c1.581,3.621,3.2,7.277,5.739,10.349
		c3.329,4.552,7.616,8.27,12.085,11.661c5.91,4.302,12.272,7.954,18.849,11.132c14.48,6.915,29.743,12.039,45.192,16.306
		c13.76,3.773,27.675,6.985,41.684,9.703c38.67,7.464,77.831,12.121,117.058,15.438c34.598,2.947,69.281,4.668,103.98,5.677
		c5.326-0.051,10.641,0.424,15.971,0.374c5.447,0.113,10.898,0.004,16.337,0.327c10.256,0.093,20.515,0.055,30.774,0.062
		c9.344-0.055,18.697,0.152,28.033-0.269c5.583-0.055,11.17-0.086,16.754-0.191c5.385-0.374,10.789-0.179,16.181-0.459
		c3.886-0.292,7.791-0.125,11.681-0.385c3.936-0.288,7.888-0.16,11.825-0.494c10.08-0.296,20.149-0.973,30.229-1.406
		c0.755,4.439,0.339,8.943,0.837,13.401c0.253,3.204-0.093,6.424,0.245,9.621c0.444,3.921,0.113,7.865,0.288,11.797
		c0.763,7.888-0.078,15.835,0.689,23.723c0.062,19.086,0.058,38.172,0,57.258c-0.666,7.242-0.14,14.523-0.452,21.78
		c-0.631,5.583,0.047,11.217-0.553,16.8c-0.323,3.687,0.093,7.398-0.304,11.085c-0.234,2.118-0.245,4.256-0.199,6.385
		c0.066,2.866-0.483,5.704-0.405,8.57c0.039,1.869-0.004,3.746-0.206,5.611c-0.323,2.737-0.035,5.505-0.354,8.246
		c-0.374,2.947-0.058,5.934-0.424,8.885c-4.758,96.08-14.675,191.907-28.715,287.073c-5.069,34.185-10.536,68.323-17.303,102.216
		c-8.028,41.112-17.634,81.927-29.303,122.159c-11.459,39.231-24.903,77.948-41.7,115.232c-2.706,6.276-5.813,12.362-8.655,18.576
		c-16.166,32.46-34.937,63.974-59.185,91.108c-2.262,2.282-4.217,4.851-6.58,7.043c-3.309,3.181-6.374,6.615-9.851,9.621
		c-10.065,9.251-21.041,17.583-32.994,24.249c-14.768,8.32-31.21,13.908-48.159,15.216c-3.804,0.128-7.604,0.759-11.4,0.218
		c-9.617-0.358-19.164-2.161-28.275-5.252c-19.39-6.198-37.031-17.237-51.936-31.012c-2.145-2.406-4.918-4.158-6.934-6.681
		c-1.838-2.313-4.135-4.193-5.977-6.498c-12.903-14.632-23.7-31.066-32.542-48.435c-2.414-4.115-4.123-8.581-6.378-12.775
		c-1.172,0.779-2.103,1.849-2.792,3.08c-7.931-38.888-14.756-77.999-20.854-117.214c-14.005-90.668-24.56-181.831-33.636-273.114
		c-7.803-79.144-14.383-158.404-20.055-237.726c-6.642-93.145-12.074-186.379-16.135-279.671
		C123.705,379.913,122.771,360.454,122.288,340.978 M178.502,433.496c-1.145,0.444-1.947,1.444-2.628,2.422
		c-1.48,2.145-2.192,4.676-3.002,7.125c-1.114,3.387-1.748,6.903-2.426,10.4c-3.38,19.471-4.279,39.254-5.241,58.956
		c0,5.455-0.498,10.894-0.456,16.349c0.058,4.419-0.366,8.823-0.308,13.242c-0.144,18.167-0.121,36.338,0.016,54.509
		c-0.082,2.986,0.315,5.957,0.245,8.943c0.128,5.579-0.019,11.171,0.362,16.742c0.128,5.062,0.062,10.131,0.42,15.185
		c-0.023,5.334,0.378,10.657,0.467,15.991c1.39,37.639,3.473,75.25,6.362,112.811c2.862,36.33,6.354,72.633,11.552,108.711
		c2.581,17.377,5.47,34.73,9.707,51.792c2.122,8.223,4.466,16.458,8.208,24.112c1.269,2.227,2.562,4.727,4.98,5.895
		c1.624,0.837,3.59,0.121,4.781-1.125c1.846-1.939,2.924-4.439,4.061-6.821c2.305-5.735,3.905-11.723,5.241-17.747
		c1.772-7.857,3.08-15.812,4.267-23.774c2.574-17.7,4.31-35.513,5.716-53.337c1.589-21.126,2.733-42.28,3.348-63.453
		c0.397-5.447,0.101-10.921,0.53-16.364c0.086-6.627,0.171-13.254,0.187-19.88c0.421-6.607,0.14-13.234,0.218-19.849
		c-0.082-6.097,0.202-12.202-0.21-18.288c-0.012-5.326-0.086-10.653-0.144-15.975c0.062-4.034-0.382-8.048-0.327-12.078
		c0.039-5.065-0.459-10.111-0.436-15.177c-2.021-49.553-5.63-99.211-14.667-148.043c-3.189-16.458-6.958-32.846-12.393-48.723
		c-3.656-10.419-7.915-20.733-14.024-29.98c-2.862-4.423-6.483-8.289-10.411-11.774C181.43,433.325,179.857,433.013,178.502,433.496
		 M215.892,1006.282c-3.921,0.689-7.67,2.597-10.388,5.529c-3.598,3.321-5.762,7.846-7.511,12.342
		c-2.659,7.476-3.773,15.403-4.267,23.295c-0.631,12.195,0.288,24.436,2.247,36.482c2.632,15.761,6.868,31.354,13.69,45.846
		c3.068,6.226,6.522,12.393,11.385,17.416c2.811,3.006,6.054,5.809,10.03,7.117c3.356,1.242,7.187,1.289,10.497-0.144
		c3.816-1.655,6.568-4.999,8.624-8.511c1.651-2.69,2.753-5.661,3.792-8.628c2.546-7.701,3.82-15.765,4.513-23.828
		c1.526-20.624-0.074-41.509-4.91-61.627c-2.741-10.972-6.436-21.866-12.537-31.46c-3.559-5.268-8.001-10.403-14.063-12.779
		C223.5,1005.87,219.595,1005.78,215.892,1006.282z"/>
	<path fill="#EFA026" stroke="#EFA026" d="M867.452,374.883c1.923-1.884,3.216-4.271,4.446-6.635
		c-2.173,43.393-4.929,86.759-7.803,130.113c-5.548,81.962-11.961,163.862-19.141,245.692
		c-6.786,76.994-14.242,153.93-22.723,230.757c-1.931,18.113-4.135,36.194-6.109,54.299c10.563-4.423,21.286-8.5,32.258-11.813
		c23.412-7.184,47.637-11.579,72.03-13.608c10.384-0.786,20.795-1.363,31.214-1.25c8.414-0.062,16.836,0.051,25.234,0.619
		c39.048,2.344,77.878,11.12,113.515,27.41c27.453,12.514,52.917,29.404,75.055,49.899c0.082,3.146,1.125,6.144,1.717,9.212
		c4.131,19.148,6.849,38.593,8.13,58.138c0.269,5.097,0.748,10.181,0.627,15.294c0.549,5.953,0.323,11.938,0.347,17.91
		c-0.203,3.235-0.483,6.471-0.35,9.726c-0.502,9.076-1.047,18.163-2.056,27.204c-4.536,42.299-15.773,83.975-34.025,122.439
		c-2.94,5.755-5.665,11.622-8.838,17.256c-3.691,6.724-7.585,13.335-11.747,19.775c-1.339,2.211-2.885,4.291-4.135,6.557
		c-9.843,0.031-19.69,0.082-29.532-0.023c-0.28-0.008-0.845-0.023-1.125-0.031c-0.319,5.576,0.292,11.139,0.755,16.692
		c3.208,32.359,11.614,64.266,25.339,93.767c11.747,25.203,27.772,48.509,47.731,67.911c20.667,20.13,45.5,35.844,72.291,46.477
		c30.521,12.23,63.262,18.222,96.006,19.993c3.769,0.082,7.522,0.565,11.299,0.409c4.917-0.234,9.823,0.639,14.741,0.195
		c3.512-0.374,7.043-0.152,10.571-0.195c16.991-0.642,33.994-2.071,50.775-4.921c25.744-4.302,51.083-11.696,74.6-23.116
		c20.655-9.964,39.729-23.225,56.16-39.235c9.453-9.329,18.046-19.542,25.596-30.471c22.267-32.328,35.431-70.379,40.742-109.127
		c1.067-8.223,1.966-16.481,2.18-24.774c0.471-4.493,0.187-9.01,0.35-13.511c15.776,0.078,31.557,0.055,47.337,0.016
		c-0.857,13.44-2.823,26.795-5.256,40.037c-4.91,25.978-12.479,51.503-23.209,75.686c-11.852,26.904-27.726,52.146-47.602,73.856
		c-2.772,3.317-5.984,6.218-8.994,9.309c-5.766,5.938-12.05,11.346-18.44,16.602c-13.767,11.089-28.668,20.795-44.448,28.765
		c-2.492,1.515-5.241,2.503-7.814,3.851c-5.696,2.733-11.529,5.175-17.388,7.526c-12.276,4.661-24.771,8.803-37.533,11.922
		c-24.521,6.28-49.732,9.582-74.981,11.03c-3.644-0.016-7.265,0.584-10.91,0.413c-3.648-0.175-7.261,0.487-10.902,0.366
		c-5.194-0.086-10.396,0.222-15.566-0.296c-3.088-0.21-6.179,0.105-9.251-0.226c-2.901-0.323-5.821-0.167-8.714-0.491
		c-28.917-1.888-57.752-6.65-85.369-15.551c-37.269-11.731-72.232-31.304-100.842-58.013c-2.706-2.219-5.042-4.828-7.542-7.261
		c-5.019-4.863-9.613-10.131-14.176-15.411c-20.519-24.116-36.599-51.83-48.541-81.11c-13.078-32.172-21.543-66.182-25.577-100.663
		c-0.701-0.062-1.39-0.113-2.067-0.144c-0.362,4.801,0.237,9.586,0.444,14.383c1.402,19.02,4.24,37.935,8.418,56.546
		c0.109,0.588,0.214,1.195,0.319,1.818c-5.688,4.396-11.766,8.274-17.817,12.152c-26.001,16.251-54.684,28.072-84.404,35.517
		c-18.771,4.641-37.935,7.635-57.215,9.037c-4.322,0.265-8.632,0.681-12.961,0.658c-5.303,0.549-10.637,0.276-15.952,0.347
		c-4.291-0.074-8.589,0.179-12.86-0.296c-9.718-0.238-19.429-1.067-29.088-2.177c-32.733-3.796-64.991-12.342-94.963-26.114
		c-7.588-3.36-14.947-7.215-22.162-11.307c-18.743-10.575-36.268-23.279-52.212-37.724c-1.281-1.292-3.123-2.247-3.683-4.076
		c-5.906-24.475-9.477-49.518-10.641-74.666c-0.459-3.753,0.008-7.538-0.393-11.287c-0.366-3.551-0.09-7.121-0.191-10.676
		c-0.109-3.126,0.459-6.226,0.374-9.348c-0.043-2.266-0.043-4.532,0.206-6.779c1.608-34.029,7.495-67.919,18.035-100.34
		c4.676-14.577,10.283-28.859,16.878-42.673c2.881-6.432,6.249-12.627,9.633-18.806c11.171-20.157,24.506-39.126,39.85-56.327
		c2.126-2.289,4.096-4.719,6.413-6.825c2.539-2.776,4.968-5.665,7.842-8.114c2.796-2.258,5.058-5.085,7.873-7.324
		c13.401-12.187,28.018-23.015,43.483-32.441c1.335-0.864,2.873-1.464,4.026-2.585c0.763-1.764,0.666-3.753,0.977-5.618
		c9.142-71.905,16.871-143.986,23.708-216.145c12.689-135.082,22.31-270.479,29.377-405.934c-0.074-2.737,0.424-5.443,0.393-8.176
		c-0.043-2.733,0.459-5.443,0.393-8.176c-0.055-3.563,0.954-7.164,0.054-10.688c3.259-1.145,6.487-2.383,9.656-3.761
		C855.986,383.215,862.527,380.073,867.452,374.883 M813.947,1066.219c-5.112,1.028-9.882,3.247-14.721,5.124
		c-13.553,5.829-26.507,13.643-36.743,24.389c-2.967,2.901-5.576,6.16-7.986,9.535c-1.596,2.215-3.232,4.672-3.243,7.511
		c0.109,3.06,1.476,6.101,3.831,8.095c2.519,2.402,6.712,3.325,9.738,1.328c3.177-2.099,6.121-4.524,9.2-6.759
		c11.669-8.714,23.665-17.373,37.378-22.594c3.197-1.417,6.782-1.92,9.73-3.878c2.095-1.339,3.5-3.57,4.162-5.934
		c1.207-4.345,0.323-9.235-2.398-12.833C820.897,1067.43,817.362,1065.744,813.947,1066.219 M731.389,1138.253
		c-2.476,0.459-4.688,1.881-6.432,3.656c-2.071,2.301-3.43,5.116-5.217,7.627c-6.537,10.419-12.701,21.091-18.093,32.153
		c-6.58,12.833-12.261,26.114-17.19,39.663c-11.996,33.013-19.366,68.008-18.864,103.236c0.3,3.387,0.164,6.802,0.498,10.193
		c0.646,9.652,1.943,19.273,4.069,28.715c0.35,1.6,0.646,3.271,1.522,4.696c2.149,3.383,7.316,4.392,10.536,1.974
		c1.39-0.997,1.978-2.718,2.243-4.333c3.341-24.774,4.859-49.759,8.441-74.506c2.433-17.124,5.883-34.162,11.318-50.604
		c4.727-14.671,10.672-28.948,17.665-42.685c6.72-13.686,14.429-26.869,22.551-39.772c2.204-3.158,3.465-7.3,2.247-11.077
		C744.865,1140.885,737.724,1136.953,731.389,1138.253z"/>
	<path fill="#EC8D26" stroke="#EC8D26" d="M798.903,400.931c13.861-2.912,27.683-6.21,41.042-10.964
		c0.899,3.524-0.109,7.125-0.054,10.688c0.066,2.733-0.436,5.443-0.393,8.176c0.031,2.733-0.467,5.439-0.393,8.176
		c-7.067,135.455-16.688,270.852-29.377,405.934c-6.837,72.158-14.566,144.239-23.708,216.145c-0.311,1.865-0.214,3.854-0.977,5.618
		c-1.152,1.121-2.69,1.721-4.026,2.585c-15.465,9.426-30.081,20.254-43.483,32.441c-2.815,2.239-5.077,5.065-7.873,7.324
		c-2.873,2.449-5.303,5.338-7.842,8.114c-2.317,2.106-4.287,4.536-6.413,6.825c-15.344,17.202-28.68,36.171-39.85,56.327
		c-3.383,6.179-6.751,12.374-9.633,18.806c-6.596,13.814-12.202,28.095-16.878,42.673c-10.54,32.421-16.427,66.31-18.035,100.34
		c-0.249,2.246-0.249,4.512-0.206,6.779c0.086,3.123-0.483,6.222-0.374,9.348c0.101,3.555-0.175,7.125,0.191,10.676
		c0.401,3.75-0.066,7.534,0.393,11.287c1.164,25.148,4.734,50.191,10.641,74.666c0.561,1.83,2.402,2.784,3.683,4.076
		c15.944,14.445,33.469,27.15,52.212,37.724c7.215,4.092,14.573,7.947,22.162,11.307c29.972,13.771,62.23,22.318,94.963,26.114
		c9.66,1.11,19.37,1.939,29.088,2.177c4.271,0.475,8.57,0.222,12.86,0.296c5.315-0.07,10.649,0.202,15.952-0.347
		c4.33,0.023,8.64-0.393,12.961-0.658c19.281-1.402,38.445-4.396,57.215-9.037c29.719-7.444,58.403-19.265,84.404-35.517
		c6.051-3.878,12.128-7.756,17.817-12.152c-0.105-0.623-0.21-1.23-0.319-1.818c-4.178-18.611-7.016-37.526-8.418-56.546
		c-0.206-4.797-0.806-9.582-0.444-14.383c0.677,0.031,1.367,0.082,2.067,0.144c4.034,34.481,12.498,68.491,25.577,100.663
		c11.941,29.279,28.022,56.993,48.541,81.11c4.563,5.28,9.157,10.547,14.176,15.411c2.5,2.433,4.836,5.042,7.542,7.261
		c28.609,26.71,63.573,46.282,100.842,58.013c27.617,8.901,56.452,13.662,85.369,15.551c2.893,0.323,5.813,0.167,8.714,0.491
		c3.072,0.331,6.163,0.016,9.251,0.226c5.171,0.518,10.372,0.21,15.566,0.296c3.641,0.121,7.254-0.541,10.902-0.366
		c3.644,0.171,7.265-0.428,10.91-0.413c25.249-1.448,50.46-4.75,74.981-11.03c12.763-3.119,25.257-7.261,37.533-11.922
		c5.86-2.352,11.692-4.793,17.388-7.526c2.574-1.347,5.323-2.336,7.814-3.851c15.78-7.97,30.681-17.677,44.448-28.765
		c6.389-5.256,12.673-10.664,18.44-16.602c3.01-3.091,6.222-5.992,8.994-9.309c19.876-21.71,35.75-46.952,47.602-73.856
		c10.731-24.183,18.3-49.708,23.209-75.686c2.433-13.242,4.4-26.597,5.256-40.037c0.358-0.031,0.74-0.047,1.141-0.043
		c0.409,10.995-0.276,21.995-1.114,32.955c-1.417,16.111-3.823,32.141-7.273,47.945c-8.531,39.052-23.392,77.014-45.947,110.144
		c-10.326,15.193-22.232,29.322-35.579,41.949c-14.507,13.756-30.704,25.713-48.054,35.633
		c-17.68,10.127-36.533,18.163-55.969,24.245c-40.387,12.685-82.979,17.112-125.184,16.664c-4.302-0.241-8.609-0.031-12.903-0.35
		c-28.999-1.149-57.97-5.19-85.918-13.125c-37.09-10.431-72.322-28.173-101.741-53.174c-0.623-0.514-1.246-1.008-1.88-1.448
		c-23.805,17.369-50.289,31.043-78.229,40.407c-34.426,11.665-70.85,16.851-107.134,17.038
		c-37.167,0.144-74.506-4.949-109.836-16.688c-29.112-9.64-56.752-23.778-81.456-41.96c-6.335-4.63-12.432-9.563-18.385-14.663
		c-29.416-25.565-53.711-56.88-71.773-91.381c-8.862-17.167-16.582-34.944-22.672-53.287c-0.249-0.689-0.518-1.351-0.783-2.001
		c-2.009,1.487-3.325,3.656-5.116,5.365c-2.009,1.892-3.609,4.166-5.638,6.043c-4.1,3.944-7.931,8.176-12.179,11.965
		c-19.25,18.117-40.718,33.913-63.842,46.742c-2.803,1.659-5.79,2.971-8.605,4.606c-2.803,1.573-5.739,2.885-8.675,4.182
		c-1.277,0.541-2.48,1.258-3.489,2.219c-7.733,0.533-15.488,0.67-23.24,0.666c-4.154,0.136-8.305,0.094-12.455-0.012
		c-9.882,0.062-19.752-0.397-29.618-0.849c-35.805-1.954-71.528-6.331-106.558-14.063c-17.081-3.839-34.029-8.441-50.425-14.609
		c-11.902-4.567-23.704-9.796-34.111-17.248c-4.995-3.629-9.633-7.911-12.923-13.179c-6.074-9.115-10.988-18.942-15.446-28.925
		c-6.845-15.562-12.475-31.631-17.525-47.855c-10.232-33.091-18.155-66.848-25.234-100.737c0.689-1.23,1.62-2.301,2.792-3.08
		c2.254,4.193,3.964,8.659,6.378,12.775c8.842,17.369,19.639,33.803,32.542,48.435c1.842,2.305,4.139,4.185,5.977,6.498
		c2.017,2.523,4.789,4.275,6.934,6.681c14.904,13.775,32.546,24.813,51.936,31.012c9.111,3.092,18.658,4.894,28.275,5.252
		c3.796,0.541,7.596-0.09,11.4-0.218c16.948-1.308,33.391-6.895,48.159-15.216c11.953-6.666,22.929-14.998,32.994-24.249
		c3.477-3.006,6.541-6.44,9.851-9.621c2.363-2.192,4.318-4.762,6.58-7.043c24.249-27.134,43.019-58.648,59.185-91.108
		c2.842-6.214,5.949-12.3,8.655-18.576c16.797-37.284,30.241-76.001,41.7-115.232c11.669-40.232,21.274-81.047,29.303-122.159
		c6.767-33.893,12.233-68.031,17.303-102.216c14.04-95.165,23.957-190.992,28.715-287.073c0.366-2.951,0.051-5.938,0.424-8.885
		c0.319-2.741,0.031-5.509,0.354-8.246c0.203-1.865,0.245-3.742,0.206-5.611c-0.078-2.866,0.471-5.704,0.405-8.57
		c-0.047-2.13-0.035-4.267,0.199-6.385c0.397-3.687-0.019-7.398,0.304-11.085c0.6-5.583-0.078-11.217,0.553-16.8
		c0.312-7.258-0.214-14.538,0.452-21.78c0.058-19.086,0.062-38.172,0-57.258c-0.767-7.888,0.074-15.835-0.689-23.723
		c-0.175-3.932,0.156-7.877-0.288-11.797c-0.339-3.197,0.008-6.417-0.245-9.621c-0.498-4.458-0.082-8.963-0.837-13.401
		c6.919-0.588,13.861-0.845,20.787-1.39c11.295-0.786,22.586-1.674,33.862-2.706C732.69,411.626,766.034,407.596,798.903,400.931z"
		/>
	<path fill="#F3B641" stroke="#F3B641" d="M178.502,433.496c1.355-0.483,2.928-0.171,3.995,0.794
		c3.929,3.485,7.549,7.351,10.411,11.774c6.109,9.247,10.368,19.561,14.024,29.98c5.435,15.878,9.204,32.266,12.393,48.723
		c9.037,48.832,12.646,98.49,14.667,148.043c-0.023,5.065,0.475,10.111,0.436,15.177c-0.054,4.03,0.389,8.044,0.327,12.078
		c0.058,5.322,0.132,10.649,0.144,15.975c0.413,6.086,0.128,12.191,0.21,18.288c-0.078,6.615,0.202,13.242-0.218,19.849
		c-0.016,6.627-0.101,13.254-0.187,19.88c-0.428,5.443-0.132,10.917-0.53,16.364c-0.615,21.173-1.76,42.326-3.348,63.453
		c-1.406,17.825-3.142,35.637-5.716,53.337c-1.188,7.962-2.496,15.917-4.267,23.774c-1.335,6.023-2.936,12.011-5.241,17.747
		c-1.137,2.383-2.215,4.883-4.061,6.821c-1.191,1.246-3.158,1.962-4.781,1.125c-2.418-1.168-3.711-3.668-4.98-5.895
		c-3.742-7.655-6.086-15.889-8.208-24.112c-4.236-17.061-7.125-34.415-9.707-51.792c-5.198-36.077-8.69-72.38-11.552-108.711
		c-2.889-37.561-4.972-75.172-6.362-112.811c-0.09-5.334-0.491-10.657-0.467-15.991c-0.358-5.054-0.292-10.123-0.42-15.185
		c-0.382-5.572-0.234-11.163-0.362-16.742c0.07-2.986-0.327-5.957-0.245-8.943c-0.136-18.171-0.16-36.342-0.016-54.509
		c-0.058-4.419,0.366-8.823,0.308-13.242c-0.043-5.455,0.456-10.894,0.456-16.349c0.962-19.701,1.861-39.484,5.241-58.956
		c0.677-3.496,1.312-7.012,2.426-10.4c0.81-2.449,1.522-4.98,3.002-7.125C176.556,434.94,177.358,433.94,178.502,433.496z"/>
	<path fill="#99C33F" stroke="#99C33F" d="M1041.566,854.256c16.146-5.84,33.457-8.297,50.596-7.561
		c17.147,0.677,34.08,4.361,50.269,9.948c14.239,4.925,27.979,11.244,41.143,18.553l-0.144,0.37
		c-2.71,2.036-4.633,4.863-7.059,7.191c-9.952,9.921-20.928,18.813-32.729,26.445c-24.572,15.878-52.189,26.569-80.506,33.582
		c-17.443,4.256-35.205,7.184-53.072,8.924c-12.35,1.156-24.747,1.927-37.148,1.873c-1.265-13.88-2.542-27.761-4.154-41.606
		c10.345-14.133,22.345-27.165,36.354-37.736C1016.184,865.824,1028.464,858.948,1041.566,854.256z"/>
	<path fill="#86AA35" stroke="#86AA35" d="M1176.371,882.757c2.426-2.328,4.349-5.155,7.059-7.191
		c-0.962,4.221-2.383,8.32-3.8,12.409c-5.097,14.106-11.883,27.625-20.367,40.006c-8.235,11.996-18.163,22.906-29.746,31.748
		c-11.642,8.955-24.989,15.675-39.118,19.682c-17.583,5.023-36.178,5.829-54.279,3.718c-18.011-2.067-35.61-6.911-52.566-13.238
		c-3.208-1.141-6.304-2.585-9.539-3.633c-0.479-4.217-0.79-8.449-1.098-12.677c12.401,0.055,24.798-0.716,37.148-1.873
		c17.867-1.74,35.63-4.668,53.072-8.924c28.318-7.012,55.934-17.704,80.506-33.582
		C1155.443,901.57,1166.419,892.677,1176.371,882.757z"/>
	<path fill="#713C28" stroke="#713C28" d="M941.487,879.533c6.584-1.589,13.351,1.289,18.537,5.241
		c2.32,1.962,4.999,4.069,5.607,7.234c1.55,6.565,2.243,13.289,3.13,19.966c1.612,13.845,2.889,27.726,4.154,41.606
		c0.308,4.228,0.619,8.461,1.098,12.677c0.88,12.272,1.892,24.537,2.846,36.802c-8.398-0.568-16.82-0.681-25.234-0.619
		c-10.419-0.113-20.83,0.463-31.214,1.25c0.128-9.2,0.67-18.385,1.055-27.578c0.969-19.806,2.095-39.624,4.248-59.345
		c0.958-8.079,1.881-16.217,4.049-24.081C931.415,886.896,935.363,881.106,941.487,879.533z"/>
	<path fill="#F3B641" stroke="#F3B641" d="M215.892,1006.282c3.703-0.502,7.608-0.413,11.1,1.051
		c6.062,2.375,10.505,7.511,14.063,12.779c6.101,9.594,9.796,20.488,12.537,31.46c4.836,20.118,6.436,41.003,4.91,61.627
		c-0.693,8.063-1.966,16.127-4.513,23.828c-1.04,2.967-2.141,5.938-3.792,8.628c-2.056,3.512-4.808,6.856-8.624,8.511
		c-3.309,1.433-7.141,1.386-10.497,0.144c-3.975-1.308-7.219-4.112-10.03-7.117c-4.863-5.023-8.317-11.19-11.385-17.416
		c-6.821-14.492-11.058-30.085-13.69-45.846c-1.958-12.047-2.877-24.288-2.247-36.482c0.494-7.892,1.608-15.819,4.267-23.295
		c1.748-4.497,3.913-9.021,7.511-12.342C208.222,1008.879,211.971,1006.972,215.892,1006.282z"/>
	<path fill="#F3B641" stroke="#F3B641" d="M813.947,1066.219c3.415-0.475,6.95,1.211,8.947,3.983
		c2.722,3.598,3.605,8.488,2.398,12.833c-0.662,2.363-2.068,4.594-4.162,5.934c-2.947,1.958-6.533,2.461-9.73,3.878
		c-13.713,5.221-25.709,13.88-37.378,22.594c-3.08,2.235-6.023,4.661-9.2,6.759c-3.025,1.997-7.219,1.075-9.738-1.328
		c-2.356-1.994-3.722-5.034-3.831-8.095c0.012-2.838,1.647-5.295,3.243-7.511c2.41-3.376,5.019-6.635,7.986-9.535
		c10.236-10.746,23.19-18.56,36.743-24.389C804.066,1069.466,808.835,1067.247,813.947,1066.219z"/>
	<path fill="#EC8D26" stroke="#EC8D26" d="M1165.43,1080.368c28.123,25.845,50.873,57.297,67.794,91.486
		c14.959,30.202,25.452,62.553,31.713,95.652c7.203,38.293,8.87,77.641,4.851,116.397c-51.562-0.004-103.124,0.039-154.689-0.023
		c1.25-2.266,2.796-4.345,4.135-6.557c4.162-6.44,8.056-13.051,11.747-19.775c3.173-5.634,5.899-11.501,8.838-17.256
		c18.253-38.464,29.489-80.14,34.025-122.439c1.009-9.041,1.554-18.128,2.056-27.204c-0.132-3.255,0.148-6.49,0.35-9.726
		c-0.023-5.973,0.202-11.957-0.347-17.91c0.121-5.112-0.358-10.197-0.627-15.294c-1.281-19.546-3.999-38.99-8.13-58.138
		C1166.556,1086.512,1165.512,1083.514,1165.43,1080.368z"/>
	<path fill="#F3B641" stroke="#F3B641" d="M731.389,1138.253c6.335-1.3,13.475,2.632,15.294,8.936
		c1.219,3.777-0.043,7.919-2.247,11.077c-8.122,12.903-15.831,26.087-22.551,39.772c-6.993,13.736-12.938,28.014-17.665,42.685
		c-5.435,16.442-8.885,33.48-11.318,50.604c-3.582,24.747-5.1,49.732-8.441,74.506c-0.265,1.616-0.853,3.337-2.243,4.333
		c-3.22,2.418-8.387,1.409-10.536-1.974c-0.876-1.425-1.172-3.095-1.522-4.696c-2.126-9.442-3.422-19.063-4.069-28.715
		c-0.335-3.391-0.199-6.806-0.498-10.193c-0.502-35.229,6.868-70.223,18.864-103.236c4.929-13.549,10.61-26.83,17.19-39.663
		c5.393-11.061,11.556-21.734,18.093-32.153c1.787-2.511,3.146-5.326,5.217-7.627
		C726.701,1140.134,728.913,1138.713,731.389,1138.253z"/>
	<path fill="#F5C854" stroke="#F5C854" d="M1084.441,1383.825c0.28,0.008,0.845,0.023,1.125,0.031
		c3.325,31.853,11.665,63.25,25.183,92.311c2.807,5.708,5.579,11.447,8.741,16.976c14.196,25.16,33.033,47.805,55.845,65.594
		c22.006,17.35,47.466,30.07,74.191,38.351c27.438,8.597,56.148,12.595,84.828,13.651c7.277,0.043,14.558,0.557,21.839,0.144
		c29.774-0.448,59.641-3.855,88.398-11.758c26.507-7.273,52.095-18.498,74.557-34.442c9.461-6.603,18.264-14.118,26.507-22.181
		c17.626-17.614,32.009-38.41,42.615-60.945c11.949-25.405,19.46-52.808,22.952-80.639c0.65-5.572,1.293-11.155,1.511-16.762
		c-31.273-0.136-62.549-0.02-93.822-0.058c-79.817,0-159.634,0-239.451,0.004c-3.224-0.129-6.471,0.257-9.672-0.199
		c37.226-0.093,74.456-0.016,111.682-0.039c43.864-0.004,87.733-0.004,131.601,0c33.5,0.035,67.007-0.078,100.507,0.054
		c-0.164,4.501,0.121,9.017-0.35,13.511c-0.214,8.293-1.114,16.551-2.18,24.774c-5.311,38.748-18.475,76.8-40.742,109.127
		c-7.55,10.929-16.143,21.142-25.596,30.471c-16.431,16.01-35.505,29.271-56.16,39.235c-23.517,11.42-48.856,18.813-74.6,23.116
		c-16.781,2.85-33.784,4.279-50.775,4.921c-3.528,0.043-7.059-0.179-10.571,0.195c-4.918,0.444-9.823-0.428-14.741-0.195
		c-3.777,0.156-7.53-0.327-11.299-0.409c-32.745-1.772-65.485-7.764-96.006-19.993c-26.791-10.633-51.624-26.347-72.291-46.477
		c-19.958-19.401-35.984-42.708-47.731-67.911c-13.725-29.501-22.131-61.409-25.339-93.767
		C1084.734,1394.964,1084.122,1389.4,1084.441,1383.825z"/>
	<path fill="#F4EC72" stroke="#F4EC72" d="M1085.567,1383.856c9.843,0.105,19.69,0.055,29.532,0.023
		c51.566,0.062,103.127,0.02,154.689,0.023c3.2,0.456,6.448,0.07,9.672,0.199c79.817-0.004,159.634-0.004,239.451-0.004
		c31.273,0.039,62.549-0.078,93.822,0.058c-0.218,5.607-0.861,11.19-1.511,16.762c-3.492,27.831-11.003,55.233-22.952,80.639
		c-10.606,22.536-24.989,43.331-42.615,60.945c-8.243,8.063-17.046,15.578-26.507,22.181c-22.462,15.944-48.05,27.169-74.557,34.442
		c-28.758,7.904-58.625,11.311-88.398,11.758c-7.281,0.413-14.562-0.101-21.839-0.144c-28.68-1.055-57.39-5.054-84.828-13.651
		c-26.725-8.281-52.185-21.002-74.191-38.351c-22.812-17.789-41.649-40.434-55.845-65.594c-3.161-5.529-5.934-11.268-8.741-16.976
		C1097.232,1447.106,1088.892,1415.709,1085.567,1383.856 M1148.24,1403.919c-7.791,0.95-15.644,2.048-23.081,4.653
		c-2.819,1.094-5.79,2.324-7.752,4.727c-2.371,3.103-3.15,7.133-3.029,10.972c0.179,4.898,1.542,9.668,3.282,14.223
		c2.562,6.448,5.914,12.557,9.644,18.397c7.764,12.031,16.952,23.147,27.29,33.056c4.369,3.991,8.85,7.97,14.056,10.844
		c1.476,0.88,3.22,1.18,4.925,0.985c3.629-0.385,7.036-1.83,10.326-3.333c6.428-3.064,12.521-6.786,18.475-10.688
		c12.354-8.118,24.159-17.042,35.809-26.129c11.681-9.165,23.155-18.584,34.508-28.15c10.781-9.169,21.566-18.338,32.059-27.835
		c-13.078-1.117-26.203-1.701-39.313-2.406c-20.624-0.915-41.256-1.705-61.903-1.624
		C1185.085,1401.532,1166.602,1401.949,1148.24,1403.919 M1458.168,1402.467c-19.102,0.802-38.215,1.635-57.274,3.161
		c1.814,1.807,3.804,3.434,5.716,5.151c10.431,9.197,20.986,18.257,31.654,27.181c17.33,14.429,34.89,28.617,53.24,41.742
		c9.695,6.849,19.542,13.616,30.276,18.759c3.52,1.62,7.219,3.2,11.151,3.36c1.729,0.125,3.352-0.604,4.813-1.46
		c3.091-1.76,5.871-3.991,8.608-6.249c8.469-7.222,15.932-15.547,22.789-24.296c7.678-10.014,14.78-20.678,19.265-32.538
		c2.235-6.167,3.835-13.012,2.048-19.495c-0.794-2.648-2.27-5.225-4.711-6.65c-3.407-2.196-7.335-3.364-11.229-4.333
		c-7.39-1.791-14.959-2.683-22.508-3.434c-23.824-2.071-47.766-1.923-71.652-1.561
		C1472.956,1401.914,1465.566,1402.303,1458.168,1402.467 M1331.006,1408.451c-7.11,4.548-14.157,9.189-21.169,13.888
		c-24.366,16.38-48.361,33.356-71.29,51.714c-11.688,9.512-23.252,19.269-33.574,30.276c-4.244,4.517-8.285,9.271-11.564,14.546
		c-2.048,3.457-4.01,7.18-4.213,11.28c-0.148,2.348,0.674,4.629,1.826,6.65c2.11,3.827,5.19,6.997,8.328,10.002
		c4.4,4.096,9.224,7.721,14.153,11.159c12.05,8.262,24.942,15.235,38.18,21.395c13.549,6.218,27.531,11.618,42.023,15.193
		c7.324,1.729,14.807,3.06,22.357,2.955c3.344-0.214,6.962-0.238,9.839-2.208c4.47-2.986,7.032-7.958,9.021-12.798
		c2.628-6.658,4.182-13.682,5.389-20.721c2.414-14.433,3.177-29.081,3.648-43.685c-0.105-5.326,0.257-10.649,0.016-15.967
		c0.086-10.91-0.479-21.808-1.028-32.698c-1.043-17.272-2.43-34.559-5.256-51.644c-0.771-3.913-1.277-7.966-2.928-11.622
		C1333.424,1406.781,1332.225,1407.638,1331.006,1408.451 M1369.45,1410.32c-0.962,3.765-1.561,7.608-2.169,11.447
		c-2.511,16.808-3.851,33.776-4.789,50.74c-0.763,15.181-1.106,30.389-0.783,45.589c0.362,14.974,1.23,29.988,3.785,44.768
		c1.363,7.565,3.08,15.154,6.292,22.177c2.278,4.836,5.533,9.964,10.921,11.642c5.84,1.382,11.93,0.822,17.825,0.066
		c12.448-1.814,24.506-5.646,36.225-10.123c12.487-4.82,24.638-10.501,36.346-16.987c10.96-6.101,21.656-12.825,31.175-21.033
		c4.337-3.851,8.628-8.071,11.116-13.394c1.581-3.255,1.11-7.071-0.148-10.341c-1.775-4.407-4.423-8.398-7.339-12.117
		c-3.897-5.019-8.281-9.629-12.786-14.091c-8.737-8.574-18.066-16.52-27.574-24.222c-19.25-15.481-39.317-29.918-59.668-43.899
		c-12.21-8.297-24.436-16.59-36.969-24.393C1370.101,1407.404,1369.82,1408.891,1369.45,1410.32z"/>
	<path fill="#EFA026" stroke="#EFA026" d="M1148.24,1403.919c18.362-1.97,36.844-2.387,55.296-2.309
		c20.647-0.082,41.279,0.709,61.903,1.624c13.109,0.705,26.234,1.289,39.313,2.406c-10.493,9.496-21.278,18.666-32.059,27.835
		c-11.354,9.566-22.828,18.985-34.508,28.15c-11.649,9.088-23.454,18.011-35.809,26.129c-5.953,3.901-12.047,7.623-18.475,10.688
		c-3.29,1.503-6.697,2.947-10.326,3.333c-1.705,0.195-3.45-0.105-4.925-0.985c-5.206-2.874-9.687-6.853-14.056-10.844
		c-10.337-9.909-19.526-21.025-27.29-33.056c-3.73-5.84-7.082-11.949-9.644-18.397c-1.74-4.555-3.103-9.325-3.282-14.223
		c-0.121-3.839,0.658-7.869,3.029-10.972c1.962-2.402,4.933-3.633,7.752-4.727C1132.596,1405.967,1140.45,1404.869,1148.24,1403.919
		 M1232.889,1417.418c-2.768,0.44-5.572,0.892-8.184,1.939c-2.947,1.149-4.407,5.295-2.305,7.838
		c2.749,2.936,6.985,3.43,10.758,3.991c4.069,0.584,8.219-1.752,10.115-5.342c0.818-1.892,0.448-4.205-0.954-5.716
		C1239.987,1417.508,1236.226,1416.756,1232.889,1417.418 M1161.638,1426.35c-4.337,0.479-8.675,1.884-12.12,4.625
		c-2.044,1.347-3.862,3.329-4.295,5.813c-0.054,2.749,1.705,5.338,4.069,6.658c3.567,1.682,7.635,1.094,11.338,0.23
		c3.816-0.627,7.401-2.85,9.422-6.183c1.258-2.032,2.967-4.345,2.184-6.864c-0.475-1.838-2.149-3.01-3.878-3.528
		C1166.19,1426.459,1163.896,1426.023,1161.638,1426.35 M1200.573,1447.772c-5.287,0.779-10.649,3.107-14.009,7.398
		c-1.596,2.986-0.206,7.604,3.325,8.445c5.233,1.156,10.766-0.347,15.266-3.084c3.01-2.009,5.603-5.829,4.349-9.555
		C1207.854,1447.823,1203.743,1447.359,1200.573,1447.772z"/>
	<path fill="#EFA026" stroke="#EFA026" d="M1458.168,1402.467c7.398-0.163,14.787-0.553,22.185-0.662
		c23.887-0.362,47.828-0.51,71.652,1.561c7.549,0.751,15.119,1.643,22.508,3.434c3.894,0.969,7.822,2.138,11.229,4.333
		c2.441,1.425,3.917,4.003,4.711,6.65c1.787,6.483,0.187,13.328-2.048,19.495c-4.485,11.86-11.587,22.524-19.265,32.538
		c-6.856,8.749-14.32,17.073-22.789,24.296c-2.737,2.258-5.517,4.489-8.608,6.249c-1.46,0.857-3.084,1.585-4.813,1.46
		c-3.932-0.16-7.631-1.74-11.151-3.36c-10.734-5.143-20.581-11.91-30.276-18.759c-18.35-13.125-35.91-27.313-53.24-41.742
		c-10.668-8.924-21.224-17.984-31.654-27.181c-1.912-1.717-3.901-3.344-5.716-5.151
		C1419.953,1404.102,1439.067,1403.269,1458.168,1402.467 M1468.046,1417.418c-2.472,0.643-5.015,2.079-5.852,4.649
		c-0.907,1.756-0.105,3.827,1.152,5.19c0.989,1.067,1.955,2.239,3.267,2.947c1.927,0.853,4.096,1.265,6.202,0.911
		c3.594-0.483,7.514-1.16,10.209-3.812c2.301-2.297,1.059-6.557-1.756-7.822c-2.052-0.903-4.263-1.332-6.448-1.733
		C1472.59,1417.352,1470.285,1416.959,1468.046,1417.418 M1540.473,1426.358c-2.574,0.405-5.638,1.016-6.899,3.594
		c-0.997,2.675,0.409,5.486,2.005,7.616c2.001,3.025,5.171,5.385,8.792,6c3.166,0.611,6.456,1.425,9.675,0.654
		c2.566-0.635,5.104-2.317,5.973-4.921c0.385-1.888,0.514-4.232-1.09-5.607C1554.447,1428.464,1547.263,1425.836,1540.473,1426.358
		 M1501.927,1447.752c-2.258,0.16-4.692,1.071-5.735,3.228c-0.767,2.177-0.206,4.661,1.192,6.471
		c1.526,2.601,4.372,3.94,7.067,5.015c3.827,1.445,8.2,2.177,12.144,0.74c1.962-0.662,2.722-2.858,3.068-4.707
		c0.401-2.106-0.864-4.045-2.398-5.338C1513.036,1449.621,1507.468,1447.433,1501.927,1447.752z"/>
	<path fill="#EFA026" stroke="#EFA026" d="M1331.006,1408.451c1.219-0.814,2.418-1.67,3.757-2.286
		c1.651,3.656,2.157,7.709,2.928,11.622c2.827,17.085,4.213,34.372,5.256,51.644c0.549,10.89,1.114,21.788,1.028,32.698
		c0.241,5.318-0.121,10.641-0.016,15.967c-0.471,14.604-1.234,29.252-3.648,43.685c-1.207,7.04-2.76,14.063-5.389,20.721
		c-1.99,4.84-4.552,9.812-9.021,12.798c-2.877,1.97-6.494,1.993-9.839,2.208c-7.55,0.105-15.033-1.226-22.357-2.955
		c-14.492-3.574-28.473-8.974-42.023-15.193c-13.238-6.16-26.129-13.133-38.18-21.395c-4.929-3.438-9.753-7.063-14.153-11.159
		c-3.138-3.006-6.218-6.175-8.328-10.002c-1.152-2.021-1.974-4.302-1.826-6.65c0.202-4.1,2.165-7.822,4.213-11.28
		c3.278-5.276,7.32-10.03,11.564-14.546c10.322-11.007,21.885-20.764,33.574-30.276c22.929-18.358,46.925-35.334,71.29-51.714
		C1316.849,1417.64,1323.896,1412.999,1331.006,1408.451 M1321.642,1453.994c-1.374,0.366-1.923,1.807-2.488,2.959
		c-1.651,3.633-2.519,7.561-3.317,11.455c-0.794,3.979-1.059,8.34,0.864,12.058c0.818,1.518,1.651,3.348,3.387,4.006
		c2.126,0.627,4.135-0.938,5.381-2.523c2.967-3.753,3.563-8.686,3.765-13.304c-0.276-3.01-0.413-6.039-1.071-8.99
		c-0.397-1.736-0.537-3.792-2.067-4.945C1324.893,1453.628,1323.114,1453.628,1321.642,1453.994 M1295.964,1456.758
		c-2.344,0.981-4.715,2.126-6.49,3.991c-1.736,1.776-3.578,3.45-5.1,5.42c-2.733,2.92-5.502,6.004-6.923,9.808
		c-1.246,2.869,1.783,6.436,4.816,5.626c3.134-0.864,5.537-3.247,7.822-5.439c4.567-3.925,9.317-8.239,11.159-14.18
		c0.654-1.503,0.008-3.22-1.036-4.357C1299.145,1456.47,1297.382,1456.279,1295.964,1456.758 M1289.334,1496.441
		c-1.865,0.459-3.418,1.705-4.84,2.936c-3.103,3.08-5.202,6.997-6.919,10.976c-1.406,3.259-1.145,7.487,1.561,10.014
		c2.632,2.92,7.624,2.605,10.345-0.039c4.061-3.321,7.437-7.612,9.204-12.584c0.6-2.811,0.405-5.844-0.794-8.468
		c-0.635-1.81-2.515-3.029-4.4-3.01C1292.098,1496.211,1290.697,1496.18,1289.334,1496.441 M1248.456,1517.847
		c-1.324,0.253-2.578,0.732-3.819,1.219c-5.673,2.219-9.582,7.273-12.541,12.389c-0.884,1.666-1.219,3.73-0.28,5.463
		c1.355,3.473,5.704,5.163,9.111,3.757c4.232-1.92,8.219-4.719,10.82-8.64c2.336-3.352,4.111-7.425,3.559-11.595
		c-0.093-1.293-1.09-2.472-2.379-2.651C1251.442,1517.544,1249.92,1517.586,1248.456,1517.847 M1307.637,1532.662
		c-6.23,1.729-11.427,6.234-14.799,11.665c-1.877,2.71-3.029,5.844-3.812,9.029c-0.798,3.333,0.424,7.133,3.107,9.302
		c1.904,1.561,4.676,1.215,6.751,0.171c6.397-3.126,11.829-8.612,14.149-15.422c1.055-3.45,2.698-6.903,2.208-10.606
		c-0.097-1.787-1.441-3.232-2.932-4.045C1310.81,1532.234,1309.16,1532.374,1307.637,1532.662z"/>
	<path fill="#EFA026" stroke="#EFA026" d="M1369.45,1410.32c0.37-1.429,0.65-2.916,1.46-4.17
		c12.533,7.803,24.759,16.096,36.969,24.393c20.351,13.982,40.419,28.419,59.668,43.899c9.508,7.701,18.837,15.648,27.574,24.222
		c4.505,4.462,8.889,9.072,12.786,14.091c2.916,3.718,5.564,7.709,7.339,12.117c1.258,3.271,1.729,7.086,0.148,10.341
		c-2.488,5.322-6.779,9.543-11.116,13.394c-9.52,8.207-20.215,14.932-31.175,21.033c-11.708,6.487-23.859,12.167-36.346,16.987
		c-11.719,4.478-23.778,8.309-36.225,10.123c-5.895,0.755-11.984,1.316-17.825-0.066c-5.389-1.678-8.644-6.806-10.921-11.642
		c-3.212-7.024-4.929-14.612-6.292-22.177c-2.554-14.78-3.422-29.793-3.785-44.768c-0.323-15.2,0.02-30.408,0.783-45.589
		c0.938-16.964,2.278-33.932,4.789-50.74C1367.889,1417.928,1368.489,1414.085,1369.45,1410.32 M1380.827,1453.994
		c-1.791,0.662-2.877,2.449-3.103,4.291c-0.88,4.711-1.76,9.543-1.075,14.348c0.436,3.309,1.273,6.782,3.559,9.341
		c0.993,1.106,2.091,2.367,3.672,2.578c1.316,0.3,2.749-0.304,3.492-1.429c1.931-3.025,3.31-6.564,3.025-10.209
		c-0.526-5.657-1.943-11.229-4.139-16.466c-0.417-0.934-0.903-1.974-1.912-2.348
		C1383.222,1453.686,1381.96,1453.686,1380.827,1453.994 M1406.91,1456.711c-1.682,0.712-3.274,2.507-2.764,4.454
		c0.981,3.8,3.181,7.238,6.031,9.921c2.188,2.091,4.193,4.384,6.58,6.276c2.099,1.885,4.369,3.917,7.277,4.345
		c1.888,0.023,3.929-1.367,4.151-3.337c0.113-1.184,0.125-2.433-0.393-3.508c-2.141-4.369-5.786-7.682-8.854-11.369
		c-2.048-2.134-4.123-4.349-6.825-5.642C1410.516,1457.07,1408.709,1456.151,1406.91,1456.711 M1410.815,1496.456
		c-1.355,0.401-2.628,1.328-3.107,2.702c-0.899,2.426-1.698,5.089-1.004,7.682c0.771,3.508,2.831,6.588,5.159,9.274
		c1.962,2.449,4.302,4.75,7.238,5.992c2.095,0.6,4.575,0.459,6.385-0.872c2.979-2.056,4.193-6.241,2.944-9.605
		c-1.803-5.369-4.855-10.501-9.411-13.958C1416.687,1495.907,1413.548,1496.071,1410.815,1496.456 M1452.468,1517.859
		c-1.557,0.459-2.391,2.215-2.461,3.742c0.152,3.418,1.557,6.646,3.274,9.566c1.234,1.939,2.62,3.847,4.489,5.237
		c1.857,1.417,3.82,2.706,5.871,3.851c2.967,1.647,7.008,0.966,9.228-1.624c1.966-2.332,1.67-5.949,0-8.359
		c-2.165-3.321-4.54-6.631-7.807-8.947c-1.884-1.659-4.326-2.34-6.642-3.111C1456.517,1517.544,1454.426,1517.458,1452.468,1517.859
		 M1393.684,1532.658c-2.177,0.502-3.438,2.749-3.306,4.89c-0.276,3.461,1.211,6.67,2.231,9.893c1.109,2.932,2.605,5.786,4.723,8.13
		c1.826,1.807,3.535,3.796,5.77,5.135c2.441,1.596,5.198,3.512,8.285,2.873c2.768-0.744,4.563-3.411,5.233-6.07
		c0.713-2.492-0.199-5.034-0.985-7.382c-1.304-3.181-2.815-6.339-5.097-8.936c-2.55-2.815-5.342-5.529-8.815-7.152
		C1399.263,1532.795,1396.425,1531.969,1393.684,1532.658z"/>
	<path fill="#EC8D26" stroke="#EC8D26" d="M1232.889,1417.418c3.337-0.662,7.098,0.09,9.43,2.71
		c1.402,1.511,1.771,3.823,0.954,5.716c-1.896,3.59-6.047,5.926-10.115,5.342c-3.773-0.561-8.009-1.055-10.758-3.991
		c-2.102-2.542-0.642-6.689,2.305-7.838C1227.318,1418.31,1230.121,1417.858,1232.889,1417.418z"/>
	<path fill="#EC8D26" stroke="#EC8D26" d="M1468.046,1417.418c2.239-0.459,4.544-0.066,6.775,0.331
		c2.184,0.401,4.396,0.829,6.448,1.733c2.815,1.265,4.057,5.525,1.756,7.822c-2.694,2.651-6.615,3.329-10.209,3.812
		c-2.106,0.354-4.275-0.058-6.202-0.911c-1.312-0.709-2.278-1.881-3.267-2.947c-1.258-1.363-2.06-3.434-1.152-5.19
		C1463.031,1419.497,1465.574,1418.061,1468.046,1417.418z"/>
	<path fill="#EC8D26" stroke="#EC8D26" d="M1161.638,1426.35c2.258-0.327,4.552,0.109,6.72,0.751
		c1.729,0.518,3.403,1.69,3.878,3.528c0.783,2.519-0.927,4.832-2.184,6.864c-2.021,3.333-5.607,5.556-9.422,6.183
		c-3.703,0.864-7.771,1.452-11.338-0.23c-2.363-1.32-4.123-3.909-4.069-6.658c0.432-2.484,2.25-4.466,4.295-5.813
		C1152.963,1428.234,1157.301,1426.829,1161.638,1426.35z"/>
	<path fill="#EC8D26" stroke="#EC8D26" d="M1540.473,1426.358c6.79-0.522,13.974,2.106,18.455,7.335
		c1.604,1.375,1.476,3.718,1.09,5.607c-0.868,2.605-3.407,4.287-5.973,4.921c-3.22,0.771-6.51-0.043-9.675-0.654
		c-3.621-0.615-6.79-2.975-8.792-6c-1.596-2.13-3.002-4.941-2.005-7.616C1534.835,1427.374,1537.9,1426.762,1540.473,1426.358z"/>
	<path fill="#EC8D26" stroke="#EC8D26" d="M1200.573,1447.772c3.169-0.413,7.281,0.051,8.932,3.204
		c1.254,3.726-1.339,7.546-4.349,9.555c-4.501,2.737-10.034,4.24-15.266,3.084c-3.531-0.841-4.921-5.459-3.325-8.445
		C1189.925,1450.879,1195.286,1448.551,1200.573,1447.772z"/>
	<path fill="#EC8D26" stroke="#EC8D26" d="M1501.927,1447.752c5.541-0.319,11.108,1.869,15.337,5.408
		c1.534,1.293,2.799,3.232,2.398,5.338c-0.346,1.849-1.106,4.045-3.068,4.707c-3.944,1.437-8.317,0.705-12.144-0.74
		c-2.694-1.074-5.541-2.414-7.067-5.015c-1.398-1.81-1.958-4.295-1.192-6.471
		C1497.236,1448.823,1499.669,1447.912,1501.927,1447.752z"/>
	<path fill="#EC8D26" stroke="#EC8D26" d="M1321.642,1453.994c1.472-0.366,3.251-0.366,4.454,0.716
		c1.53,1.152,1.67,3.208,2.067,4.945c0.658,2.951,0.794,5.981,1.071,8.99c-0.203,4.618-0.798,9.551-3.765,13.304
		c-1.246,1.585-3.255,3.15-5.381,2.523c-1.737-0.658-2.57-2.488-3.387-4.006c-1.923-3.718-1.659-8.079-0.864-12.058
		c0.798-3.894,1.667-7.822,3.317-11.455C1319.719,1455.8,1320.268,1454.36,1321.642,1453.994z"/>
	<path fill="#EC8D26" stroke="#EC8D26" d="M1380.827,1453.994c1.133-0.308,2.395-0.308,3.52,0.105
		c1.009,0.374,1.495,1.413,1.912,2.348c2.196,5.237,3.613,10.808,4.139,16.466c0.284,3.644-1.094,7.184-3.025,10.209
		c-0.744,1.125-2.176,1.729-3.492,1.429c-1.581-0.21-2.679-1.472-3.672-2.578c-2.286-2.558-3.123-6.031-3.559-9.341
		c-0.685-4.805,0.195-9.636,1.075-14.348C1377.95,1456.443,1379.036,1454.656,1380.827,1453.994z"/>
	<path fill="#EC8D26" stroke="#EC8D26" d="M1295.964,1456.758c1.417-0.479,3.181-0.288,4.248,0.868
		c1.043,1.137,1.69,2.854,1.036,4.357c-1.842,5.942-6.592,10.256-11.159,14.18c-2.286,2.192-4.688,4.575-7.822,5.439
		c-3.033,0.81-6.062-2.757-4.816-5.626c1.421-3.804,4.189-6.888,6.923-9.808c1.522-1.97,3.364-3.644,5.1-5.42
		C1291.249,1458.884,1293.62,1457.739,1295.964,1456.758z"/>
	<path fill="#EC8D26" stroke="#EC8D26" d="M1406.91,1456.711c1.799-0.561,3.605,0.358,5.202,1.141
		c2.702,1.293,4.777,3.508,6.825,5.642c3.068,3.687,6.712,7,8.854,11.369c0.518,1.075,0.506,2.324,0.393,3.508
		c-0.222,1.97-2.262,3.36-4.151,3.337c-2.908-0.428-5.178-2.461-7.277-4.345c-2.387-1.892-4.392-4.186-6.58-6.276
		c-2.85-2.683-5.05-6.121-6.031-9.921C1403.636,1459.219,1405.228,1457.424,1406.91,1456.711z"/>
	<path fill="#EFA026" stroke="#EFA026" d="M645.109,1468.158c1.791-1.709,3.107-3.878,5.116-5.365
		c0.265,0.65,0.533,1.312,0.783,2.001c6.089,18.342,13.81,36.12,22.672,53.287c-13.993,6.089-28.617,10.625-43.432,14.227
		c-25.436,6.125-51.476,9.434-77.559,11.143c-3.337,0.121-6.666,0.417-10.006,0.463c1.008-0.962,2.211-1.678,3.489-2.219
		c2.936-1.297,5.871-2.609,8.675-4.182c2.815-1.635,5.801-2.947,8.605-4.606c23.124-12.829,44.592-28.625,63.842-46.742
		c4.248-3.788,8.079-8.021,12.179-11.965C641.5,1472.324,643.1,1470.051,645.109,1468.158z"/>
	<path fill="#EC8D26" stroke="#EC8D26" d="M1289.334,1496.441c1.363-0.261,2.764-0.23,4.158-0.175c1.884-0.02,3.765,1.199,4.4,3.01
		c1.199,2.624,1.394,5.657,0.794,8.468c-1.768,4.972-5.143,9.263-9.204,12.584c-2.722,2.644-7.713,2.959-10.345,0.039
		c-2.706-2.527-2.967-6.755-1.561-10.014c1.717-3.979,3.816-7.896,6.919-10.976
		C1285.915,1498.146,1287.469,1496.9,1289.334,1496.441z"/>
	<path fill="#EC8D26" stroke="#EC8D26" d="M1410.815,1496.456c2.733-0.385,5.871-0.549,8.203,1.215
		c4.555,3.457,7.608,8.589,9.411,13.958c1.25,3.364,0.035,7.55-2.944,9.605c-1.81,1.332-4.291,1.472-6.385,0.872
		c-2.936-1.242-5.276-3.543-7.238-5.992c-2.328-2.687-4.388-5.766-5.159-9.274c-0.693-2.593,0.105-5.256,1.004-7.682
		C1408.187,1497.784,1409.46,1496.857,1410.815,1496.456z"/>
	<path fill="#EC8D26" stroke="#EC8D26" d="M1248.456,1517.847c1.464-0.261,2.986-0.304,4.47-0.058
		c1.289,0.179,2.285,1.359,2.379,2.651c0.553,4.17-1.222,8.243-3.559,11.595c-2.601,3.921-6.588,6.72-10.82,8.64
		c-3.407,1.406-7.756-0.284-9.111-3.757c-0.938-1.733-0.604-3.796,0.28-5.463c2.959-5.116,6.868-10.17,12.541-12.389
		C1245.878,1518.579,1247.132,1518.1,1248.456,1517.847z"/>
	<path fill="#EC8D26" stroke="#EC8D26" d="M1452.468,1517.859c1.958-0.401,4.049-0.315,5.953,0.354
		c2.317,0.771,4.758,1.452,6.642,3.111c3.267,2.317,5.642,5.626,7.807,8.947c1.67,2.41,1.966,6.027,0,8.359
		c-2.219,2.589-6.261,3.271-9.228,1.624c-2.052-1.145-4.014-2.433-5.871-3.851c-1.869-1.39-3.255-3.298-4.489-5.237
		c-1.717-2.92-3.123-6.148-3.274-9.566C1450.077,1520.074,1450.911,1518.318,1452.468,1517.859z"/>
	<path fill="#86CCEB" stroke="#86CCEB" d="M630.247,1532.308c14.815-3.602,29.439-8.137,43.432-14.227
		c18.062,34.5,42.358,65.816,71.773,91.381c-2.85,5.108-6.335,9.847-10.415,14.036c-9.344,9.707-20.242,17.836-31.892,24.572
		c-14.032,8.102-29.073,14.359-44.472,19.347c-32.23,10.341-65.913,15.465-99.604,17.926c-9.952,0.615-19.911,1.281-29.891,1.335
		c-37.588,0.822-75.234-1.499-112.468-6.705c-33.706-4.847-67.257-11.79-99.398-23.194c-8.227-2.986-16.388-6.198-24.222-10.108
		c2.285-0.163,4.532,0.269,6.775,0.654c20.203,2.947,40.73,4.002,61.109,2.472c16.594-1.195,33.064-4.096,49.066-8.671
		c14.39-4.108,28.356-9.636,41.785-16.236c25.464-12.837,48.805-29.68,69.678-49.066c5.642-4.984,10.797-10.485,16.158-15.761
		c3.827-3.714,7.374-7.682,11.007-11.575c1.367-1.659,3.088-3.06,4.018-5.038C578.771,1541.742,604.811,1538.432,630.247,1532.308z"
		/>
	<path fill="#EC8D26" stroke="#EC8D26" d="M1307.637,1532.662c1.522-0.288,3.173-0.428,4.672,0.094
		c1.491,0.814,2.834,2.258,2.932,4.045c0.491,3.703-1.152,7.156-2.208,10.606c-2.321,6.81-7.752,12.296-14.149,15.422
		c-2.075,1.043-4.847,1.39-6.751-0.171c-2.683-2.169-3.905-5.969-3.107-9.302c0.783-3.185,1.935-6.319,3.812-9.029
		C1296.21,1538.896,1301.408,1534.391,1307.637,1532.662z"/>
	<path fill="#EC8D26" stroke="#EC8D26" d="M1393.684,1532.658c2.741-0.689,5.579,0.136,8.04,1.382
		c3.473,1.624,6.265,4.338,8.815,7.152c2.282,2.597,3.792,5.755,5.097,8.936c0.786,2.348,1.698,4.89,0.985,7.382
		c-0.67,2.659-2.465,5.326-5.233,6.07c-3.088,0.639-5.844-1.277-8.285-2.873c-2.235-1.339-3.944-3.329-5.77-5.135
		c-2.118-2.344-3.613-5.198-4.723-8.13c-1.02-3.224-2.508-6.432-2.231-9.893C1390.246,1535.407,1391.507,1533.161,1393.684,1532.658
		z"/>
</g>
</svg>
