<?xml version="1.0" encoding="UTF-8"?>
<!DOCTYPE svg PUBLIC "-//W3C//DTD SVG 1.1//EN" "http://www.w3.org/Graphics/SVG/1.1/DTD/svg11.dtd">
<svg version="1.1" xmlns="http://www.w3.org/2000/svg" xmlns:xlink="http://www.w3.org/1999/xlink" x="0" y="0" width="671.145" height="514.984" viewBox="0, 0, 671.145, 514.984">
  <g id="mypic">
    <g id="path74365">
      <path d="M666.581,405.244 C666.581,463.331 518.383,510.42 335.572,510.42 C152.761,510.42 4.564,463.331 4.564,405.244 C4.564,347.156 152.761,300.067 335.572,300.067 C518.383,300.067 666.581,347.156 666.581,405.244 z" fill="#FFFFFF"/>
      <path d="M666.581,405.244 C666.581,463.331 518.383,510.42 335.572,510.42 C152.761,510.42 4.564,463.331 4.564,405.244 C4.564,347.156 152.761,300.067 335.572,300.067 C518.383,300.067 666.581,347.156 666.581,405.244 z" fill-opacity="0" stroke="#000000" stroke-width="9.127" stroke-linecap="round" stroke-linejoin="round"/>
    </g>
    <g id="g74328">
      <path d="M591.227,354.86 C591.227,395.551 484.477,428.538 352.795,428.538 C221.114,428.538 114.364,395.551 114.364,354.86 C114.364,314.168 221.114,281.181 352.795,281.181 C484.477,281.181 591.227,314.168 591.227,354.86 z" fill="#FFEDBA" id="path74318"/>
      <g id="g74326">
        <g id="path74320">
          <path d="M114.247,353.747 L114.359,384.365 C114.359,425.057 221.108,458.044 352.79,458.044 C484.472,458.044 591.221,425.057 591.221,384.365 L591.221,354.86" fill="#FFEDBA"/>
          <path d="M114.247,353.747 L114.359,384.365 C114.359,425.057 221.108,458.044 352.79,458.044 C484.472,458.044 591.221,425.057 591.221,384.365 L591.221,354.86" fill-opacity="0" stroke="#552200" stroke-width="12.465" stroke-linecap="round" stroke-linejoin="round"/>
        </g>
        <path d="M352.795,281.181 C281.855,281.191 214.613,290.962 169.34,307.84 C152.234,315.722 142.798,328.762 142.783,337.521 C142.708,378.305 245.738,406.416 354.192,406.416 C462.646,406.416 561.615,375.807 561.615,335.022 C561.984,326.476 552.138,314.863 537.767,308.427 C492.528,291.204 424.582,281.195 352.795,281.181 z" fill="#DCA55C" id="path74322"/>
        <path d="M591.227,354.86 C591.227,395.551 484.477,428.538 352.795,428.538 C221.114,428.538 114.364,395.551 114.364,354.86 C114.364,314.168 221.114,281.181 352.795,281.181 C484.477,281.181 591.227,314.168 591.227,354.86 z" fill-opacity="0" stroke="#552200" stroke-width="12.465" stroke-linecap="round" stroke-linejoin="round" id="path74324"/>
      </g>
    </g>
    <g id="g74340">
      <path d="M605.383,276.661 C605.383,317.353 498.634,350.34 366.952,350.34 C235.27,350.34 128.521,317.353 128.521,276.661 C128.521,235.97 235.27,202.983 366.952,202.983 C498.634,202.983 605.383,235.97 605.383,276.661 z" fill="#FFEDBA" id="path74330"/>
      <g id="g74338">
        <g id="path74332">
          <path d="M128.404,275.548 L128.516,306.167 C128.516,346.858 235.265,379.845 366.947,379.845 C498.629,379.845 605.378,346.858 605.378,306.167 L605.378,276.661" fill="#FFEDBA"/>
          <path d="M128.404,275.548 L128.516,306.167 C128.516,346.858 235.265,379.845 366.947,379.845 C498.629,379.845 605.378,346.858 605.378,306.167 L605.378,276.661" fill-opacity="0" stroke="#552200" stroke-width="12.465" stroke-linecap="round" stroke-linejoin="round"/>
        </g>
        <path d="M366.952,202.982 C296.011,202.992 228.769,212.764 183.497,229.641 C166.391,237.523 156.955,250.564 156.94,259.322 C156.865,300.107 259.895,328.218 368.349,328.218 C476.802,328.218 575.772,297.608 575.772,256.824 C576.141,248.278 566.294,236.664 551.924,230.229 C506.684,213.005 438.739,202.997 366.952,202.982 z" fill="#DCA55C" id="path74334"/>
        <path d="M605.383,276.661 C605.383,317.353 498.634,350.34 366.952,350.34 C235.27,350.34 128.521,317.353 128.521,276.661 C128.521,235.97 235.27,202.983 366.952,202.983 C498.634,202.983 605.383,235.97 605.383,276.661 z" fill-opacity="0" stroke="#552200" stroke-width="12.465" stroke-linecap="round" stroke-linejoin="round" id="path74336"/>
      </g>
    </g>
    <g id="g74316">
      <path d="M576.408,199.846 C576.408,240.538 469.658,273.525 337.976,273.525 C206.295,273.525 99.545,240.538 99.545,199.846 C99.545,159.155 206.295,126.168 337.976,126.168 C469.658,126.168 576.408,159.155 576.408,199.846 z" fill="#FFEDBA" id="path74306"/>
      <g id="g74314">
        <g id="path74308">
          <path d="M99.428,198.733 L99.54,229.352 C99.54,270.043 206.289,303.03 337.971,303.03 C469.653,303.03 576.402,270.043 576.402,229.352 L576.402,199.846" fill="#FFEDBA"/>
          <path d="M99.428,198.733 L99.54,229.352 C99.54,270.043 206.289,303.03 337.971,303.03 C469.653,303.03 576.402,270.043 576.402,229.352 L576.402,199.846" fill-opacity="0" stroke="#552200" stroke-width="12.465" stroke-linecap="round" stroke-linejoin="round"/>
        </g>
        <path d="M337.976,126.167 C267.035,126.177 199.794,135.949 154.521,152.826 C137.415,160.708 127.979,173.749 127.964,182.507 C127.889,223.292 230.919,251.403 339.373,251.403 C447.827,251.403 546.796,220.793 546.796,180.009 C547.165,171.463 537.318,159.849 522.948,153.414 C477.709,136.19 409.763,126.182 337.976,126.167 z" fill="#DCA55C" id="path74310"/>
        <path d="M576.408,199.846 C576.408,240.538 469.658,273.525 337.976,273.525 C206.295,273.525 99.545,240.538 99.545,199.846 C99.545,159.155 206.295,126.168 337.976,126.168 C469.658,126.168 576.408,159.155 576.408,199.846 z" fill-opacity="0" stroke="#552200" stroke-width="12.465" stroke-linecap="round" stroke-linejoin="round" id="path74312"/>
      </g>
    </g>
    <g id="g74304">
      <path d="M592.587,117.638 C592.587,158.33 485.837,191.317 354.155,191.317 C222.473,191.317 115.724,158.33 115.724,117.638 C115.724,76.947 222.473,43.96 354.155,43.96 C485.837,43.96 592.587,76.947 592.587,117.638 z" fill="#FFEDBA" id="path74284"/>
      <g id="g74289">
        <g id="ellipse73172">
          <path d="M115.607,116.525 L115.719,147.144 C115.719,187.835 222.468,220.822 354.15,220.822 C485.832,220.822 592.581,187.835 592.581,147.144 L592.581,117.638" fill="#FFEDBA"/>
          <path d="M115.607,116.525 L115.719,147.144 C115.719,187.835 222.468,220.822 354.15,220.822 C485.832,220.822 592.581,187.835 592.581,147.144 L592.581,117.638" fill-opacity="0" stroke="#552200" stroke-width="12.465" stroke-linecap="round" stroke-linejoin="round"/>
        </g>
        <path d="M354.155,43.959 C283.214,43.969 215.973,53.741 170.7,70.618 C153.594,78.5 144.158,91.541 144.143,100.299 C144.068,141.084 247.098,169.195 355.552,169.195 C464.006,169.195 562.975,138.585 562.975,97.801 C563.344,89.255 553.497,77.641 539.127,71.206 C493.888,53.982 425.942,43.974 354.155,43.959 z" fill="#DCA55C" id="path73202"/>
        <path d="M592.587,117.638 C592.587,158.33 485.837,191.317 354.155,191.317 C222.473,191.317 115.724,158.33 115.724,117.638 C115.724,76.947 222.473,43.96 354.155,43.96 C485.837,43.96 592.587,76.947 592.587,117.638 z" fill-opacity="0" stroke="#552200" stroke-width="12.465" stroke-linecap="round" stroke-linejoin="round" id="path73170"/>
      </g>
    </g>
    <g id="g74363">
      <path d="M340.551,5.653 L288.775,26.521 L287.966,46.904 L283.56,46.882 C261.714,46.453 236.855,45.846 219.914,61.81 C206.782,72.39 208.068,92.83 219.622,104.033 C230.65,116.843 249.75,119.843 265.484,114.898 C281.743,112.556 299.349,112.389 313.798,121.258 C325.339,125.984 335.093,134.281 347.048,137.975 C363.412,143.918 376.898,132.863 389.426,124.438 C412.249,111.252 442.046,109.36 466.269,119.955 C475.589,125.357 481.019,135.146 489.852,141.243 C497.37,148.973 509.943,156.855 520.427,149.59 C529.588,138.98 526.489,123.019 522.698,110.768 C518.62,96.781 505.884,86.7 491.606,84.004 C477.861,80.19 478.999,61.837 465.527,56.753 C448.452,48.214 427.821,47.498 408.985,47.478 L405.838,47.455 L406.579,27.271 z" fill="#FEF6A8" id="path74354"/>
      <path d="M286.854,74.989 L288.766,26.512 L340.554,5.653 L406.579,27.271 L404.819,74.831 L345.836,101.638 z" fill-opacity="0" stroke="#000000" stroke-width="11.511" stroke-linecap="round" stroke-linejoin="round" id="path74342"/>
      <path d="M288.766,26.512 L343.925,52.148 L369.605,42.836" fill-opacity="0" stroke="#000000" stroke-width="11.511" stroke-linecap="round" id="path74344"/>
      <path d="M283.559,46.876 C261.713,46.447 236.863,45.849 219.922,61.813 C206.79,72.393 208.074,92.825 219.627,104.028 C230.655,116.838 249.752,119.848 265.487,114.903 C281.745,112.561 299.35,112.381 313.799,121.249 C325.341,125.976 335.098,134.289 347.054,137.983 C363.417,143.926 376.892,132.862 389.419,124.437 C412.243,111.251 442.037,109.35 466.26,119.945 C475.58,125.347 481.029,135.153 489.861,141.25 C497.379,148.98 509.932,156.864 520.417,149.6 C529.578,138.99 526.494,123.025 522.703,110.774 C518.625,96.787 505.874,86.71 491.596,84.013 C477.851,80.2 479.007,61.841 465.535,56.756 C448.46,48.218 427.827,47.507 408.991,47.487" fill-opacity="0" stroke="#000000" stroke-width="11.511" id="path74346"/>
    </g>
    <g id="g74463">
      <g id="g74395">
        <path d="M121.484,321.771 C140.049,349.522 140.036,363.09 136.363,389.256 C132.452,417.115 71.551,426.699 60.947,399.162 C49.281,368.871 57.633,334.754 77.273,315.928 C91.467,302.322 110.751,305.726 121.484,321.771 z" fill="#FF0000" id="path74385"/>
        <path d="M121.484,321.771 C140.049,349.522 140.036,363.09 136.363,389.256 C132.452,417.115 71.551,426.699 60.947,399.162 C49.281,368.871 57.633,334.754 77.273,315.928 C91.467,302.322 110.751,305.726 121.484,321.771 z" fill-opacity="0" stroke="#000000" stroke-width="10" id="path74387"/>
        <path d="M99.637,354.204 C95.456,355.146 92.682,361.692 94.012,365.766 C95.256,369.576 100.846,372.689 104.637,371.391 C107.99,370.244 109.841,365.149 109.012,361.704 C108.077,357.813 103.542,353.324 99.637,354.204 z" fill="#000000" id="path74389"/>
        <path d="M81.628,372.544 C77.447,373.486 74.673,380.032 76.003,384.107 C77.247,387.916 82.837,391.03 86.628,389.732 C89.98,388.584 91.832,383.489 91.003,380.044 C90.068,376.153 85.532,371.665 81.628,372.544 z" fill="#000000" id="path74391"/>
        <path d="M111.238,374.975 C107.057,375.917 104.283,382.463 105.613,386.538 C106.857,390.347 112.447,393.461 116.238,392.163 C119.591,391.015 121.442,385.92 120.613,382.475 C119.678,378.584 115.143,374.095 111.238,374.975 z" fill="#000000" id="path74393"/>
      </g>
      <g id="g74383">
        <path d="M179.296,353.646 C197.861,381.397 197.848,394.965 194.175,421.131 C190.265,448.99 129.364,458.574 118.759,431.037 C107.094,400.746 115.445,366.629 135.085,347.803 C149.28,334.197 168.563,337.601 179.296,353.646 z" fill="#FF0000" id="path74376"/>
        <path d="M179.296,353.646 C197.861,381.397 197.848,394.965 194.175,421.131 C190.265,448.99 129.364,458.574 118.759,431.037 C107.094,400.746 115.445,366.629 135.085,347.803 C149.28,334.197 168.563,337.601 179.296,353.646 z" fill-opacity="0" stroke="#000000" stroke-width="10" id="path74367"/>
        <path d="M157.45,386.079 C153.269,387.021 150.495,393.567 151.825,397.641 C153.069,401.451 158.659,404.564 162.45,403.266 C165.802,402.119 167.653,397.024 166.825,393.579 C165.89,389.688 161.354,385.199 157.45,386.079 z" fill="#000000" id="path74370"/>
        <path d="M139.441,404.419 C135.26,405.361 132.486,411.907 133.816,415.982 C135.06,419.791 140.65,422.905 144.441,421.607 C147.793,420.459 149.644,415.364 148.816,411.919 C147.881,408.028 143.345,403.54 139.441,404.419 z" fill="#000000" id="path74372"/>
        <path d="M169.051,406.85 C164.87,407.792 162.096,414.338 163.426,418.413 C164.67,422.222 170.26,425.336 174.051,424.038 C177.403,422.89 179.254,417.795 178.426,414.35 C177.491,410.459 172.955,405.97 169.051,406.85 z" fill="#000000" id="path74374"/>
      </g>
      <g id="path74408">
        <path d="M281.598,446.86 C281.598,459.938 270.997,470.54 257.919,470.54 C244.841,470.54 234.239,459.938 234.239,446.86 C234.239,433.782 244.841,423.18 257.919,423.18 C270.997,423.18 281.598,433.782 281.598,446.86 z" fill="#0000FF"/>
        <path d="M281.598,446.86 C281.598,459.938 270.997,470.54 257.919,470.54 C244.841,470.54 234.239,459.938 234.239,446.86 C234.239,433.782 244.841,423.18 257.919,423.18 C270.997,423.18 281.598,433.782 281.598,446.86 z" fill-opacity="0" stroke="#000000" stroke-width="12.953" stroke-linecap="round" stroke-linejoin="round"/>
      </g>
      <g id="circle74410">
        <path d="M230.348,432.485 C230.348,445.563 219.747,456.165 206.669,456.165 C193.591,456.165 182.989,445.563 182.989,432.485 C182.989,419.407 193.591,408.805 206.669,408.805 C219.747,408.805 230.348,419.407 230.348,432.485 z" fill="#0000FF"/>
        <path d="M230.348,432.485 C230.348,445.563 219.747,456.165 206.669,456.165 C193.591,456.165 182.989,445.563 182.989,432.485 C182.989,419.407 193.591,408.805 206.669,408.805 C219.747,408.805 230.348,419.407 230.348,432.485 z" fill-opacity="0" stroke="#000000" stroke-width="12.953" stroke-linecap="round" stroke-linejoin="round"/>
      </g>
      <g id="circle74412">
        <path d="M115.661,424.985 C115.661,438.063 105.059,448.665 91.981,448.665 C78.903,448.665 68.301,438.063 68.301,424.985 C68.301,411.907 78.903,401.305 91.981,401.305 C105.059,401.305 115.661,411.907 115.661,424.985 z" fill="#0000FF"/>
        <path d="M115.661,424.985 C115.661,438.063 105.059,448.665 91.981,448.665 C78.903,448.665 68.301,438.063 68.301,424.985 C68.301,411.907 78.903,401.305 91.981,401.305 C105.059,401.305 115.661,411.907 115.661,424.985 z" fill-opacity="0" stroke="#000000" stroke-width="12.953" stroke-linecap="round" stroke-linejoin="round"/>
      </g>
    </g>
  </g>
</svg>
